<svg xmlns="http://www.w3.org/2000/svg" xmlns:xlink="http://www.w3.org/1999/xlink" viewBox="0 0 1653.3 1102.2"><defs><style>.cls-1{fill:none;}.cls-2{isolation:isolate;}.cls-3{clip-path:url(#clip-path);}.cls-4{fill:#e0f3ff;}.cls-5{fill:url(#Áåçûìÿííûé_ãðàäèåíò_29);}.cls-6{fill:url(#Áåçûìÿííûé_ãðàäèåíò_28);}.cls-7{fill:#e5e2ff;}.cls-8{fill:url(#Áåçûìÿííûé_ãðàäèåíò_28-2);}.cls-10,.cls-9{opacity:0.62;}.cls-10,.cls-100,.cls-119,.cls-18,.cls-19,.cls-20,.cls-23,.cls-25,.cls-31,.cls-34,.cls-36,.cls-39,.cls-40,.cls-41,.cls-42,.cls-43,.cls-44,.cls-45,.cls-46,.cls-47,.cls-48,.cls-49,.cls-50,.cls-51,.cls-52,.cls-53,.cls-54,.cls-55,.cls-58,.cls-59,.cls-60,.cls-61,.cls-62,.cls-63,.cls-67,.cls-78,.cls-81,.cls-82,.cls-83,.cls-87,.cls-88,.cls-9,.cls-95,.cls-96,.cls-97,.cls-98,.cls-99{mix-blend-mode:multiply;}.cls-9{fill:url(#Áåçûìÿííûé_ãðàäèåíò_27);}.cls-10{fill:url(#Áåçûìÿííûé_ãðàäèåíò_94);}.cls-11,.cls-119,.cls-14,.cls-15,.cls-23,.cls-25,.cls-40,.cls-41,.cls-42,.cls-43,.cls-44,.cls-45,.cls-46,.cls-47,.cls-48,.cls-50,.cls-52,.cls-53,.cls-54,.cls-55,.cls-58,.cls-60,.cls-61,.cls-62,.cls-63,.cls-83{opacity:0.5;}.cls-11,.cls-14,.cls-15{mix-blend-mode:screen;}.cls-11{fill:url(#Áåçûìÿííûé_ãðàäèåíò_95);}.cls-12{fill:#fff;}.cls-13{fill:url(#Áåçûìÿííûé_ãðàäèåíò_74);}.cls-14{fill:url(#Áåçûìÿííûé_ãðàäèåíò_83);}.cls-15{fill:url(#Áåçûìÿííûé_ãðàäèåíò_83-2);}.cls-16{fill:url(#Áåçûìÿííûé_ãðàäèåíò_26);}.cls-17{fill:url(#Áåçûìÿííûé_ãðàäèåíò_26-2);}.cls-18,.cls-19,.cls-20,.cls-49{opacity:0.76;}.cls-18{fill:url(#Áåçûìÿííûé_ãðàäèåíò_70);}.cls-19{fill:url(#Áåçûìÿííûé_ãðàäèåíò_70-2);}.cls-20{fill:url(#Áåçûìÿííûé_ãðàäèåíò_70-3);}.cls-21{fill:#fe9083;}.cls-22{fill:url(#Áåçûìÿííûé_ãðàäèåíò_354);}.cls-23{fill:url(#Áåçûìÿííûé_ãðàäèåíò_70-4);}.cls-24{fill:url(#Áåçûìÿííûé_ãðàäèåíò_26-3);}.cls-25{fill:url(#Áåçûìÿííûé_ãðàäèåíò_70-5);}.cls-26{fill:url(#Áåçûìÿííûé_ãðàäèåíò_178);}.cls-27{fill:url(#Áåçûìÿííûé_ãðàäèåíò_55);}.cls-28{fill:#cb4d7a;}.cls-29{fill:#ee8183;}.cls-30{fill:url(#Áåçûìÿííûé_ãðàäèåíò_71);}.cls-31,.cls-36,.cls-67,.cls-78,.cls-81,.cls-82,.cls-93,.cls-95{opacity:0.6;}.cls-31{fill:url(#Áåçûìÿííûé_ãðàäèåíò_48);}.cls-32{fill:url(#Áåçûìÿííûé_ãðàäèåíò_71-2);}.cls-33{fill:#e28183;}.cls-34,.cls-39{opacity:0.91;}.cls-34{fill:url(#Áåçûìÿííûé_ãðàäèåíò_73);}.cls-35{fill:url(#Áåçûìÿííûé_ãðàäèåíò_71-3);}.cls-36{fill:url(#Áåçûìÿííûé_ãðàäèåíò_48-2);}.cls-37{fill:url(#Áåçûìÿííûé_ãðàäèåíò_64);}.cls-38{fill:url(#Áåçûìÿííûé_ãðàäèåíò_64-2);}.cls-39{fill:url(#Áåçûìÿííûé_ãðàäèåíò_73-2);}.cls-40{fill:url(#Áåçûìÿííûé_ãðàäèåíò_70-6);}.cls-41{fill:url(#Áåçûìÿííûé_ãðàäèåíò_70-7);}.cls-42{fill:url(#Áåçûìÿííûé_ãðàäèåíò_4);}.cls-43{fill:url(#Áåçûìÿííûé_ãðàäèåíò_4-2);}.cls-44{fill:url(#Áåçûìÿííûé_ãðàäèåíò_4-3);}.cls-45{fill:url(#Áåçûìÿííûé_ãðàäèåíò_4-4);}.cls-46{fill:url(#Áåçûìÿííûé_ãðàäèåíò_4-5);}.cls-47{fill:url(#Áåçûìÿííûé_ãðàäèåíò_4-6);}.cls-48{fill:url(#Áåçûìÿííûé_ãðàäèåíò_4-7);}.cls-49{fill:url(#Áåçûìÿííûé_ãðàäèåíò_70-8);}.cls-50{fill:url(#Áåçûìÿííûé_ãðàäèåíò_70-9);}.cls-51,.cls-59,.cls-96,.cls-97,.cls-98,.cls-99{opacity:0.3;}.cls-51{fill:url(#Áåçûìÿííûé_ãðàäèåíò_70-10);}.cls-52{fill:url(#Áåçûìÿííûé_ãðàäèåíò_4-8);}.cls-53{fill:url(#Áåçûìÿííûé_ãðàäèåíò_70-11);}.cls-54{fill:url(#Áåçûìÿííûé_ãðàäèåíò_4-9);}.cls-55{fill:url(#Áåçûìÿííûé_ãðàäèåíò_4-10);}.cls-56{fill:url(#Áåçûìÿííûé_ãðàäèåíò_25);}.cls-57{fill:#ebefff;}.cls-58{fill:url(#Áåçûìÿííûé_ãðàäèåíò_70-12);}.cls-59{fill:url(#Áåçûìÿííûé_ãðàäèåíò_70-13);}.cls-60{fill:url(#Áåçûìÿííûé_ãðàäèåíò_70-14);}.cls-61{fill:url(#Áåçûìÿííûé_ãðàäèåíò_70-15);}.cls-62{fill:url(#Áåçûìÿííûé_ãðàäèåíò_70-16);}.cls-63{fill:#7a4ac0;}.cls-64{fill:url(#Áåçûìÿííûé_ãðàäèåíò_71-4);}.cls-65{fill:url(#Áåçûìÿííûé_ãðàäèåíò_71-5);}.cls-66{fill:url(#Áåçûìÿííûé_ãðàäèåíò_387);}.cls-67{fill:url(#Áåçûìÿííûé_ãðàäèåíò_48-3);}.cls-68{fill:#38368e;}.cls-69{fill:url(#Áåçûìÿííûé_ãðàäèåíò_59);}.cls-70{fill:url(#Áåçûìÿííûé_ãðàäèåíò_184);}.cls-71{fill:#ffebed;}.cls-72{fill:#7f9ec9;}.cls-73{fill:#131163;}.cls-74{fill:#c6659c;}.cls-75{fill:#cb5f7d;}.cls-76{fill:#9f4a8b;}.cls-77{fill:#ffbcaf;}.cls-78{fill:url(#Áåçûìÿííûé_ãðàäèåíò_48-4);}.cls-79{fill:url(#Áåçûìÿííûé_ãðàäèåíò_292);}.cls-80{fill:#d2726c;}.cls-81{fill:url(#Áåçûìÿííûé_ãðàäèåíò_35);}.cls-82{fill:url(#Áåçûìÿííûé_ãðàäèåíò_52);}.cls-83{fill:url(#Áåçûìÿííûé_ãðàäèåíò_397);}.cls-84{fill:url(#Áåçûìÿííûé_ãðàäèåíò_141);}.cls-85{fill:url(#Áåçûìÿííûé_ãðàäèåíò_141-2);}.cls-86{fill:url(#Áåçûìÿííûé_ãðàäèåíò_141-3);}.cls-87,.cls-88{opacity:0.8;}.cls-87{fill:url(#Áåçûìÿííûé_ãðàäèåíò_285);}.cls-88{fill:url(#Áåçûìÿííûé_ãðàäèåíò_285-2);}.cls-89{fill:#34c7ff;}.cls-90{fill:url(#Áåçûìÿííûé_ãðàäèåíò_141-4);}.cls-91{fill:url(#Áåçûìÿííûé_ãðàäèåíò_141-5);}.cls-92{fill:url(#Áåçûìÿííûé_ãðàäèåíò_141-6);}.cls-93{fill:#36d1f7;}.cls-94{fill:#744ca2;}.cls-95{fill:url(#Áåçûìÿííûé_ãðàäèåíò_89);}.cls-96{fill:url(#Áåçûìÿííûé_ãðàäèåíò_85);}.cls-97{fill:url(#Áåçûìÿííûé_ãðàäèåíò_85-2);}.cls-98{fill:url(#Áåçûìÿííûé_ãðàäèåíò_85-3);}.cls-99{fill:url(#Áåçûìÿííûé_ãðàäèåíò_85-4);}.cls-100{fill:#d1d4fb;}.cls-101,.cls-120{mix-blend-mode:soft-light;}.cls-102{fill:#e0ffff;}.cls-103{fill:url(#Áåçûìÿííûé_ãðàäèåíò_65);}.cls-104{fill:url(#Áåçûìÿííûé_ãðàäèåíò_14);}.cls-105{opacity:0.81;fill:url(#Áåçûìÿííûé_ãðàäèåíò_115);}.cls-106{fill:#473da2;}.cls-107{fill:url(#Áåçûìÿííûé_ãðàäèåíò_302);}.cls-108{fill:url(#Áåçûìÿííûé_ãðàäèåíò_302-2);}.cls-109{fill:url(#Áåçûìÿííûé_ãðàäèåíò_322);}.cls-110{fill:url(#Áåçûìÿííûé_ãðàäèåíò_322-2);}.cls-111{fill:url(#Áåçûìÿííûé_ãðàäèåíò_25-2);}.cls-112{fill:url(#Áåçûìÿííûé_ãðàäèåíò_25-3);}.cls-113,.cls-115{opacity:0.73;}.cls-113{fill:url(#Áåçûìÿííûé_ãðàäèåíò_97);}.cls-114{fill:#953da2;}.cls-115{fill:url(#Áåçûìÿííûé_ãðàäèåíò_97-2);}.cls-116,.cls-117,.cls-118,.cls-119,.cls-120,.cls-124,.cls-125,.cls-126,.cls-127{fill-rule:evenodd;}.cls-116{fill:url(#Áåçûìÿííûé_ãðàäèåíò_206);}.cls-117{fill:url(#Áåçûìÿííûé_ãðàäèåíò_206-2);}.cls-118{fill:url(#Áåçûìÿííûé_ãðàäèåíò_107);}.cls-119{fill:#601734;}.cls-120{fill:#b3d9ff;}.cls-121{fill:#ff1d9c;}.cls-122{fill:#6877ff;}.cls-123{fill:#4f31e0;}.cls-124{fill:url(#Áåçûìÿííûé_ãðàäèåíò_107-2);}.cls-125{fill:url(#Áåçûìÿííûé_ãðàäèåíò_206-3);}.cls-126{fill:url(#Áåçûìÿííûé_ãðàäèåíò_107-3);}.cls-127{fill:url(#Áåçûìÿííûé_ãðàäèåíò_206-4);}</style><clipPath id="clip-path"><rect class="cls-1" width="1653.3" height="1102.17"/></clipPath><linearGradient id="Áåçûìÿííûé_ãðàäèåíò_29" x1="226.02" y1="788" x2="226.02" y2="591.84" gradientTransform="matrix(0.91, -0.42, 0.42, 0.91, -75.05, 53.74)" gradientUnits="userSpaceOnUse"><stop offset="0" stop-color="#dbccff"/><stop offset="1" stop-color="#d1bbff"/></linearGradient><linearGradient id="Áåçûìÿííûé_ãðàäèåíò_28" x1="226" y1="795.65" x2="226" y2="599.5" gradientTransform="matrix(0.91, -0.42, 0.42, 0.91, -75.05, 53.74)" gradientUnits="userSpaceOnUse"><stop offset="0" stop-color="#b5a6e7"/><stop offset="1" stop-color="#7760bf"/></linearGradient><linearGradient id="Áåçûìÿííûé_ãðàäèåíò_28-2" x1="226" y1="746.89" x2="226" y2="664.2" xlink:href="#Áåçûìÿííûé_ãðàäèåíò_28"/><linearGradient id="Áåçûìÿííûé_ãðàäèåíò_27" x1="214.27" y1="665.86" x2="237.74" y2="665.86" gradientTransform="matrix(0.91, -0.42, 0.42, 0.91, -75.05, 53.74)" gradientUnits="userSpaceOnUse"><stop offset="0" stop-color="#8b8be0"/><stop offset="1" stop-color="#a177b7"/></linearGradient><linearGradient id="Áåçûìÿííûé_ãðàäèåíò_94" x1="226" y1="671.3" x2="226" y2="657.1" gradientTransform="matrix(0.91, -0.42, 0.42, 0.91, -75.05, 53.74)" gradientUnits="userSpaceOnUse"><stop offset="0" stop-color="#fff"/><stop offset="1" stop-color="#a177b7"/></linearGradient><linearGradient id="Áåçûìÿííûé_ãðàäèåíò_95" x1="238.42" y1="755.33" x2="238.42" y2="664.18" gradientTransform="matrix(0.91, -0.42, 0.42, 0.91, -75.05, 53.74)" gradientUnits="userSpaceOnUse"><stop offset="0"/><stop offset="1" stop-color="#fff"/></linearGradient><linearGradient id="Áåçûìÿííûé_ãðàäèåíò_74" x1="772.35" y1="1102.17" x2="772.35" y2="856.36" gradientUnits="userSpaceOnUse"><stop offset="0" stop-color="#6456c0"/><stop offset="1" stop-color="#5f2c95"/></linearGradient><radialGradient id="Áåçûìÿííûé_ãðàäèåíò_83" cx="1062.35" cy="681.37" r="74.47" gradientTransform="matrix(0, 0.66, -1.71, 0, 1820.16, 309.23)" gradientUnits="userSpaceOnUse"><stop offset="0" stop-color="#4b474b"/><stop offset="1"/></radialGradient><radialGradient id="Áåçûìÿííûé_ãðàäèåíò_83-2" cx="904.64" cy="803.81" r="74.47" gradientTransform="matrix(0.66, 0, 0, 1.71, 281.97, -364.71)" xlink:href="#Áåçûìÿííûé_ãðàäèåíò_83"/><linearGradient id="Áåçûìÿííûé_ãðàäèåíò_26" x1="692.79" y1="1015.88" x2="757.26" y2="1015.88" gradientUnits="userSpaceOnUse"><stop offset="0" stop-color="#9e8cef"/><stop offset="1" stop-color="#caafee"/></linearGradient><linearGradient id="Áåçûìÿííûé_ãðàäèåíò_26-2" x1="-195.82" y1="1015.88" x2="-131.34" y2="1015.88" gradientTransform="matrix(-1, 0, 0, 1, 647.63, 0)" xlink:href="#Áåçûìÿííûé_ãðàäèåíò_26"/><linearGradient id="Áåçûìÿííûé_ãðàäèåíò_70" x1="763.7" y1="1102.17" x2="763.7" y2="856.36" gradientUnits="userSpaceOnUse"><stop offset="0" stop-color="#ccf"/><stop offset="1" stop-color="#755cbb"/></linearGradient><linearGradient id="Áåçûìÿííûé_ãðàäèåíò_70-2" x1="792.31" y1="979.27" x2="792.31" y2="912.22" xlink:href="#Áåçûìÿííûé_ãðàäèåíò_70"/><linearGradient id="Áåçûìÿííûé_ãðàäèåíò_70-3" x1="714.66" y1="954.61" x2="714.66" y2="888.93" xlink:href="#Áåçûìÿííûé_ãðàäèåíò_70"/><linearGradient id="Áåçûìÿííûé_ãðàäèåíò_354" x1="781.28" y1="486.2" x2="781.28" y2="388.07" gradientUnits="userSpaceOnUse"><stop offset="0" stop-color="#d5cdf8"/><stop offset="1" stop-color="#f3edfb"/></linearGradient><linearGradient id="Áåçûìÿííûé_ãðàäèåíò_70-4" x1="730.77" y1="437.04" x2="831.79" y2="437.04" xlink:href="#Áåçûìÿííûé_ãðàäèåíò_70"/><linearGradient id="Áåçûìÿííûé_ãðàäèåíò_26-3" x1="752.39" y1="878.24" x2="752.39" y2="383.8" xlink:href="#Áåçûìÿííûé_ãðàäèåíò_26"/><linearGradient id="Áåçûìÿííûé_ãðàäèåíò_70-5" x1="547.2" y1="570.14" x2="667.61" y2="570.14" xlink:href="#Áåçûìÿííûé_ãðàäèåíò_70"/><linearGradient id="Áåçûìÿííûé_ãðàäèåíò_178" x1="543.48" y1="708.61" x2="543.48" y2="477.41" gradientUnits="userSpaceOnUse"><stop offset="0" stop-color="#9e8cef"/><stop offset="1" stop-color="#dac7f3"/></linearGradient><linearGradient id="Áåçûìÿííûé_ãðàäèåíò_55" x1="941.06" y1="641.98" x2="1096.21" y2="641.98" gradientUnits="userSpaceOnUse"><stop offset="0" stop-color="#a999f1"/><stop offset="1" stop-color="#dac7f3"/></linearGradient><linearGradient id="Áåçûìÿííûé_ãðàäèåíò_71" x1="493.01" y1="445.88" x2="493.01" y2="384.92" gradientUnits="userSpaceOnUse"><stop offset="0.02" stop-color="#ffc2a9"/><stop offset="1" stop-color="#ff9595"/></linearGradient><linearGradient id="Áåçûìÿííûé_ãðàäèåíò_48" x1="531.4" y1="444.44" x2="531.4" y2="343.52" gradientUnits="userSpaceOnUse"><stop offset="0" stop-color="#ffeadb"/><stop offset="0.99" stop-color="#c27cb6"/></linearGradient><linearGradient id="Áåçûìÿííûé_ãðàäèåíò_71-2" x1="528.12" y1="513.09" x2="528.12" y2="357.52" xlink:href="#Áåçûìÿííûé_ãðàäèåíò_71"/><linearGradient id="Áåçûìÿííûé_ãðàäèåíò_73" x1="500.3" y1="488.81" x2="549.22" y2="488.81" gradientUnits="userSpaceOnUse"><stop offset="0.02" stop-color="#d1a1d6"/><stop offset="0.99" stop-color="#bd89c4"/></linearGradient><linearGradient id="Áåçûìÿííûé_ãðàäèåíò_71-3" x1="1099.41" y1="607.85" x2="1099.41" y2="399.81" xlink:href="#Áåçûìÿííûé_ãðàäèåíò_71"/><linearGradient id="Áåçûìÿííûé_ãðàäèåíò_48-2" x1="1123.98" y1="541.19" x2="1123.98" y2="437.84" xlink:href="#Áåçûìÿííûé_ãðàäèåíò_48"/><linearGradient id="Áåçûìÿííûé_ãðàäèåíò_64" x1="1144.37" y1="505.52" x2="1144.37" y2="459.19" gradientUnits="userSpaceOnUse"><stop offset="0" stop-color="#ffb0b0"/><stop offset="0.98" stop-color="#ffc2a9"/></linearGradient><linearGradient id="Áåçûìÿííûé_ãðàäèåíò_64-2" x1="1171.25" y1="512.65" x2="1171.25" y2="487.25" xlink:href="#Áåçûìÿííûé_ãðàäèåíò_64"/><linearGradient id="Áåçûìÿííûé_ãðàäèåíò_73-2" x1="1062.58" y1="563.3" x2="1109.83" y2="563.3" xlink:href="#Áåçûìÿííûé_ãðàäèåíò_73"/><linearGradient id="Áåçûìÿííûé_ãðàäèåíò_70-6" x1="996.81" y1="726.39" x2="996.81" y2="493.53" xlink:href="#Áåçûìÿííûé_ãðàäèåíò_70"/><linearGradient id="Áåçûìÿííûé_ãðàäèåíò_70-7" x1="484.1" y1="679.47" x2="873.58" y2="679.47" xlink:href="#Áåçûìÿííûé_ãðàäèåíò_70"/><linearGradient id="Áåçûìÿííûé_ãðàäèåíò_4" x1="827.47" y1="614.3" x2="901.92" y2="614.3" gradientUnits="userSpaceOnUse"><stop offset="0" stop-color="#ccedff"/><stop offset="1" stop-color="#755cbb"/></linearGradient><linearGradient id="Áåçûìÿííûé_ãðàäèåíò_4-2" x1="759.95" y1="744.95" x2="869.35" y2="744.95" xlink:href="#Áåçûìÿííûé_ãðàäèåíò_4"/><linearGradient id="Áåçûìÿííûé_ãðàäèåíò_4-3" x1="765.01" y1="794.42" x2="881.9" y2="794.42" xlink:href="#Áåçûìÿííûé_ãðàäèåíò_4"/><linearGradient id="Áåçûìÿííûé_ãðàäèåíò_4-4" x1="664.42" y1="671.94" x2="664.42" y2="540.75" xlink:href="#Áåçûìÿííûé_ãðàäèåíò_4"/><linearGradient id="Áåçûìÿííûé_ãðàäèåíò_4-5" x1="674.98" y1="682.97" x2="674.98" y2="583.52" xlink:href="#Áåçûìÿííûé_ãðàäèåíò_4"/><linearGradient id="Áåçûìÿííûé_ãðàäèåíò_4-6" x1="517.81" y1="555.85" x2="517.81" y2="480.71" xlink:href="#Áåçûìÿííûé_ãðàäèåíò_4"/><linearGradient id="Áåçûìÿííûé_ãðàäèåíò_4-7" x1="578.61" y1="489.68" x2="608.89" y2="489.68" xlink:href="#Áåçûìÿííûé_ãðàäèåíò_4"/><linearGradient id="Áåçûìÿííûé_ãðàäèåíò_70-8" x1="907.77" y1="671.94" x2="907.77" y2="532.68" xlink:href="#Áåçûìÿííûé_ãðàäèåíò_70"/><linearGradient id="Áåçûìÿííûé_ãðàäèåíò_70-9" x1="1064.33" y1="641.99" x2="1064.33" y2="569.22" xlink:href="#Áåçûìÿííûé_ãðàäèåíò_70"/><linearGradient id="Áåçûìÿííûé_ãðàäèåíò_70-10" x1="981.8" y1="638.74" x2="981.8" y2="583.1" xlink:href="#Áåçûìÿííûé_ãðàäèåíò_70"/><linearGradient id="Áåçûìÿííûé_ãðàäèåíò_4-8" x1="502.09" y1="560.64" x2="502.09" y2="539.98" xlink:href="#Áåçûìÿííûé_ãðàäèåíò_4"/><linearGradient id="Áåçûìÿííûé_ãðàäèåíò_70-11" x1="557.28" y1="623.63" x2="557.28" y2="510.72" xlink:href="#Áåçûìÿííûé_ãðàäèåíò_70"/><linearGradient id="Áåçûìÿííûé_ãðàäèåíò_4-9" x1="847.76" y1="544.15" x2="847.76" y2="459.19" xlink:href="#Áåçûìÿííûé_ãðàäèåíò_4"/><linearGradient id="Áåçûìÿííûé_ãðàäèåíò_4-10" x1="736.45" y1="532.67" x2="736.45" y2="415.4" xlink:href="#Áåçûìÿííûé_ãðàäèåíò_4"/><linearGradient id="Áåçûìÿííûé_ãðàäèåíò_25" x1="696.85" y1="554.12" x2="892.72" y2="554.12" gradientUnits="userSpaceOnUse"><stop offset="0" stop-color="#8642a0"/><stop offset="1" stop-color="#6456c0"/></linearGradient><linearGradient id="Áåçûìÿííûé_ãðàäèåíò_70-12" x1="713.74" y1="441.09" x2="841.21" y2="441.09" xlink:href="#Áåçûìÿííûé_ãðàäèåíò_70"/><linearGradient id="Áåçûìÿííûé_ãðàäèåíò_70-13" x1="1041.42" y1="633.69" x2="1041.42" y2="559.92" xlink:href="#Áåçûìÿííûé_ãðàäèåíò_70"/><linearGradient id="Áåçûìÿííûé_ãðàäèåíò_70-14" x1="937.15" y1="716.91" x2="937.15" y2="493.53" xlink:href="#Áåçûìÿííûé_ãðàäèåíò_70"/><linearGradient id="Áåçûìÿííûé_ãðàäèåíò_70-15" x1="696.99" y1="821.83" x2="696.99" y2="757.8" xlink:href="#Áåçûìÿííûé_ãðàäèåíò_70"/><linearGradient id="Áåçûìÿííûé_ãðàäèåíò_70-16" x1="821.38" y1="804.24" x2="821.38" y2="773.15" xlink:href="#Áåçûìÿííûé_ãðàäèåíò_70"/><linearGradient id="Áåçûìÿííûé_ãðàäèåíò_71-4" x1="820.01" y1="404.53" x2="820.01" y2="191.79" xlink:href="#Áåçûìÿííûé_ãðàäèåíò_71"/><linearGradient id="Áåçûìÿííûé_ãðàäèåíò_71-5" x1="740.7" y1="318.69" x2="740.7" y2="255.96" xlink:href="#Áåçûìÿííûé_ãðàäèåíò_71"/><linearGradient id="Áåçûìÿííûé_ãðàäèåíò_387" x1="849.58" y1="342.4" x2="852.21" y2="328.71" gradientUnits="userSpaceOnUse"><stop offset="0" stop-color="#e1616a"/><stop offset="1" stop-color="#ff8883"/></linearGradient><linearGradient id="Áåçûìÿííûé_ãðàäèåíò_48-3" x1="825.84" y1="331.93" x2="825.84" y2="194.88" xlink:href="#Áåçûìÿííûé_ãðàäèåíò_48"/><linearGradient id="Áåçûìÿííûé_ãðàäèåíò_59" x1="819.16" y1="275.8" x2="819.16" y2="248.66" gradientUnits="userSpaceOnUse"><stop offset="0" stop-color="#cf6074"/><stop offset="1" stop-color="#f37270"/></linearGradient><linearGradient id="Áåçûìÿííûé_ãðàäèåíò_184" x1="873.31" y1="284.42" x2="873.31" y2="260.79" gradientUnits="userSpaceOnUse"><stop offset="0" stop-color="#cf6074"/><stop offset="1" stop-color="#ff817f"/></linearGradient><linearGradient id="Áåçûìÿííûé_ãðàäèåíò_48-4" x1="875.53" y1="298.17" x2="875.53" y2="245" xlink:href="#Áåçûìÿííûé_ãðàäèåíò_48"/><linearGradient id="Áåçûìÿííûé_ãðàäèåíò_292" x1="822.86" y1="407.21" x2="822.86" y2="149.21" gradientUnits="userSpaceOnUse"><stop offset="0" stop-color="#2e33a0"/><stop offset="1" stop-color="#0665a5"/></linearGradient><linearGradient id="Áåçûìÿííûé_ãðàäèåíò_35" x1="890.63" y1="244.74" x2="890.63" y2="185.22" gradientUnits="userSpaceOnUse"><stop offset="0" stop-color="#ffeadb"/><stop offset="0.99" stop-color="#8860c7"/></linearGradient><linearGradient id="Áåçûìÿííûé_ãðàäèåíò_52" x1="809.52" y1="407.21" x2="809.52" y2="149.21" gradientUnits="userSpaceOnUse"><stop offset="0" stop-color="#ccc2db"/><stop offset="0.99" stop-color="#8860c7"/></linearGradient><linearGradient id="Áåçûìÿííûé_ãðàäèåíò_397" x1="826.82" y1="407.14" x2="826.82" y2="396.06" gradientUnits="userSpaceOnUse"><stop offset="0" stop-color="#776d7e"/><stop offset="1" stop-color="#9d68c2"/></linearGradient><linearGradient id="Áåçûìÿííûé_ãðàäèåíò_141" x1="859.34" y1="167.72" x2="859.34" y2="159.49" gradientUnits="userSpaceOnUse"><stop offset="0" stop-color="#1f77d1"/><stop offset="1" stop-color="#0686c9"/></linearGradient><linearGradient id="Áåçûìÿííûé_ãðàäèåíò_141-2" x1="806.88" y1="194.84" x2="806.88" y2="170.49" xlink:href="#Áåçûìÿííûé_ãðàäèåíò_141"/><linearGradient id="Áåçûìÿííûé_ãðàäèåíò_141-3" x1="895.12" y1="207.18" x2="895.12" y2="185.22" xlink:href="#Áåçûìÿííûé_ãðàäèåíò_141"/><linearGradient id="Áåçûìÿííûé_ãðàäèåíò_285" x1="749.84" y1="303.82" x2="721.74" y2="269.4" gradientUnits="userSpaceOnUse"><stop offset="0" stop-color="#ffeadb"/><stop offset="0.99" stop-color="#b060f4"/></linearGradient><linearGradient id="Áåçûìÿííûé_ãðàäèåíò_285-2" x1="752.78" y1="299.39" x2="738.95" y2="282.45" xlink:href="#Áåçûìÿííûé_ãðàäèåíò_285"/><linearGradient id="Áåçûìÿííûé_ãðàäèåíò_141-4" x1="805.26" y1="197.01" x2="852.83" y2="197.01" xlink:href="#Áåçûìÿííûé_ãðàäèåíò_141"/><linearGradient id="Áåçûìÿííûé_ãðàäèåíò_141-5" x1="872.36" y1="339.3" x2="886.79" y2="339.3" xlink:href="#Áåçûìÿííûé_ãðàäèåíò_141"/><linearGradient id="Áåçûìÿííûé_ãðàäèåíò_141-6" x1="854.55" y1="328.57" x2="870.11" y2="328.57" xlink:href="#Áåçûìÿííûé_ãðàäèåíò_141"/><linearGradient id="Áåçûìÿííûé_ãðàäèåíò_89" x1="969.35" y1="366.32" x2="1457.22" y2="366.32" gradientUnits="userSpaceOnUse"><stop offset="0" stop-color="#9d68c2"/><stop offset="1" stop-color="#aec2ff"/></linearGradient><linearGradient id="Áåçûìÿííûé_ãðàäèåíò_85" x1="1068.59" y1="550.59" x2="1068.59" y2="403.44" gradientUnits="userSpaceOnUse"><stop offset="0" stop-color="#ccedff"/><stop offset="1" stop-color="#9d68c2"/></linearGradient><linearGradient id="Áåçûìÿííûé_ãðàäèåíò_85-2" x1="1319.5" y1="478.85" x2="1319.5" y2="414.03" xlink:href="#Áåçûìÿííûé_ãðàäèåíò_85"/><linearGradient id="Áåçûìÿííûé_ãðàäèåíò_85-3" x1="1395.97" y1="478.85" x2="1395.97" y2="414.03" xlink:href="#Áåçûìÿííûé_ãðàäèåíò_85"/><linearGradient id="Áåçûìÿííûé_ãðàäèåíò_85-4" x1="1241.75" y1="478.85" x2="1241.75" y2="414.03" xlink:href="#Áåçûìÿííûé_ãðàäèåíò_85"/><linearGradient id="Áåçûìÿííûé_ãðàäèåíò_65" x1="544.66" y1="319.6" x2="544.66" y2="251.75" gradientUnits="userSpaceOnUse"><stop offset="0" stop-color="#d93de3"/><stop offset="1" stop-color="#ff6dba"/></linearGradient><linearGradient id="Áåçûìÿííûé_ãðàäèåíò_14" x1="586.13" y1="319.6" x2="586.13" y2="251.75" gradientUnits="userSpaceOnUse"><stop offset="0" stop-color="#a242ea"/><stop offset="1" stop-color="#fe117e"/></linearGradient><linearGradient id="Áåçûìÿííûé_ãðàäèåíò_115" x1="532.89" y1="1034.31" x2="569.58" y2="742.19" gradientUnits="userSpaceOnUse"><stop offset="0" stop-color="#067eff"/><stop offset="1" stop-color="#3e37a0"/></linearGradient><linearGradient id="Áåçûìÿííûé_ãðàäèåíò_302" x1="1389.42" y1="312.21" x2="1389.42" y2="287.59" gradientUnits="userSpaceOnUse"><stop offset="0" stop-color="#459fff"/><stop offset="1" stop-color="#a96dff"/></linearGradient><linearGradient id="Áåçûìÿííûé_ãðàäèåíò_302-2" x1="232.16" y1="600.79" x2="232.16" y2="570.14" xlink:href="#Áåçûìÿííûé_ãðàäèåíò_302"/><linearGradient id="Áåçûìÿííûé_ãðàäèåíò_322" x1="1425.59" y1="312.21" x2="1425.59" y2="287.59" gradientUnits="userSpaceOnUse"><stop offset="0" stop-color="#b31a8f"/><stop offset="1" stop-color="#fe117e"/></linearGradient><linearGradient id="Áåçûìÿííûé_ãðàäèåíò_322-2" x1="631.55" y1="393.27" x2="631.55" y2="375.86" xlink:href="#Áåçûìÿííûé_ãðàäèåíò_322"/><linearGradient id="Áåçûìÿííûé_ãðàäèåíò_25-2" x1="1214.76" y1="777.48" x2="1214.76" y2="760.07" xlink:href="#Áåçûìÿííûé_ãðàäèåíò_25"/><linearGradient id="Áåçûìÿííûé_ãðàäèåíò_25-3" x1="309.54" y1="863.37" x2="309.54" y2="847.8" xlink:href="#Áåçûìÿííûé_ãðàäèåíò_25"/><linearGradient id="Áåçûìÿííûé_ãðàäèåíò_97" x1="374.86" y1="779.16" x2="374.86" y2="650.58" gradientUnits="userSpaceOnUse"><stop offset="0" stop-color="#d906e3"/><stop offset="1" stop-color="#ff6df9"/></linearGradient><linearGradient id="Áåçûìÿííûé_ãðàäèåíò_97-2" x1="1262.63" y1="961.15" x2="1262.63" y2="800.31" xlink:href="#Áåçûìÿííûé_ãðàäèåíò_97"/><linearGradient id="Áåçûìÿííûé_ãðàäèåíò_206" x1="1196.98" y1="636.57" x2="1183.28" y2="518.94" gradientTransform="matrix(0.97, 0.26, -0.26, 0.97, 63.63, -54.68)" gradientUnits="userSpaceOnUse"><stop offset="0" stop-color="#1852a0"/><stop offset="1" stop-color="#067ed3"/></linearGradient><linearGradient id="Áåçûìÿííûé_ãðàäèåíò_206-2" x1="1183.7" y1="637.02" x2="1183.7" y2="516.48" xlink:href="#Áåçûìÿííûé_ãðàäèåíò_206"/><linearGradient id="Áåçûìÿííûé_ãðàäèåíò_107" x1="1160.81" y1="481.81" x2="1151.94" y2="405.72" gradientTransform="matrix(0.94, 0.33, -0.52, 1.49, 181.34, -235.91)" gradientUnits="userSpaceOnUse"><stop offset="0" stop-color="#188dc1"/><stop offset="1" stop-color="#06bfe7"/></linearGradient><linearGradient id="Áåçûìÿííûé_ãðàäèåíò_107-2" x1="1136.2" y1="242.75" x2="1167.43" y2="126.79" gradientTransform="matrix(1, 0, 0, 1, 0, 0)" xlink:href="#Áåçûìÿííûé_ãðàäèåíò_107"/><linearGradient id="Áåçûìÿííûé_ãðàäèåíò_206-3" x1="1082.54" y1="229.37" x2="1105.82" y2="142.9" gradientTransform="matrix(1, 0, 0, 1, 0, 0)" xlink:href="#Áåçûìÿííûé_ãðàäèåíò_206"/><linearGradient id="Áåçûìÿííûé_ãðàäèåíò_107-3" x1="-26.82" y1="442.44" x2="-5.53" y2="363.39" gradientTransform="matrix(-1, 0, 0, 1, 206.66, 0)" xlink:href="#Áåçûìÿííûé_ãðàäèåíò_107"/><linearGradient id="Áåçûìÿííûé_ãðàäèåíò_206-4" x1="-63.4" y1="433.32" x2="-47.53" y2="374.37" gradientTransform="matrix(-1, 0, 0, 1, 206.66, 0)" xlink:href="#Áåçûìÿííûé_ãðàäèåíò_206"/></defs><title>FONDD</title><g class="cls-2"><g id="illustration"><g class="cls-3"><circle class="cls-4" cx="741.3" cy="538.8" r="427.1" transform="translate(-163.8 682) rotate(-45)"/><path class="cls-5" d="M427.4,511.4c-10.5-18-29.1-25.5-29.1-25.5l-6.5,3,14.6,26.5a28.8,28.8,0,0,1-8.9,15.8h-.1a28,28,0,0,1-17.8-3.3l-10.9-28.1-6.5,3s-6.2,19,.9,38.7c0,0,2.8,6.4,3.3,6.9,2.5,3,9.2,6.5,22.2,5.7l44.6,85.1A23.4,23.4,0,0,0,463.3,672a23.3,23.3,0,0,0-5.9-44.1L420.7,539c8.7-9.2,10.6-16.4,9.9-20.6C430.5,517.5,427.4,511.4,427.4,511.4Zm36.7,146.9-11.8,5.6-10.7-7.5,1.1-13,11.8-5.6,10.7,7.5Z"/><path class="cls-6" d="M430.6,518.4c-10.5-18.1-29.1-25.6-29.1-25.6l-6.5,3.1,14.6,26.4a28.2,28.2,0,0,1-8.9,15.8h0a28.3,28.3,0,0,1-17.8-3.2l-11-28.2-6.4,3s-6.3,19.1.9,38.7c0,0,10.1,13.6,25.4,12.6l44.7,85.2a22.9,22.9,0,0,0-1,21.6,23.4,23.4,0,1,0,25.1-32.9L423.9,546C434.5,534.8,430.6,518.4,430.6,518.4Zm36.7,146.9-11.8,5.5-10.7-7.5,1.1-13,11.9-5.5,10.7,7.5Z"/><rect class="cls-7" x="363.5" y="500.8" width="7.1" height="7.65" transform="translate(-179.1 202.8) rotate(-25)"/><rect class="cls-7" x="393.1" y="487.1" width="7.1" height="7.65" transform="translate(-170.5 214.1) rotate(-25)"/><rect class="cls-7" x="453.3" y="660.7" width="13.1" height="7.65" transform="translate(-238.1 257.1) rotate(-25)"/><path class="cls-8" d="M401.4,567.2l36,69.3a17.5,17.5,0,0,0,14.6-6.8l-29.4-72.4C409.4,556.8,401.4,567.2,401.4,567.2Zm47.8,63.1a25.4,25.4,0,0,1-4.7,3.1,17.1,17.1,0,0,1-4.9,1.4L403.4,567a36.2,36.2,0,0,1,8.7-5.7,29.2,29.2,0,0,1,9-2.7Z"/><path class="cls-7" d="M449.2,630.3l2.8-.6s-4.1,7.4-14.6,6.8l2.2-1.7A19.7,19.7,0,0,0,449.2,630.3Z"/><path class="cls-9" d="M401.4,567.2l2-.2s6.2-6.4,17.7-8.4l1.5-1.3s-4.6-.8-11.7,2.5S401.4,567.2,401.4,567.2Z"/><path class="cls-10" d="M391.8,560.9A80.3,80.3,0,0,0,423.9,546l4.7,11.3s-5.3-5.2-17-.5c-13.6,5.6-12.9,16.6-12.9,16.6Z"/><path class="cls-11" d="M428.6,557.3a13.4,13.4,0,0,0-7.1-2.4l34.9,84.3,4.2-4.4Z"/><path class="cls-12" d="M428.6,557.3s-3.6,11.3,6.9,16.6Z"/><path class="cls-13" d="M954,1102.2H824.5c-13.5-75.3-45.1-173.3-45.1-173.3-7.6-4.5-22.6,1.1-22.6,1.1l-47.3,172.2H591.1C584.9,995.9,643,875.3,643,875.3h0c-.2-.4-2.1-4.1-1.6-6.6s2.2-3.1,4.4-5.1,7-5.9,7-5.9l220.8-1.3s2.2,1.1,5.1,2.8h0c4.8,2.9,11.3,7.4,11.3,10.7a15.7,15.7,0,0,1-2.2,8.2h-.1C935,967.6,954,1102.2,954,1102.2Z"/><ellipse class="cls-14" cx="652.6" cy="1013.8" rx="127.6" ry="49.4" transform="translate(-481.9 1421.8) rotate(-77)"/><ellipse class="cls-15" cx="881.9" cy="1012.5" rx="49.4" ry="127.6" transform="translate(-240.5 275.5) rotate(-15.7)"/><path class="cls-16" d="M694.1,1102.3l-1.3-.2c15-88.8,53.3-163.2,53.7-163.9V938l9.8-8.5.9,1-9.7,8.4C745.9,942.3,708.9,1015.4,694.1,1102.3Z"/><path class="cls-17" d="M842.1,1102.3c-14.8-87-52.8-160.8-54.5-164.1l-8.6-7.7.9-1,8.8,8c.4.7,39.7,75.8,54.7,164.6Z"/><path class="cls-18" d="M890,869.9a15.7,15.7,0,0,1-2.2,8.2h-.1c-46,10.4-80.9,53.3-80.9,53.3,25,48.1,66.8,170.7,66.8,170.7H824.5c-13.5-75.3-45.1-173.3-45.1-173.3-7.6-4.5-22.6,1.1-22.6,1.1l-47.3,172.2H678.8c11-72.2,43.4-160.2,43.4-160.2-31.9-37.1-79.2-66.7-79.2-66.7h0l-5.6-3.5,4-3.1c20.5,19.7,86.5,45.3,88.6,46.1l-84.2-51.2c3.2-2.9,7-5.9,7-5.9l220.8-1.3s2.2,1.1,5.1,2.8l-60.3,33.2Z"/><polygon class="cls-19" points="779.4 928.9 805.2 912.2 799.1 928.9 794.6 979.3 779.4 928.9"/><polygon class="cls-20" points="756.8 930 730 914.8 672.5 888.9 745.7 937.3 750 954.6 756.8 930"/><path class="cls-21" d="M830.7,412.4a10.8,10.8,0,0,0,.3,1.8c-1.4,5.6-2.9,10.8-4.6,15.6a125.8,125.8,0,0,1-17.2,33.4,65.3,65.3,0,0,1-7.5,8.7c-40.2-12.6-60-51.9-67.6-71.5a.4.4,0,0,1-.1-.3c-1.5-3.7-2.4-6.7-3-8.6h0c-.5-1.6-.7-2.4-.7-2.4l.5-1v-.2c.6-1.3,1.3-2.7,1.9-4.1a205.8,205.8,0,0,0,11-30.8,156.1,156.1,0,0,0,3.5-15.7,23.2,23.2,0,0,1,.4-2.3l18.7,9.8L831,379a99,99,0,0,0-1.4,16.4,86.7,86.7,0,0,0,.2,9.1,66.4,66.4,0,0,0,.8,7.4h0A.9.9,0,0,0,830.7,412.4Z"/><path class="cls-22" d="M812.7,476.2a56.6,56.6,0,0,1-13.3,9.8l-.3.2-.4-.2h0c-1.4-.8-6.2-3.8-12.7-8.6-16.8-12.7-45-38.4-53.1-73h0a86.3,86.3,0,0,1-1.9-12.7h0c-.1-1.1-.2-2.3-.2-3.4a179.1,179.1,0,0,0,15.3,27.3c11.4,16.7,28.5,34.9,48.9,35,17.7.1,26.8-12,31.4-23.1a67.6,67.6,0,0,0,3.7-12.7h0c.2-1,.4-1.9.5-2.7h0a3.8,3.8,0,0,0,.1-1l.3-2S837.7,451.3,812.7,476.2Z"/><path class="cls-23" d="M812.7,476.2a56.6,56.6,0,0,1-13.3,9.8h-.7c-1.4-.8-6.2-3.8-12.7-8.6-16.8-12.7-45-38.4-53.1-73h0a86.3,86.3,0,0,1-1.9-12.7h0c-.1-1.1-.2-2.3-.2-3.4a179.1,179.1,0,0,0,15.3,27.3s11.1,30.6,35.2,45.7c12,7.6,21.2,6.5,27.9,2.1s11.1-12.2,13.7-18.1a44.4,44.4,0,0,0,3.5-15.3v-2.5a67.6,67.6,0,0,0,3.7-12.7h0c.2-1,.4-1.9.5-2.7h0a3.8,3.8,0,0,0,.1-1l.3-2S837.7,451.3,812.7,476.2Z"/><path class="cls-24" d="M967.5,726.1l-.5.3c-2.2.2-9.2-1.3-18.4-9.3h-.1a.1.1,0,0,0-.1-.1.1.1,0,0,0-.1-.1c-7.7-6.7-16.9-18-26.2-36.5-18.4-36.9-23.7-61.5-24.6-65.8v-.7L886.6,631c-7.3,22-21.1,112.9-20.8,116.8s12.2,22.9,12,25.3h-.1c-.3,2.4-5.7,7.6-7.2,13.3-1.1,3.8,6.3,15.7,11.4,24.6h0c2.7,4.6,4.7,8.4,4.7,9.9,0,4.1-13,24.5-13,24.5v11l-.2.2-.6.5-.5.4c-5,3.9-26,16.7-91.7,20.3-77.8,4.1-129.7-20.9-129.7-20.9l3.9-10.7s-3.6-3.1-3.9-4.7,2.9-5.3,2.9-5.3-7.8-4.1-7.8-9.4,15.6-21.3,15.1-35.2-12.5-26.1-14.1-33.9,20.4-27.2,20.4-27.2c-18.8-59.5-22.5-139.4-22.5-139.4l-3.6-4.1s-22.5,51.1-42.8,76.2c-2.5,3-5,5.9-7.7,8.7a231.1,231.1,0,0,1-17.5,17c-14.1,12.3-26.9,20.3-30.2,19.7-5.2-1-26.1-42.3-25.1-84.6.4-20.1,12.5-42.6,25.1-60.7,1.4-1.9,2.7-3.8,4.1-5.6a288.2,288.2,0,0,1,21.6-26.1l2.5-2.6s-2.9-9.2-4.8-17.2c0-.2-.1-.4-.1-.6s-.1-.2-.1-.3v-.2c-1.1-4.9-1.8-9.2-1.2-10.2,1.8-2.8,11.9-6,13.6-8s9.1-37.3,14.6-41.1,14.8-6.3,46.1-18.7l4.8-1.8c35.1-13.9,69.6-30.8,69.6-30.8l13.2-16.3h5.9l-1.9,4.1v.2c.9,4.2,2,8.2,3.2,12a.4.4,0,0,0,.1.3c18.2,57.4,65,75.9,65,75.9,32.5-24,31.9-62.1,31.9-62.1v-5.3l6,1.9,4.2,9.9s7.1,10.9,35,23.2a149.8,149.8,0,0,1,15.3,7.9c25.6,14.5,54.1,37,56.2,41.7a11,11,0,0,1,.8,2.4h0c3,11.8,9.1,56,14.9,71.7,3.6,9.9,9.2,15.3,13.4,18.1h0a18.5,18.5,0,0,0,5.4,2.8q.6,3.8,1.2,7.2C995.4,671.3,972.6,722.6,967.5,726.1Z"/><path class="cls-25" d="M667.6,583.5l-22.7,7.6-3.6-4.1s-22.5,51.1-42.8,76.2c-2.5,3-5,5.9-7.7,8.7a231.1,231.1,0,0,1-17.5,17L556,614.3l-8.8-56.6a288.2,288.2,0,0,1,21.6-26.1l2.5-2.6s-2.9-9.2-4.8-17.2c0-.2-.1-.4-.1-.6s-.1-.2-.1-.3v-.2c-1.1-4.9-1.8-9.2-1.2-10.2,1.8-2.8,11.9-6,13.6-8s9.1-37.3,14.6-41.1c0,0-3.6,33.7,15.7,76.6l9.4,13.2,27.5,22.1S656.2,577.2,667.6,583.5Z"/><path class="cls-26" d="M601.9,644.6c-4.9,36.2-58.8,64-58.8,64-12,0-25.4-20.9-37.6-46.6S492.6,562.2,492,557.6s-7.5-13.7-7.9-17.6,11-12,11-12v-.4c-1.2-2.6-7.9-16.9-7.4-19.5s13.3-9.1,13.3-9.1l.8,14.1s29.7-5.6,39.8-28.6l1.7-7.1,5,3.3V511s1,4.7,2.6,4.7,13.1-5.8,15.5-5,4.9,17,8.1,19.1,11.9,8.1,13.2,11c.6,1.2.6,5.9.7,11.4s.1,14.6,1.1,19.1C591.1,579.4,606.8,608.4,601.9,644.6Z"/><path class="cls-27" d="M1095.1,613.6c-2.4,3.8-14.6,11.8-17.7,15s0,13.4,0,13.4c-51.2,54.3-104.5,81.5-109.9,84.1l-.5.3c-32.1-21.6-29.3-57.2-18.7-87.2s27.7-52.4,28.5-53.4h0c.6-.2,9.8-4,16.3-4.5a10.5,10.5,0,0,1,6.1,1.9c3.9,2.4,7.2,6.3,10.4,4.7s15.2-27.3,22.4-28c5-.4,11.9,4.6,16.5,7.5,2,1.3,3.6,2.1,4.3,1.9,2.6-.7,11.5-11.3,12.2-11.6s4.8,2.7,4.8,2.7l-2.9,3.5a96.9,96.9,0,0,0,18.7,42l9.5-14S1097.6,609.7,1095.1,613.6Z"/><path class="cls-28" d="M830.8,411.3a3.7,3.7,0,0,0-.1,1.1l-.6,2.2h0c-3.3,12.2-16.5,24.6-33.3,18.6s-53-80.2-53-80.2l3.5-15.7,82.5,67.2.9,6.4Z"/><path class="cls-29" d="M556,397.8s-5.1-27.8-2.8-48.4-.6-43.8-.6-43.8-5-2.1-8.6,0-12.2,23.3-8.4,40.3.9,58,.9,58h-5.7l-12.6-17.2-6.1-1.8s-35,33.1-34.5,52.7l4.6,17.5,43.2-1.4,28.2-32.2Z"/><path class="cls-30" d="M512.1,384.9s.9,21.9,5.9,40.7c0,0-.9,7.7-9.9,8.3l-2.2-2.5s-1.6,8.7-9.5,9.4l-7.6-7.6,2,6.3s-2.8,6.6-9.9,6.4c0,0-12.1-9.4-12.8-21.7l11.8-10v-7.7l14.1-10,.3-5.6S502.6,384.8,512.1,384.9Z"/><path class="cls-31" d="M553.7,343.5s-2.1,5.4-5.1,7.5-11.7,3.7-11.7,3.7l-.4,49.2h-5.7l-12.6-17.2s6.4,9.8,6.8,17.2l-5,2.4-4.3-14.7-2,10.6,2,13.2s7.4-6.4,20.9-6.7l2,3.7s-24.3,20.2-29.9,32c0,0,12-15.2,39.4-32.1l2.6-8.1,3.4-19.3S550.9,357.1,553.7,343.5Z"/><path class="cls-32" d="M574.1,429.3c-2.3,6.8-25.9,35-28.6,41.1a80.5,80.5,0,0,0-4.1,14.1c-11.7,25.1-39.8,28.6-39.8,28.6l-1.3-22.7s-15.1-8.7-17.7-13.5h0l-.3-.8c-.8-4.4-.1-20.9-.1-20.9l26.5-10.7c11.4-14.9,39.4-32.1,39.4-32.1l1.3-7.8c-20.1-9.8-16.7-39.7-13.3-43.3s9.6-3.7,9.6-3.7,7.3,24,12,35.3S576.4,422.5,574.1,429.3Z"/><path class="cls-33" d="M494.3,390.9s3,27.4,11.6,40.5A64.3,64.3,0,0,1,494,396.5Z"/><path class="cls-33" d="M479.9,406.5s2.9,22,16.5,34.3c0,0-12-6-16.5-26.6Z"/><path class="cls-34" d="M549.2,464.5s-29.8,29-48.9,25.9l1.3,22.7s31.3-2.7,41.5-35.7C543.1,477.4,546.8,467.9,549.2,464.5Z"/><path class="cls-35" d="M1180.3,503.9s-27.4,50.2-59.5,65.6h-11l-25.3,38.3s-16.4-10.2-17.6-44c0,0,5.8-6,7.2-12.7,0,0-9.1-7.1-11.5-12.3s-3.3-20.9-5.1-27.4-16.5-19.8-19.8-21.5-18.3-2.7-18.3-2.7-2.1-5.4,0-7.9,25.4-11.7,38.1-3c0,0,.9,6.6,2.3,10.1s12.5,15.8,14.3,15.8,9.2-6.3,12.5-11.1,20-41,24.1-53.3a.4.4,0,0,1,.1-.3c.1-.2.1-.4.2-.6a.4.4,0,0,1,.1-.3v-.2c3.2-10.6,21.4-30.9,31.2-36.5,0,0,4.2-1.1,6.4,4.2,0,0-7.8,22.2-16,35.5-1.4,2.2-2.9,4.8-4.4,7.6h0c-7,12.8-14.9,29.6-16,32.1v.3l4.3,2.2,11.8-11.1,12.1-11.5,27.7,29.3-2.8,3.4-8.6,11.1,4.4.8,10.2-11.2Z"/><path class="cls-36" d="M1173.9,514.6l-8.8,12.9s-48-37.1-58.5-40.3-14.3-1-14.3-1l-10.7,13.7s19.8,17.6,21.5,41.3c0,0-6.6-29.9-29-39,1.7,0,9.2-6.3,12.5-11.1s20-41,24.1-53.3c-.6,2.1-1.3,6.2.4,9.4s16.3.3,17.2,0h0l-16,32.1v.3l4.3,2.2,11.8-11.1-5.9,13.6,42.9,7.6-8.6,11.1,4.4.8Z"/><path class="cls-37" d="M1140.4,459.2s8.3-1.2,13.7,9.6l-1.2,3.5s8.1,1.6,16,14.8c0,0-6.9,12.7-24.2,18.4,0,0-8-2.2-9.4-9l1.6-4.4-6.3,4.7s-7.5,2.3-10.8-8.9Z"/><path class="cls-38" d="M1182.8,500.5s1.8-8-6.8-13.3l-16.5,18.3s.5,5.9,7.7,7.2C1167.2,512.7,1178.5,508.8,1182.8,500.5Z"/><path class="cls-39" d="M1062.6,538.8s19.1,21.3,47.2,30.7l-12.1,18.3-25.3-32.1,1.7-4.6S1064,543.5,1062.6,538.8Z"/><path class="cls-33" d="M1152.9,472.3s-8,13.2-16,19.8l-1.6,4.4s15.6-10.5,21.3-22.6A9.3,9.3,0,0,0,1152.9,472.3Z"/><path class="cls-40" d="M1095.1,613.6c-2.4,3.8-14.6,11.8-17.7,15s0,13.4,0,13.4c-51.2,54.3-104.5,81.5-109.9,84.1l-.5.3c-4.1.5-24.5-5.2-44.9-46-18.4-36.9-23.7-61.5-24.6-65.8v-.7l4.5-6.1,6.7-75.1,4.7,15.1c17.7-21.4,34.4-54.3,34.4-54.3l.8,2.4h0c3,11.8,9.1,56,14.9,71.7,3.6,9.9,9.2,15.3,13.4,18.1h0c-16.4,14.9-24.5,36.3-28.5,53.4a154.4,154.4,0,0,0-3.9,27.6s4.5-21.2,18.8-46.7c5.2-9.3,12.7-17.6,20.2-24.4a157.3,157.3,0,0,1,15.8-12.6c3.9,2.4,7.2,6.3,10.4,4.7-21.5,32.2-21,96.1-.8,83.9s24.8-38,24.8-38c-4.8-31.5-3.3-67,.5-73.8,4.6.2,18,9.5,18.7,9.3-1.2,37.1,16.2,61.8,16.2,61.8l11.5-17.8c-16.7-28.1-15.5-55.6-15.5-55.6s4.8,2.7,4.8,2.7l-2.9,3.5a96.9,96.9,0,0,0,18.7,42l9.5-14S1097.6,609.7,1095.1,613.6Z"/><path class="cls-41" d="M873.6,845.4v11l-.2.2-.6.5-.5.4c-5,3.9-26,16.7-91.7,20.3-77.8,4.1-129.7-20.9-129.7-20.9l3.9-10.7s-3.6-3.1-3.9-4.7,2.9-5.3,2.9-5.3-7.8-4.1-7.8-9.4,12.7-18.3,14.8-31.1a14.2,14.2,0,0,0,.3-4.1c-.5-13.8-12.4-26-14.1-33.8h0c-1.6-7.8,20.4-27.2,20.4-27.2-18.8-59.5-22.5-139.4-22.5-139.4l-3.6-4.1s-22.5,51.1-42.8,76.2-50.2,46.5-55.4,45.4c-12,0-25.4-20.9-37.6-46.6S492.6,562.2,492,557.6s-7.5-13.7-7.9-17.6c13.1,22.4,33.9,15.8,33.9,15.8-15.1.4-22.9-27.8-22.9-27.8v-.4l-7.4-19.4c.9.9,18.1,20.2,34.7,8.3s25.9-35.8,25.9-35.8V511s1,4.7,2.6,4.7c-1,13.9-4,30.9-7.6,47.6-7.7,36.2-18.3,71.2-18.3,71.2s28.7-15.7,38.9-55.4a166.4,166.4,0,0,0,5.1-47.5,123.2,123.2,0,0,0-2.3-19.8c0-.2-.1-.4-.1-.6s-.1-.2-.1-.3h0l2.8,5.9,5.2,13.1c6.2,50.9-6.5,127.6-6.5,127.6,18.5-22.9,22.3-73.7,21.5-86.1-.4-5.9-.8-13.2-1.1-19.1l-.7-11.4,37.8,22.5-7-22.1,27.5,22.1s24.7,29.8,50.1,33.2,118.7,1.4,118.7,1.4-81.1,5.2-104.8,12.2-28.2,15-28.2,15c17.1,87,111.9,116.4,114.8,117.2-85.9-12.9-125.9-85.9-125.9-85.9s-1.4,41.1,5.2,56.7,45.6,54,95.7,62c4.3.6,8.4,1,12.5,1.2,42.3,2,77.3-19.6,80.9-21.9l.3-.2a.3.3,0,0,0-.1.2c-1.4,2-18.7,26.4-88.7,29.1-4.2.1-8.4.1-12.4-.1h0C699,780.7,666,737.5,666,737.5s-24,12.9-8.7,32l.5.6c4.5,5.2,14.4,11.6,26.2,18.1l1,.6c14.2,7.8,30.9,16,43.8,22.6a.1.1,0,0,0,.1.1c7.9,4.1,14.4,7.7,18,10.3h0c3.7,2.7,4.4,4.4.9,4.8-18.1,2.1-86.7-12.9-89.5-8.7s3.4,15,3.4,15c63,31.1,197.6,15.8,201.9,15.3-112.7,28.9-204.9-7.7-204.9-7.7l3,10.8s50.2,17.4,109.4,18.8,96.1-13.7,96.1-13.7Z"/><path class="cls-42" d="M827.5,597.6s44.8,2.4,74.4,10.2L886.6,631S863.7,610.8,827.5,597.6Z"/><path class="cls-43" d="M869.4,721.1s-28,23.4-55.5,34.1a186.9,186.9,0,0,1-54,11.9s15.9,4.7,54.8-1.6,52.2-27.3,52.2-27.3Z"/><path class="cls-44" d="M881.9,811h0c-51.7,13.4-117.4-5.8-116.9-8.2s18,1.1,58.5-7,53.4-21.8,54.2-22.7c-.3,2.4-5.7,7.6-7.2,13.3C869.4,790.2,876.8,802.1,881.9,811Z"/><path class="cls-45" d="M741.3,604.6c-44.1,4.5-56.1,16.8-56.1,16.8-12.4,1.6-40.3-30.3-40.3-30.3l-3.6-4.1s-22.5,51.1-42.8,76.2c-2.5,3-5,5.9-7.7,8.7l2.9-6.5s4.8-2.2,6.1-27.1-10.4-61.9-10.5-67-1.8-30.5-1.8-30.5l37.8,22.5-7-22.1,27.5,22.1s10.8,16.2,38,29.7C709.4,605.8,738.2,604.7,741.3,604.6Z"/><path class="cls-46" d="M641.3,587l26.3-3.5s10.5,7,31.7,15.6l-17.7,26s7,37,27.1,57.9c0,0-53.3-29.6-60.7-54.5Z"/><path class="cls-47" d="M487.5,508.2l7.6,19.8s7.6,26.7,22.9,27.8S548.1,511,548.1,511V480.7s-16.2,34.7-33.7,38.7S487.5,508.2,487.5,508.2Z"/><path class="cls-48" d="M578.6,492.5s13.6,27.1,30.3,35.5c0,0-19.9-48.2-15.7-76.6C593.2,451.4,585.9,455.9,578.6,492.5Z"/><path class="cls-49" d="M908.6,532.7l4.7,15.1L918,671.9s-12-23.6-20.5-57.3l4.4-6.8S909.3,561.1,908.6,532.7Z"/><path class="cls-50" d="M1052.8,569.2s-2.6,61,23.3,66.3l1.3,6.5S1043.8,640.7,1052.8,569.2Z"/><path class="cls-51" d="M1009.6,587.8s-1,2.1-10.4-4.7c0,0-32.6,23.1-45.2,55.6,0,0,20.1-29.9,30.8-33.1s13.3,8.7,13.3,8.7S1002.3,597.5,1009.6,587.8Z"/><path class="cls-52" d="M484.1,540s12.5,23.1,36,15.8c0,0-14,9.5-28.1,1.8C492,557.6,483.2,542.6,484.1,540Z"/><path class="cls-53" d="M566.2,510.7s17.3,64.5-27.7,112.9c0,0,29.2-15,35.8-49.7S566.2,510.7,566.2,510.7Z"/><path class="cls-54" d="M875.2,459.2s-1.9,29.1-15.9,50-41.6,35-41.6,35,34.7-12.8,50.7-30.8S875.2,459.2,875.2,459.2Z"/><path class="cls-55" d="M697.6,415.4a182.4,182.4,0,0,0,7.9,49.1c7.8,24.8,75.8,68.2,75.8,68.2s-70.1-29.1-83.7-55.3S697.6,415.4,697.6,415.4Z"/><path class="cls-56" d="M696.9,531.3v39.6s91.2-.7,193.5,6.1l2.3-35.7S803.8,530.7,696.9,531.3Z"/><path class="cls-57" d="M713.8,540.3c0-.6.3-1,.9-1l18.5.6a15.3,15.3,0,0,1,4.7.8,6.8,6.8,0,0,1,3,2.1,8.5,8.5,0,0,1,1.7,3.1,17.3,17.3,0,0,1,.4,4.1l-.2,5.1a12.5,12.5,0,0,1-.6,4,6.7,6.7,0,0,1-1.9,3,7.4,7.4,0,0,1-3.1,1.9,13.6,13.6,0,0,1-4.7.5l-10-.3-2-5.8h-.3l-.2,5.8-7-.2Zm6.4,17.5,11.8.3a3.5,3.5,0,0,0,2.9-.8c.6-.5.9-1.6.9-3.1l.2-4.1c0-1.5-.2-2.6-.8-3.1a4,4,0,0,0-2.8-1l-11.3-.3h-.4a.6.6,0,0,0-.1.4Z"/><path class="cls-57" d="M753,550.9h-.2l-.3,7.4a.5.5,0,0,0,.5.5l20.8.6-.2,6.4-27.3-.8a1,1,0,0,1-.9-1.1l.7-22.6c0-.7.3-1,1-1l26.4.8a.9.9,0,0,1,1,1.1l-.2,6.4-6.5,2.2h-.3v-3.3c0-.3-.1-.4-.3-.4l-14-.4H753a.4.4,0,0,0-.1.3v3.1l11.5.4-.2,5-9.6-.3Z"/><path class="cls-57" d="M799.2,550.4h-.3v-2.7a.4.4,0,0,0-.4-.4l-13-.4a1.3,1.3,0,0,0-1,.3,1.2,1.2,0,0,0-.3.9v.6c0,.4,0,.8.2.9l.9.3,15.2,2.6a12.6,12.6,0,0,1,2.5.7,4,4,0,0,1,1.6,1.2,4.6,4.6,0,0,1,.9,1.7,16.6,16.6,0,0,1,.2,2.4v2a11,11,0,0,1-.4,2.7,4.3,4.3,0,0,1-1.3,1.9,4.9,4.9,0,0,1-2.3,1.1,9,9,0,0,1-3.4.3l-21.9-.6v-6.4l19.7.6a1.7,1.7,0,0,0,1.2-.3,1.6,1.6,0,0,0,.3-1.1V558c0-.4,0-.7-.2-.9s-.4-.3-.8-.4L782,554.4a8.9,8.9,0,0,1-2.6-.7,5,5,0,0,1-1.7-1.1,4.6,4.6,0,0,1-.9-1.7,5.5,5.5,0,0,1-.2-2.3v-1.8a6.1,6.1,0,0,1,1.6-4.1c1-.9,2.5-1.4,4.8-1.3l21.9.7c.7,0,1,.4,1,1.1l-.2,5.1Z"/><path class="cls-57" d="M808.4,566.9l.8-24.7,7,.2-.8,24.7Z"/><path class="cls-57" d="M841.3,557.3v-1.2c0-.4-.1-.7-.1-1v-.3l6.9.2-.4,12.1c0,.6-.3.9-.8.9l-18.6-.5a14.4,14.4,0,0,1-4.6-.9,8.7,8.7,0,0,1-3.1-2,7.4,7.4,0,0,1-1.6-3.2,12.6,12.6,0,0,1-.4-4v-5.1a15.9,15.9,0,0,1,.7-4,8.7,8.7,0,0,1,1.8-3.1,7.7,7.7,0,0,1,3.2-1.8,13.1,13.1,0,0,1,4.7-.6l18.4.6c.7,0,1,.3,1,1l-.2,5.3-6.5,2.2h-.3v-2.4a.3.3,0,0,0-.3-.3l-11.8-.4a4.2,4.2,0,0,0-1.7.2,2.3,2.3,0,0,0-1.2.6,3.5,3.5,0,0,0-.7,1.2,9,9,0,0,0-.2,1.8l-.2,4.4a4.8,4.8,0,0,0,.8,3.1,4,4,0,0,0,2.8,1l11.7.3a.4.4,0,0,0,.4-.4Z"/><path class="cls-57" d="M862.8,543.8c.6.1.9.1,1.1.3a2.8,2.8,0,0,1,.6.8l8.8,18c.2.2.4.4.6.4h.4c.4,0,.6-.2.6-.5l.5-18.6,6.4.2-.8,23.7a.8.8,0,0,1-.9.9l-10.1-.3-1-.2a1.7,1.7,0,0,1-.6-.8l-9.2-18a.7.7,0,0,0-.6-.4h-.4a.5.5,0,0,0-.5.5l-.6,18.5-6.3-.2.7-23.6a.9.9,0,0,1,1-1Z"/><path class="cls-58" d="M841.2,420.7c-2.1,25.6-9.9,43.5-18.3,55.5-11.4,16.5-23.8,22.2-23.8,22.2a138.9,138.9,0,0,1-32.4-19.6c-39.3-31.4-52-74.9-53-78.5,16.6,40.1,41,64.3,59.4,78,14.9,11.1,26,15.2,26,15.2V480.7c-3-1.1-5.8-2.4-8.6-3.7-32.5-16.4-49.6-50.6-57.6-72.7h0a163,163,0,0,1-6-20.4h5.9l-1.9,4.1v.2c.9,4.2,2,8.2,3.2,12a.4.4,0,0,0,.1.3c18.2,57.4,65,75.9,65,75.9,32.5-24,31.9-62.1,31.9-62.1v-5.3l6,1.9Z"/><path class="cls-59" d="M1034.1,559.9s-8.8,28.9-.5,73.8c0,0,4.2-56.9,7.3-61.9s11.9-2.6,11.9-2.6S1039,561.6,1034.1,559.9Z"/><path class="cls-60" d="M948.3,716.9c-7.7-6.7-16.9-18-26.2-36.5-18.4-36.9-23.7-61.5-24.6-65.8l4.4-6.8,5.9-56.7,5.5-3.3a229.5,229.5,0,0,0,34.4-54.3,11,11,0,0,1,.8,2.4h0c3,11.8,9.1,56,14.9,71.7,3.6,9.9,9.2,15.3,13.4,18.1,0,0-33.9,50.3-35.6,86.2C939.7,704.6,947,715.3,948.3,716.9Z"/><path class="cls-61" d="M746.9,821.8s-61.1-10-86.1-26.1h0a14.2,14.2,0,0,0,.3-4.1c-.5-13.8-12.4-26-14.1-33.8.3.7,2.1,4.9,10.8,12.3,5.5,4.7,13.8,10.8,26.2,18.1l1,.6a473.6,473.6,0,0,0,43.8,22.6.1.1,0,0,0,.1.1c9.9,4.7,16.3,7.7,18,10.3Z"/><path class="cls-62" d="M877.7,773.1c-.3,2.4-5.7,7.6-7.2,13.3,0,0-22.5,23.8-105.5,16.4.6-2.3,18,1.1,58.5-7S876.9,774,877.7,773.1Z"/><path class="cls-63" d="M891.5,451.8l-53,17.2-15.6,7.2H799.1l-8.6.7-4.5.3-12.9,1-6.4.5-63.7-23-11.4-4.1-52.3-19,4.8-1.8c35.1-13.9,69.6-30.8,69.6-30.8l13.2-16.3h5.9a205.8,205.8,0,0,0,11-30.8l3.5-15.7a23.2,23.2,0,0,1,.4-2.3l18.7,9.8,63.2,50.6a86.7,86.7,0,0,0,.2,9.1l.9,6.4.3-2,6,1.9,4.2,9.9s7.1,10.9,35,23.2A149.8,149.8,0,0,1,891.5,451.8Z"/><path class="cls-64" d="M851.1,403.4s-24.7,5.5-52-7.7-50.3-52.2-51.7-61.9,10.5-35.2,10.5-55-9.8-54,6.6-72.4,91.5-21.3,115.9,2.4c0,0,7.5,19,7.5,29.7a75.3,75.3,0,0,1-1.1,10.8c-.2,1.6-.5,3.3-.8,5.1-2.2,13-5.2,28.8-3.8,35.8a38.6,38.6,0,0,0,2.2,6.8h0c3,6.9,7.5,12.5,8.2,18.5C893.7,323.3,883.2,379,851.1,403.4Z"/><path class="cls-65" d="M757.7,273.2s-6.8-17-23.8-17.2c0,0-9.9,3.9-11.5,11.5,0,0,3.7,27.4,7.9,40.2s19.5,10.9,19.5,10.9S763.1,298.2,757.7,273.2Z"/><path class="cls-66" d="M822.9,329s5.6-.5,8.1,1.4,11.3,10.4,22.5,12.8,18.7-7.3,21.1-7.7,5.1,2.8,5.1,2.8-1.1-3.9-6.9-5.6c0,0-2.4,9-18.7,5.9S831,328.3,831,328.3l-.9-1.5A36,36,0,0,0,822.9,329Z"/><path class="cls-67" d="M798.9,244.7l.2-1.8s16.2-28.4,48.3-29.2S886.8,233,886.8,233l5.9-9-13.5-27.6-94.4-1.5-22.9,18.5L759,258.8l10.2,59.9L794,331.9l7-6.2c-2.6-20-17.5-38.4-17.5-38.4l10.9-7.5s27.9,13.5,44.1,9.4c0,0,12.1-35.4,11.4-61.6C849.9,227.6,808.5,233.7,798.9,244.7Z"/><path class="cls-68" d="M797.4,246.8s1.6-10.3,18.9-14.4c19.3-4.5,35-8.4,35-8.4s-3.5,11.2-9.9,15.5c0,0-20.4-.8-30.7,1.6S797.4,246.8,797.4,246.8Z"/><path class="cls-68" d="M886.8,233s-9.8,7.6-16.5,25.6c0,0,6.4-8.4,12.3-8.2,4,0,3.4,4,3.4,4S890,243.7,886.8,233Z"/><path class="cls-69" d="M803.9,275.8s1-21.7,22.2-27.1c0,0,7.5,9.7,8.3,20.8C834.4,269.5,823.2,267.5,803.9,275.8Z"/><path class="cls-70" d="M864.5,284.4s1.7-17.2,11.6-23.6c0,0,6.7,5.1,6,19.5C882.1,280.3,876.2,278.2,864.5,284.4Z"/><path class="cls-71" d="M803.9,275.8s6.9,8.4,26.1,10.1c0,0,3.7-5.6,3.3-16.5C833.3,269.4,815.6,267.7,803.9,275.8Z"/><path class="cls-71" d="M864.5,284.4v2.5s2.9,6.2,13.5,7.3a30.2,30.2,0,0,0,3.7-14S875,278.5,864.5,284.4Z"/><path class="cls-72" d="M824.4,269a24,24,0,0,0-4.4,15.2,78.6,78.6,0,0,0,10,1.7s4.2-5.9,3.3-16.5C833.3,269.4,827.7,268.2,824.4,269Z"/><path class="cls-72" d="M874.5,280.5s-2.7,2.9-3.3,12a20.5,20.5,0,0,0,6.8,1.7,24.9,24.9,0,0,0,3.7-14S879,279.2,874.5,280.5Z"/><path class="cls-68" d="M822.9,284.9s-1.8-11.7,4.9-16.2l5.5.7s1.8,9.3-3.3,16.5C830,285.9,824.5,285.3,822.9,284.9Z"/><path class="cls-68" d="M876.9,280a53.4,53.4,0,0,0-3.6,13.3,14.6,14.6,0,0,0,4.7.9s3.8-4.6,3.7-14A10.4,10.4,0,0,0,876.9,280Z"/><path class="cls-73" d="M803.9,275.8s12.8-7.4,34.6-3.2l-4.1-3.1A36.4,36.4,0,0,0,803.9,275.8Z"/><path class="cls-73" d="M864.5,284.4a34.5,34.5,0,0,1,22.2-2.5l-5-3.7S873.7,277,864.5,284.4Z"/><path class="cls-12" d="M817.7,275.8a7.4,7.4,0,0,1,6.6,2.4S820,279.5,817.7,275.8Z"/><path class="cls-12" d="M869.1,285.9s5.5-1.1,7.4,1.4C876.5,287.3,873.6,289.3,869.1,285.9Z"/><path class="cls-74" d="M805.2,277.1A49.7,49.7,0,0,0,831,289.2l.4-5.8-1.4,2.5S814.7,285,805.2,277.1Z"/><path class="cls-74" d="M864.5,286.9s1.7,6.4,14.7,9.3l-.4-3.1-.8,1.1S868.8,293,864.5,286.9Z"/><path class="cls-75" d="M838.5,312.3s4.8-1,13.7,0,18.8,3.5,24.3,0c0,0-7.3,7.3-13.5,8.4s-15.9-4.4-15.9-4.4H843S839.7,314.8,838.5,312.3Z"/><path class="cls-76" d="M843.6,316.4a6.7,6.7,0,0,1,4-1.1c1.8.4,3.7,3,3.7,3A18.6,18.6,0,0,0,843.6,316.4Z"/><path class="cls-77" d="M876.5,312.3c2.3-2.2-9.7-23.6-15.4-24.4s-11.2,24-11.2,24l15.8,2.1C873.4,315.1,876.5,312.3,876.5,312.3Z"/><path class="cls-78" d="M885.1,245c-3.3-.4-14.8,13.6-14.8,13.6s-7.3,22.6-5.8,29.3,19.1,10.3,19.1,10.3l.8-1.2h0a38.6,38.6,0,0,1-2.2-6.8c-1.4-7,1.6-22.8,3.8-35.8a28.7,28.7,0,0,0,.8-5.1C886.9,247.2,886.6,245.2,885.1,245Z"/><path class="cls-79" d="M884.5,336.9c-3.6-7.7-1.4-11.7-33.2-15.8-45-6-48.9,7.8-56.6,5.7l-.9-.3c-8.3-3.3-27.8-22.5-28.3-48.3s17.5-46,17.5-46c-6.5-5.5-9.1-21.4-2.1-28.2s19.1-5.2,48.6-2.1,29.5,1.3,29.5,1.3c9.3,2.4,14.7,11.2,16.2,14l.5.9,3.6-3.4a47.4,47.4,0,0,1,8.1,30s16.2-32.9,14.4-37.5c-3.4-8.6-12.7-21.2-13.3-22h0s-2.7-25-10.5-25-41.2,7.5-41.2,7.5c3.6-8.6,3.1-18.5,3.1-18.5h-.1c-10.9,9.8-21.6,10.9-36.7,17.9-7.6,3.6-11.2,6.8-14.1,10.2l-1.1,1.3-1,1.3-3.4,4-.2.2h-.1a45.7,45.7,0,0,1-4.4,4.1c-9.9,8-31.7,13.4-34.3,22s3.3,20.1,6.4,32.2a66,66,0,0,1,1.7,22.6,44.3,44.3,0,0,1,6.9,33c-3,17.5-9.7,20.4-9.7,20.4a30.2,30.2,0,0,0-2.5,18.7c9.6,38.3,49.5,61.2,49.5,61.2,35.5,13.2,58.9,7.5,58.9,7.5h0c25.8-16.8,34.7-72.5,35-75.1C890.3,331.5,885.5,338.9,884.5,336.9Zm-15.9,35.5c-6.2-1.1-7.6-16.9-9.6-19s-13.4-1.2-13.4-1.2S835.1,364,831,364.4s-26.5-8.7-21.7-22.3S831,326.8,831,326.8a41,41,0,0,0,21.7,8.2c13.1.8,17.8-1.6,19.3-2.3s10,3.1,9.8,15C881.6,355.9,874.9,373.4,868.6,372.4Z"/><path class="cls-80" d="M867,292.7s11.2,13.9,10.2,19.2-14.2,8.8-14.2,8.8,10.4-3.6,12.6-8.8A68.8,68.8,0,0,0,867,292.7Z"/><path class="cls-81" d="M887.4,244.7a47.4,47.4,0,0,0-8.1-30,80.2,80.2,0,0,0,9.2-29.5h0c2.7,6.7,4.2,19.6,4.2,19.6l9.1,2.4C903.6,211.8,887.4,244.7,887.4,244.7Z"/><path class="cls-82" d="M875.2,217.2c-1.5-2.8-6.9-11.6-16.2-14,0,0,0,1.9-29.5-1.3s-41.5-4.7-48.6,2.1-4.4,22.7,2.1,28.2c0,0-18,19.1-17.5,46s20,45,28.3,48.3l-.3,2.8s1.4,59.3,15.8,64,44.3,2.2,47.1,5-.4,7.2-.7,7.6h0s-23.4,5.7-58.9-7.5c0,0-39.9-22.9-49.5-61.2a30.2,30.2,0,0,1,2.5-18.7s6.7-2.9,9.7-20.4a44.3,44.3,0,0,0-6.9-33,66,66,0,0,0-1.7-22.6c-3.1-12.1-9.1-23.7-6.4-32.2,16.7,2.6,27.6-6.1,27.6-6.1s2.9-4.1,15.9-6.2,64.8,3.2,64.8,3.2-5.2-4.3-16.1-7.2-45.8.4-49.6.7c4.1-.7,44.2-7.6,48.8-6.2s22.2,9.4,22.2,9.4c-1.6-8-17.1-27.1-17.1-27.1s-22,.3-36.3,3.4-19.9,8.5-21.2,9.7l3.4-4,1-1.3,1.1-1.3,5-.8,25.2-10.2c8.4-4.5,19.2-15.7,20.6-17.1h.1s.5,9.9-3.1,18.5c21.2-2.6,28.4-1.3,28.4-1.3C874.9,180.1,875.2,217.2,875.2,217.2Z"/><path class="cls-83" d="M796.8,398.5s13.1-3.1,32.8-2.3,31,.9,26.1,9.8C855.7,406,831,411.5,796.8,398.5Z"/><path class="cls-84" d="M865.2,166.4s12-4.6,16.7-3.9c0,0-1.9-2.5-3.8-3s-41.3,8.2-41.3,8.2S861.3,164.9,865.2,166.4Z"/><path class="cls-85" d="M841,170.9s-1,13-5.1,17.7l-48.8,6.2-14.3-2.5s5.5-2.3,11.6-9.4S822.3,168.8,841,170.9Z"/><path class="cls-86" d="M888.5,185.2s3.9,12.8,4.2,19.6l9.1,2.4S899,197.5,888.5,185.2Z"/><path class="cls-87" d="M755.6,296.2s-3.4-16.5-11.8-24.6a19.5,19.5,0,0,0-18-5.5s2.6,30.5,5.4,37.9,6.9,9.4,6.9,9.4-5.9-5.2-6.6-15.2-1.1-24.4,1.1-26.1,11.2,5,11.2,5-2.8,3.4-4.5,12.4,4.6,15.5,6.9,15.4-.1-10.4.3-13.3S752.1,289.2,755.6,296.2Z"/><path class="cls-88" d="M747.3,275.7a20.6,20.6,0,0,0-8.2,18.4c1,12.4,8,11.8,8.1,9.2s-1.4-9.2-.7-13,6.8-2.1,6.8-2.1S749.3,278.4,747.3,275.7Z"/><path class="cls-89" d="M890.7,330.8s-11.4,52-35,75.2C855.7,406,882.7,395.3,890.7,330.8Z"/><path class="cls-89" d="M878.1,159.5s6,4.7,7.1,20.9-5.9,34.3-5.9,34.3,9.1-13.5,9.9-28.3S882.9,161.4,878.1,159.5Z"/><path class="cls-90" d="M805.3,193.5a136.8,136.8,0,0,0,29.1,6.1l18.4,1.7s-6.1-6-19.2-7.8S805.3,193.5,805.3,193.5Z"/><path class="cls-91" d="M872.5,331.9s6.6,0,9.3,8.4a63.8,63.8,0,0,1,2.6,12.4l2.4-9.2s-3.1-11.6-6.3-14.2-6.2-3.8-8.1-3.3Z"/><path class="cls-92" d="M854.5,323.6l1.2,9.9s8.1.6,13.4-1.6l1-6S859.8,323.3,854.5,323.6Z"/><path class="cls-89" d="M891.5,451.8s47.5,34.7,53.7,46.6,8.6,49.3,17,65.5c0,0-5.7-26.5-9.7-47.2s-3.1-21.1-5.3-26.2S909.5,460.8,891.5,451.8Z"/><path class="cls-89" d="M883,644.8s-22.8,97.9-21.8,104.5,15.9,20.1,16.5,23.8c0,0-11.3,15.2-10.8,18.6s19.9,24.6,19.4,31.1c-.2,1.9-12.7,22.6-12.7,22.6s14.1-20.3,14.8-23.6-17.3-30.3-17.8-33.1c-1.4-7.1,9-12.4,9.3-17.1s-14-16.2-14.1-23.8S883,644.8,883,644.8Z"/><path class="cls-89" d="M887.7,878.2s49.4,112,66.3,224C954,1102.2,951.2,992.9,887.7,878.2Z"/><path class="cls-77" d="M574.1,429.3s-12.8-2.7-18.1-13.9-1.9-27.3-1.9-27.3,10.1,19.2,15.1,25.8S575.5,427.9,574.1,429.3Z"/><path class="cls-93" d="M969,370.9l8.8,253a18.6,18.6,0,0,0,18.7,17.9h435.7a18.5,18.5,0,0,0,18.6-18.2l6.1-255.8a18.5,18.5,0,0,0-18.7-19.1l-450.7,2.9A18.6,18.6,0,0,0,969,370.9Z"/><path class="cls-94" d="M1432.2,642.5H996.5a19.2,19.2,0,0,1-19.3-18.6l-8.9-253a19.2,19.2,0,0,1,5.3-14,19.7,19.7,0,0,1,13.9-6l450.7-2.9a19.3,19.3,0,0,1,13.9,5.8,19.1,19.1,0,0,1,5.5,14l-6.1,255.9A19.1,19.1,0,0,1,1432.2,642.5Zm6.1-293.1h-.1l-450.7,2.9a17.8,17.8,0,0,0-17.8,18.6l8.8,252.9a18.1,18.1,0,0,0,18,17.4h435.7a18,18,0,0,0,17.9-17.6l6.1-255.9a17.8,17.8,0,0,0-17.9-18.3Z"/><path class="cls-95" d="M969.6,383.8h486.8l.8-13.3a20.6,20.6,0,0,0-20.6-21.7l-450.5,3.6a16.8,16.8,0,0,0-16.7,17.2Z"/><polygon class="cls-96" points="994.1 404.2 994.1 550.6 1143.1 550.6 1143.1 403.4 994.1 404.2"/><rect class="cls-97" x="1287.1" y="414" width="64.8" height="64.81"/><rect class="cls-98" x="1363.6" y="414" width="64.8" height="64.81"/><rect class="cls-99" x="1209.3" y="414" width="64.8" height="64.81"/><rect class="cls-100" x="1262.6" y="516.6" width="165.7" height="15.53"/><rect class="cls-100" x="1221.2" y="540.3" width="207.2" height="4.81"/><rect class="cls-100" x="1223.1" y="487.1" width="39.6" height="4.81"/><rect class="cls-100" x="1299.7" y="487.1" width="39.6" height="4.81"/><rect class="cls-100" x="1376.2" y="487.1" width="39.6" height="4.81"/><rect class="cls-100" x="1209.3" y="548.1" width="66.7" height="4.81"/><rect class="cls-100" x="1221.2" y="555.8" width="207.2" height="4.81"/><rect class="cls-100" x="1209.3" y="563.5" width="219" height="4.81"/><rect class="cls-100" x="1209.3" y="571.2" width="219" height="4.81"/><rect class="cls-100" x="1221.2" y="602.4" width="207.2" height="4.81"/><rect class="cls-100" x="1209.3" y="610.1" width="219" height="4.81"/><rect class="cls-100" x="1209.3" y="617.9" width="219" height="4.81"/><rect class="cls-100" x="1209.3" y="578.9" width="210.2" height="4.81"/><rect class="cls-100" x="1221.2" y="586.7" width="207.2" height="4.81"/><rect class="cls-100" x="1209.3" y="594.4" width="177.5" height="4.81"/><g class="cls-101"><path class="cls-102" d="M1035.8,521.2a42.4,42.4,0,1,1,42.4-42.4A42.4,42.4,0,0,1,1035.8,521.2Zm0-82a39.7,39.7,0,1,0,39.7,39.6A39.7,39.7,0,0,0,1035.8,439.2Z"/></g><circle class="cls-12" cx="1035.8" cy="478.8" r="23"/><g class="cls-101"><path class="cls-102" d="M1143.1,445.8a42.4,42.4,0,1,1,42.4-42.4A42.4,42.4,0,0,1,1143.1,445.8Zm0-82a39.7,39.7,0,1,0,39.6,39.6A39.6,39.6,0,0,0,1143.1,363.8Z"/></g><circle class="cls-12" cx="1143.1" cy="403.4" r="21.7" transform="translate(566.9 1469.9) rotate(-81.1)"/><g class="cls-101"><polygon class="cls-12" points="986.7 363.9 989.8 359.2 1006.5 373.9 1004 377.5 986.7 363.9"/><polygon class="cls-12" points="1007 363.9 1003.9 359.2 987.1 373.9 989.7 377.5 1007 363.9"/></g><rect class="cls-12" x="1294.6" y="362.4" width="150" height="7.52"/><polygon class="cls-103" points="505.2 253.8 505.2 318.9 583.1 319.6 584.1 251.8 505.2 253.8"/><polygon class="cls-104" points="584.1 251.8 589.2 260.3 586.7 319.5 583.1 319.6 584.1 251.8"/><polygon class="cls-12" points="519.1 275.8 526.3 265.4 565.2 298 559.2 306 519.1 275.8"/><polygon class="cls-12" points="566.2 275.8 559 265.4 520.1 298 526.1 306 566.2 275.8"/><path class="cls-105" d="M686.8,1020H420.4a21.9,21.9,0,0,1-21.8-21.3l-5-218.5a21.9,21.9,0,0,1,21.9-22.4H692.8a21.8,21.8,0,0,1,21.8,22.5l-5.9,218.5A21.9,21.9,0,0,1,686.8,1020Z"/><path class="cls-106" d="M686.8,1020.7H420.4a22.7,22.7,0,0,1-22.5-22l-5-218.5a22.6,22.6,0,0,1,6.5-16.3,22.3,22.3,0,0,1,16.1-6.7H692.8a22.4,22.4,0,0,1,22.5,23.1l-6,218.5A22.3,22.3,0,0,1,686.8,1020.7ZM415.5,758.5a21.2,21.2,0,0,0-21.2,21.6l5,218.6a21.2,21.2,0,0,0,21.1,20.6H686.8A21,21,0,0,0,708,998.8l6-218.6a21.4,21.4,0,0,0-6-15.3,21.1,21.1,0,0,0-15.2-6.4Z"/><rect class="cls-12" x="465.5" y="802.5" width="140.1" height="6"/><rect class="cls-12" x="465.5" y="817.1" width="70.1" height="6"/><rect class="cls-12" x="465.5" y="829.3" width="70.1" height="6"/><rect class="cls-12" x="543.4" y="829.3" width="55.7" height="6"/><rect class="cls-12" x="465.5" y="841.5" width="112.9" height="6"/><rect class="cls-12" x="465.5" y="853.7" width="40.2" height="6"/><rect class="cls-12" x="513.9" y="890.2" width="69.5" height="6"/><rect class="cls-12" x="465.5" y="865.9" width="126" height="6"/><rect class="cls-12" x="465.5" y="878" width="96.9" height="6"/><rect class="cls-12" x="465.5" y="890.2" width="45.6" height="6"/><rect class="cls-12" x="465.5" y="902.4" width="70.1" height="6"/><rect class="cls-12" x="465.5" y="914.6" width="20.1" height="6"/><rect class="cls-12" x="493.8" y="914.6" width="72.9" height="6"/><rect class="cls-12" x="513.9" y="926.4" width="69.5" height="6"/><rect class="cls-12" x="465.5" y="926.4" width="45.6" height="6"/><rect class="cls-12" x="465.5" y="938.6" width="70.1" height="6"/><rect class="cls-12" x="465.5" y="950.8" width="20.1" height="6"/><rect class="cls-12" x="493.8" y="950.8" width="72.9" height="6"/><path class="cls-107" d="M1401.7,299.9a12.3,12.3,0,1,1-12.3-12.3A12.3,12.3,0,0,1,1401.7,299.9Z"/><path class="cls-108" d="M247.5,585.5a15.4,15.4,0,1,1-15.3-15.4A15.4,15.4,0,0,1,247.5,585.5Z"/><circle class="cls-109" cx="1425.6" cy="299.9" r="12.3"/><circle class="cls-110" cx="631.6" cy="384.6" r="8.7"/><circle class="cls-111" cx="1214.8" cy="768.8" r="8.7"/><circle class="cls-112" cx="309.5" cy="855.6" r="7.8"/><path class="cls-113" d="M442.2,779.2H307.8a20.1,20.1,0,0,1-20.1-19.4l-3-88.5a20,20,0,0,1,20.1-20.7H444.9A20.1,20.1,0,0,1,465,671.3l-2.7,88.4A20.1,20.1,0,0,1,442.2,779.2Z"/><path class="cls-114" d="M442.2,779.8H307.8a20.7,20.7,0,0,1-20.8-20l-3-88.4a20.6,20.6,0,0,1,5.9-15.2,20.3,20.3,0,0,1,14.9-6.3H444.9a20.8,20.8,0,0,1,20.8,21.4L463,759.7A20.7,20.7,0,0,1,442.2,779.8ZM304.8,651.3a19.3,19.3,0,0,0-19.4,20l3,88.4a19.4,19.4,0,0,0,19.4,18.8H442.2a19.3,19.3,0,0,0,19.4-18.8l2.7-88.5a19.5,19.5,0,0,0-19.4-19.9Z"/><polygon class="cls-12" points="343.6 682.4 310.5 720.8 344.2 749.4 344.2 734.6 324.7 717.7 342.8 697.2 343.6 682.4"/><polygon class="cls-12" points="401.9 684.1 435 722.5 401.3 751.2 401.3 736.4 420.8 719.5 399.1 696.5 401.9 684.1"/><polygon class="cls-12" points="350.8 749.4 379.7 685.8 393.3 685.8 360.6 749.4 350.8 749.4"/><path class="cls-115" d="M1346.9,961.2H1178.7a25.2,25.2,0,0,1-25.1-24.3l-3.7-110.6a25.1,25.1,0,0,1,25.1-26h175.3a25.1,25.1,0,0,1,25.1,25.9L1372,936.8A25.1,25.1,0,0,1,1346.9,961.2Z"/><path class="cls-114" d="M1346.9,961.8H1178.7a25.7,25.7,0,0,1-25.8-24.9l-3.7-110.6a25.8,25.8,0,0,1,25.8-26.7h175.3a26,26,0,0,1,25.8,26.6l-3.4,110.6A25.6,25.6,0,0,1,1346.9,961.8ZM1175,801a24.3,24.3,0,0,0-24.4,25.2l3.7,110.7a24.3,24.3,0,0,0,24.4,23.6h168.2a24.3,24.3,0,0,0,24.4-23.7l3.4-110.6a24.4,24.4,0,0,0-24.4-25.2Z"/><rect class="cls-100" x="1183.6" y="818.1" width="154.1" height="91.5"/><polygon class="cls-12" points="1247 840.8 1247 886.9 1286.3 861.8 1247 840.8"/><rect class="cls-100" x="1183.6" y="926.5" width="154.1" height="8.37"/><rect class="cls-12" x="1183.6" y="926.5" width="39.9" height="8.37"/><path class="cls-116" d="M1070.7,789.2l-8,23C1067.1,799.5,1073.5,791.2,1070.7,789.2Zm-8,23-8.1,23C1056.7,834.6,1058.2,824.9,1062.7,812.2Zm8-23-8,23C1067.1,799.5,1073.5,791.2,1070.7,789.2Zm-8,23-8.1,23C1056.7,834.6,1058.2,824.9,1062.7,812.2Zm23.2,19.9,7.8,4.5,8.4-23.1-9-1.5a21.7,21.7,0,0,0,.4-2.5,57.1,57.1,0,0,0,.8-11.5l9.4-5.9-4.3-20.3-9,8.7a28,28,0,0,0-4.6-6.8l-1.6-1.5,5.5-12.8-14.7-4.8h0l-3.6,12.9a24.2,24.2,0,0,0-9.9,2.3l-1.7-12.2-16.2,12.3,3.8,10.8a59.9,59.9,0,0,0-7.9,11.5l-7.9-4.4-8.4,23.1,9,1.5a68,68,0,0,0-1.2,14l-9.4,5.9,4.3,20.3,9.1-8.7a26.2,26.2,0,0,0,6.2,8.3l-5.6,12.8,14.5,5.6,2.3-8.1,1.5-5.6a24.3,24.3,0,0,0,10-2.3l1.6,12.1,16.2-12.2-3.7-10.8a67.5,67.5,0,0,0,6.4-8.9Q1085.2,833.6,1085.9,832.1Zm-23.2-19.9c-4.5,12.7,0,25.8-8.1,23s-11-15.4-6.5-28.1,14.6-20.7,22.6-17.9S1067.1,799.5,1062.7,812.2Zm8-23-8,23C1067.1,799.5,1073.5,791.2,1070.7,789.2Zm-8,23-8.1,23C1056.7,834.6,1058.2,824.9,1062.7,812.2Z"/><path class="cls-117" d="M1093.7,836.6l8.4-23.1-8.6-4-1.4-.7.9-12.6,9.6-4.7-3.2-19.7-20.8-6.8,3.9,9.2,7.2-14.8-14.7-4.8-6.1-2-14.5-5.6-2.7,9.9-12.6-6-16.3,12.3,5,13.2-15.2,42.1-7.5,27.3,14.4,1.6-4.7,10.8,14.5,5.7,20.8,6.7-3.3-6.6-2.1-4,7.7,2.5,13.1,4.2,16.2-12.2-10-11.9,12.7-7.8Zm-45.6-29.5c4.4-12.7,14.6-20.7,22.6-17.9l-8,23-8.1,23C1046.5,832.4,1043.6,819.8,1048.1,807.1Z"/><path class="cls-118" d="M1072.9,829.8l8.4-23-9-1.6a61.7,61.7,0,0,0,1.2-14l9.5-5.9-4.4-20.3-9,8.7a26.2,26.2,0,0,0-6.2-8.3l5.5-12.8-14.5-5.6-3.7,13.7a24.3,24.3,0,0,0-10,2.3l-1.6-12.1-16.3,12.2,3.8,10.8a65.6,65.6,0,0,0-7.9,11.6l-7.9-4.4-8.4,23,9.1,1.5a61.9,61.9,0,0,0-1.3,14l-9.4,5.9,4.3,20.3,9.1-8.7a24.1,24.1,0,0,0,6.2,8.3l-5.6,12.8,14.5,5.7,3.8-13.8a24.3,24.3,0,0,0,10-2.3l1.6,12.2,16.2-12.3-3.7-10.8a61.3,61.3,0,0,0,7.9-11.5Zm-39.1-1.4c-8.1-2.8-11-15.4-6.5-28.1s14.6-20.7,22.6-17.9,11,15.4,6.6,28.1S1041.9,831.2,1033.8,828.4Z"/><polygon class="cls-119" points="1103.7 792.1 1083 785.3 1073.5 791.2 1094.3 798 1103.7 792.1"/><polygon class="cls-120" points="1081.7 854.5 1060.9 847.7 1057.2 836.9 1078 843.7 1081.7 854.5"/><polygon class="cls-119" points="1063.4 765.4 1074.8 768.7 1078.6 765 1086.2 767.5 1089.7 759.4 1068.9 752.6 1063.4 765.4"/><path class="cls-119" d="M1033.1,850.1l10.9,4.6-.9-6.9S1037.2,850.9,1033.1,850.1Z"/><path class="cls-119" d="M1034.8,787.8l18.3,9.7a29.5,29.5,0,0,1,4.7-5S1053,772.3,1034.8,787.8Z"/><polygon class="cls-121" points="613.9 101.8 631.6 137.3 619.7 142.6 603.2 110.1 613.9 101.8"/><polygon class="cls-122" points="215.9 926.7 232.2 944.6 238.6 937.2 223.2 920.2 215.9 926.7"/><polygon class="cls-123" points="1047.4 317.9 1030.9 327.9 1024.3 315.4 1042.3 304.8 1047.4 317.9"/><polygon class="cls-123" points="1128.5 950.9 1104.9 967.6 1098.3 955.1 1121.2 941.7 1128.5 950.9"/><polygon class="cls-124" points="1097.3 232.3 1093.3 139.5 1214.8 139.5 1209.8 232 1097.3 232.3"/><polygon class="cls-125" points="1093.3 139.5 1089.7 145 1093.3 232.3 1097.3 232.3 1093.3 139.5"/><polygon class="cls-12" points="1133.6 158.1 1114.6 156 1117.2 219.6 1133.6 217.9 1133.6 211.4 1124.1 211.6 1123 162.6 1133.6 162.9 1133.6 158.1"/><polygon class="cls-12" points="1172.7 158.1 1191.7 156 1189.1 219.6 1172.7 217.9 1172.7 211.4 1182.2 211.6 1183.3 162.6 1172.7 162.9 1172.7 158.1"/><polygon class="cls-126" points="260 435.3 262.7 372.1 179.9 372.1 183.3 435.1 260 435.3"/><polygon class="cls-127" points="262.7 372.1 265.2 375.8 262.7 435.3 260 435.3 262.7 372.1"/><path class="cls-12" d="M230.8,384.8s9.1-.3,10.7.4-.4,15.5-.4,15.5l3.6,3.3-3.4,3.3s.2,15-1.9,16.3-9.5,0-9.5,0v-3.8s6,.4,7-.4.9-13.9.9-13.9l1.6-1.8-1.6-1.9s.2-9.3.1-11.9-7.1-1.7-7.1-1.7Z"/><path class="cls-12" d="M210,384.8s-9.1-.3-10.7.4.5,15.5.5,15.5l-3.7,3.3,3.4,3.3s-.2,15,2,16.3,9.4,0,9.4,0v-3.8s-6,.4-6.9-.4-.9-13.9-.9-13.9l-1.6-1.8,1.6-1.9s-.3-9.3-.1-11.9,7-1.7,7-1.7Z"/><path class="cls-94" d="M958.5,240.6l-20.3-53.1,52.6,11Zm-18.1-51.2,18.5,48.4,29.5-38.4Z"/><rect class="cls-94" x="1097.2" y="980.1" width="30.1" height="1.37" transform="translate(-336.4 1298) rotate(-53.8)"/><polygon class="cls-94" points="936.6 769.2 917.5 745.4 918.6 744.5 937.7 768.3 936.6 769.2"/><polygon class="cls-94" points="346 936.5 307.8 908.8 308.6 907.7 346.9 935.4 346 936.5"/><rect class="cls-94" x="303.7" y="921.4" width="47.2" height="1.38" transform="translate(-604.5 623.7) rotate(-52.7)"/><rect class="cls-94" x="271.7" y="509" width="1.4" height="27.94" transform="translate(-317.3 520.8) rotate(-62.3)"/><polygon class="cls-94" points="1234.6 196.7 1233.5 195.7 1262.1 163.2 1263.1 164.1 1234.6 196.7"/><rect class="cls-94" x="684.5" y="274.3" width="1.4" height="28.67" transform="translate(-56.8 335.4) rotate(-26.4)"/><rect class="cls-94" x="471.5" y="721.2" width="42.8" height="1.38" transform="translate(-348.3 484.5) rotate(-39.9)"/></g></g></g></svg>