<svg id="Design" xmlns="http://www.w3.org/2000/svg" xmlns:xlink="http://www.w3.org/1999/xlink" viewBox="0 0 2015 2000"><defs><style>.cls-1{fill:url(#Degradado_sin_nombre_3);}.cls-2{fill:url(#Degradado_sin_nombre_3-2);}.cls-3{fill:url(#Degradado_sin_nombre_3-3);}.cls-4{clip-path:url(#clip-path);}.cls-5{fill:url(#Degradado_sin_nombre_3-5);}.cls-6{fill:url(#Degradado_sin_nombre_3-6);}.cls-7{fill:url(#Degradado_sin_nombre_3-7);}.cls-8{fill:url(#Degradado_sin_nombre_3-8);}.cls-9{fill:url(#Degradado_sin_nombre_3-9);}.cls-10{fill:url(#Degradado_sin_nombre_3-10);}.cls-11{fill:url(#Degradado_sin_nombre_3-11);}.cls-12{fill:url(#Degradado_sin_nombre_3-12);}.cls-13{fill:url(#Degradado_sin_nombre_3-13);}.cls-14{fill:url(#Degradado_sin_nombre_3-14);}.cls-15{fill:url(#Degradado_sin_nombre_3-15);}.cls-16{fill:url(#Degradado_sin_nombre_3-16);}.cls-17{fill:url(#Degradado_sin_nombre_3-17);}.cls-18{fill:url(#Degradado_sin_nombre_3-18);}.cls-19{fill:url(#Degradado_sin_nombre_3-19);}.cls-20{fill:url(#Degradado_sin_nombre_3-20);}.cls-21{fill:url(#Degradado_sin_nombre_3-21);}.cls-22{fill:url(#Degradado_sin_nombre_3-22);}.cls-23{fill:url(#Degradado_sin_nombre_3-23);}.cls-24{fill:url(#Degradado_sin_nombre_3-24);}.cls-25{fill:url(#Degradado_sin_nombre_3-25);}.cls-26{fill:url(#Degradado_sin_nombre_3-26);}.cls-27{fill:url(#Degradado_sin_nombre_3-27);}.cls-28{fill:url(#Degradado_sin_nombre_3-28);}.cls-29{fill:url(#Degradado_sin_nombre_3-29);}.cls-30{fill:url(#Degradado_sin_nombre_3-30);}.cls-31{fill:url(#Degradado_sin_nombre_3-31);}.cls-32{fill:url(#Degradado_sin_nombre_3-32);}.cls-33{fill:url(#Degradado_sin_nombre_3-33);}.cls-34{fill:#4d4d4d;}.cls-35{fill:url(#Degradado_sin_nombre_41);}.cls-36{fill:url(#Degradado_sin_nombre_41-2);}.cls-37{fill:url(#Degradado_sin_nombre_41-3);}</style><linearGradient id="Degradado_sin_nombre_3" x1="1057.98" y1="456.85" x2="1275.4" y2="456.85" gradientUnits="userSpaceOnUse"><stop offset="0" stop-color="#f7931e"/><stop offset="0.27" stop-color="#f7961e"/><stop offset="0.47" stop-color="#f89f1e"/><stop offset="0.64" stop-color="#f9af1f"/><stop offset="0.8" stop-color="#fac620"/><stop offset="0.95" stop-color="#fbe321"/><stop offset="1" stop-color="#fcee21"/></linearGradient><linearGradient id="Degradado_sin_nombre_3-2" x1="-517.05" y1="-1321.26" x2="109.07" y2="-695.14" gradientTransform="translate(-32.1 1053.7) rotate(90)" xlink:href="#Degradado_sin_nombre_3"/><linearGradient id="Degradado_sin_nombre_3-3" x1="763.12" y1="827.72" x2="1448.51" y2="827.72" xlink:href="#Degradado_sin_nombre_3"/><clipPath id="clip-path"><path class="cls-1" d="M1267.7,540.2h-12.5a7.6,7.6,0,0,1-7.6-7.6V520.1a7.7,7.7,0,0,1,7.6-7.7h12.5a7.7,7.7,0,0,1,7.7,7.7v12.5a7.6,7.6,0,0,1-7.7,7.6m-60.8-25.4H1191a9.8,9.8,0,0,1-9.7-9.7V489.2a9.8,9.8,0,0,1,9.7-9.7h15.9a9.8,9.8,0,0,1,9.7,9.7v15.9A9.8,9.8,0,0,1,1206.9,514.8Zm36.6-75h-25.9a16,16,0,0,1-15.9-15.9V398a16,16,0,0,1,15.9-15.9h25.9a16,16,0,0,1,15.9,15.9v25.9A16,16,0,0,1,1243.5,439.8ZM1138,483.9h-49.6a30.5,30.5,0,0,1-30.4-30.4V403.9a30.5,30.5,0,0,1,30.4-30.4H1138a30.5,30.5,0,0,1,30.4,30.4v49.6A30.5,30.5,0,0,1,1138,483.9Z"/></clipPath><linearGradient id="Degradado_sin_nombre_3-5" x1="1111.06" y1="511.36" x2="1119.7" y2="511.36" xlink:href="#Degradado_sin_nombre_3"/><linearGradient id="Degradado_sin_nombre_3-6" x1="1086.09" y1="497.32" x2="1105.14" y2="497.32" xlink:href="#Degradado_sin_nombre_3"/><linearGradient id="Degradado_sin_nombre_3-7" x1="1087.37" y1="516.33" x2="1090.36" y2="516.33" xlink:href="#Degradado_sin_nombre_3"/><linearGradient id="Degradado_sin_nombre_3-8" x1="1119.07" y1="493.96" x2="1122.37" y2="493.96" xlink:href="#Degradado_sin_nombre_3"/><linearGradient id="Degradado_sin_nombre_3-9" x1="1068.93" y1="495.58" x2="1076.69" y2="495.58" xlink:href="#Degradado_sin_nombre_3"/><linearGradient id="Degradado_sin_nombre_3-10" x1="1088.66" y1="360.52" x2="1091.42" y2="360.52" xlink:href="#Degradado_sin_nombre_3"/><linearGradient id="Degradado_sin_nombre_3-11" x1="1090.32" y1="340.58" x2="1091.76" y2="340.58" xlink:href="#Degradado_sin_nombre_3"/><linearGradient id="Degradado_sin_nombre_3-12" x1="1109.45" y1="341.44" x2="1111.07" y2="341.44" xlink:href="#Degradado_sin_nombre_3"/><linearGradient id="Degradado_sin_nombre_3-13" x1="1273.27" y1="291.23" x2="1275.4" y2="291.23" xlink:href="#Degradado_sin_nombre_3"/><linearGradient id="Degradado_sin_nombre_3-14" x1="1040.56" y1="372.21" x2="1056.88" y2="372.21" xlink:href="#Degradado_sin_nombre_3"/><linearGradient id="Degradado_sin_nombre_3-15" x1="1034.43" y1="483.01" x2="1037.24" y2="483.01" xlink:href="#Degradado_sin_nombre_3"/><linearGradient id="Degradado_sin_nombre_3-16" x1="1048.81" y1="477.68" x2="1055.34" y2="477.68" xlink:href="#Degradado_sin_nombre_3"/><linearGradient id="Degradado_sin_nombre_3-17" x1="1015.75" y1="422.82" x2="1057.66" y2="422.82" xlink:href="#Degradado_sin_nombre_3"/><linearGradient id="Degradado_sin_nombre_3-18" x1="1056.61" y1="386.75" x2="1061.67" y2="386.75" xlink:href="#Degradado_sin_nombre_3"/><linearGradient id="Degradado_sin_nombre_3-19" x1="994.37" y1="572.64" x2="1005.36" y2="572.64" xlink:href="#Degradado_sin_nombre_3"/><linearGradient id="Degradado_sin_nombre_3-20" x1="1017.24" y1="576.76" x2="1049.71" y2="576.76" xlink:href="#Degradado_sin_nombre_3"/><linearGradient id="Degradado_sin_nombre_3-21" x1="966.48" y1="512.84" x2="969.09" y2="512.84" xlink:href="#Degradado_sin_nombre_3"/><linearGradient id="Degradado_sin_nombre_3-22" x1="963.28" y1="354.44" x2="964.63" y2="354.44" xlink:href="#Degradado_sin_nombre_3"/><linearGradient id="Degradado_sin_nombre_3-23" x1="966.06" y1="339.81" x2="969.78" y2="339.81" xlink:href="#Degradado_sin_nombre_3"/><linearGradient id="Degradado_sin_nombre_3-24" x1="969.65" y1="311.53" x2="971.05" y2="311.53" xlink:href="#Degradado_sin_nombre_3"/><linearGradient id="Degradado_sin_nombre_3-25" x1="946.14" y1="558.79" x2="984.53" y2="558.79" xlink:href="#Degradado_sin_nombre_3"/><linearGradient id="Degradado_sin_nombre_3-26" x1="946.14" y1="349.18" x2="948.07" y2="349.18" xlink:href="#Degradado_sin_nombre_3"/><linearGradient id="Degradado_sin_nombre_3-27" x1="946.14" y1="304.42" x2="1017.37" y2="304.42" xlink:href="#Degradado_sin_nombre_3"/><linearGradient id="Degradado_sin_nombre_3-28" x1="946.14" y1="525.96" x2="973.92" y2="525.96" xlink:href="#Degradado_sin_nombre_3"/><linearGradient id="Degradado_sin_nombre_3-29" x1="946.14" y1="498.73" x2="954.65" y2="498.73" xlink:href="#Degradado_sin_nombre_3"/><linearGradient id="Degradado_sin_nombre_3-30" x1="1153.64" y1="450.38" x2="1275.4" y2="450.38" xlink:href="#Degradado_sin_nombre_3"/><linearGradient id="Degradado_sin_nombre_3-31" x1="1156.84" y1="341.83" x2="1160.68" y2="341.83" xlink:href="#Degradado_sin_nombre_3"/><linearGradient id="Degradado_sin_nombre_3-32" x1="1119.29" y1="344.97" x2="1134.73" y2="344.97" xlink:href="#Degradado_sin_nombre_3"/><linearGradient id="Degradado_sin_nombre_3-33" x1="1030.96" y1="280.3" x2="1040.39" y2="280.3" xlink:href="#Degradado_sin_nombre_3"/><linearGradient id="Degradado_sin_nombre_41" x1="1127.97" y1="1521.31" x2="1042.25" y2="1372.83" gradientUnits="userSpaceOnUse"><stop offset="0" stop-color="#f7931e"/><stop offset="0.3" stop-color="#f7961e"/><stop offset="0.51" stop-color="#f89f1e"/><stop offset="0.71" stop-color="#f9af1f"/><stop offset="0.88" stop-color="#fac61f"/><stop offset="1" stop-color="#fbd920"/></linearGradient><linearGradient id="Degradado_sin_nombre_41-2" x1="1289.14" y1="1534.72" x2="1223.13" y2="1420.4" xlink:href="#Degradado_sin_nombre_41"/><linearGradient id="Degradado_sin_nombre_41-3" x1="1435.46" y1="1522.91" x2="1376.61" y2="1420.97" xlink:href="#Degradado_sin_nombre_41"/></defs><title>LOGO PRINCIPALL</title><path class="cls-2" d="M997.9,1283.4c-251.4,0-455.3-204.7-455.3-456.1S746.5,372,997.9,372c10.6,0,22.1,0,32.8,1.7V510.4H994.6c-11.4,0-22.9.8-34.4,1.7A288.5,288.5,0,0,0,889,528.4a333.3,333.3,0,0,0-70.4,35.2c-7.4,5.8-14.8,10.7-22.1,17.2a297.6,297.6,0,0,0-48.3,47.5c-5.8,7.4-11.5,14.8-17.2,23a292.5,292.5,0,0,0-34.4,70.4,281.3,281.3,0,0,0-16.4,70.4,272.3,272.3,0,0,0-2.5,36,247.7,247.7,0,0,0,2.5,34.4,281.3,281.3,0,0,0,16.4,70.4c8.2,25.4,20.4,49.2,34.4,71.3,6.5,8.2,11.4,14.7,17.2,22.1a334.1,334.1,0,0,0,48.3,48.3c7.3,5.7,14.7,11.5,22.1,16.4,21.3,14.7,45,26.2,70.4,35.2,22.1,8.2,46.7,13.9,71.2,17.2,11.5.8,23,.8,34.4.8s23.8,0,36.1-1.6a290.4,290.4,0,0,0,69.6-16.4,273,273,0,0,0,70.4-35.2,150,150,0,0,0,22.9-16.4,334.1,334.1,0,0,0,48.3-48.3c5.7-7.4,11.5-13.9,17.2-22.1,13.9-22.1,26.2-45.9,34.4-71.3,8.2-22.1,14.7-45.8,17.2-70.4.8-11.4,1.6-22.9,1.6-34.4a272.1,272.1,0,0,0-2.4-36c-1.7-24.6-8.2-48.3-16.4-70.4h148.2A448.2,448.2,0,0,1,1454,827.3C1454,1078.7,1249.3,1283.4,997.9,1283.4Z"/><path class="cls-3" d="M994.6,1074.6c-11.4,0-23.7-.8-34.4-3.3a257.8,257.8,0,0,1-71.2-20.4c-24.6-12.3-47.5-27.9-66.3-46.7l-4.1-4.1c-18.9-18.9-34.4-41.8-46.7-67.2a202.5,202.5,0,0,1-20.5-70.4,166.3,166.3,0,0,1-3.2-34.4,182.6,182.6,0,0,1,3.2-36c2.5-25.4,9.9-48.3,20.5-70.4,12.3-24.6,27.8-47.5,46.7-67.2,1.6-.8,2.4-2.4,3.3-3.2,19.6-18.9,41.7-35.3,67.1-46.7a231.4,231.4,0,0,1,71.2-21.3c10.7-2.5,23-2.5,34.4-2.5h386.5a449.6,449.6,0,0,1,60.6,140.9H994.6c-11.4,0-23.7,2.4-34.4,5.7a105.9,105.9,0,0,0-64.7,64.7c-4,11.5-6.5,22.9-6.5,36,0,11.5,2.5,23,5.7,34.4,10.7,30.3,35.2,54.1,65.5,64.7,10.7,3.3,23,5.7,34.4,5.7a104.6,104.6,0,0,0,36.1-6.5,99.2,99.2,0,0,0,63.8-63.9,100.7,100.7,0,0,0,5.8-34.4v-36h139.2a272.1,272.1,0,0,1,2.4,36,247.6,247.6,0,0,1-2.4,34.4,222.1,222.1,0,0,1-21.3,70.4,219.7,219.7,0,0,1-47.5,67.2c-.8,1.6-1.7,3.3-3.3,4.1a260.9,260.9,0,0,1-67.1,46.7,247,247,0,0,1-69.6,20.4C1019.2,1073.8,1006.9,1074.6,994.6,1074.6Z"/><path class="cls-1" d="M1267.7,540.2h-12.5a7.6,7.6,0,0,1-7.6-7.6V520.1a7.7,7.7,0,0,1,7.6-7.7h12.5a7.7,7.7,0,0,1,7.7,7.7v12.5a7.6,7.6,0,0,1-7.7,7.6m-60.8-25.4H1191a9.8,9.8,0,0,1-9.7-9.7V489.2a9.8,9.8,0,0,1,9.7-9.7h15.9a9.8,9.8,0,0,1,9.7,9.7v15.9A9.8,9.8,0,0,1,1206.9,514.8Zm36.6-75h-25.9a16,16,0,0,1-15.9-15.9V398a16,16,0,0,1,15.9-15.9h25.9a16,16,0,0,1,15.9,15.9v25.9A16,16,0,0,1,1243.5,439.8ZM1138,483.9h-49.6a30.5,30.5,0,0,1-30.4-30.4V403.9a30.5,30.5,0,0,1,30.4-30.4H1138a30.5,30.5,0,0,1,30.4,30.4v49.6A30.5,30.5,0,0,1,1138,483.9Z"/><g class="cls-4"><path class="cls-5" d="M1111.1,510.2h0a39.2,39.2,0,0,1,7.3,8.3c.4-3.9.8-7.8,1.3-11.7a28.7,28.7,0,0,0-4.8-2.8C1113.7,506.2,1112.4,508.2,1111.1,510.2Z"/><path class="cls-6" d="M1101,488.5a4.8,4.8,0,0,1-2.7,2,.3.3,0,0,1-.1.2,4.9,4.9,0,0,1-7.6,2.3,66.2,66.2,0,0,0-4.5,11.1,14.9,14.9,0,0,1,.2,2.1c3.6-2.9,6.7-6.7,9.8-9.9a48.4,48.4,0,0,1,9-7.5l-.5-.2A4.5,4.5,0,0,1,1101,488.5Z"/><path class="cls-7" d="M1087.4,517.2l.7.7a35.5,35.5,0,0,1,2.3-3.1l-3,1.9Z"/><path class="cls-8" d="M1119.1,495.9l2.2,1.1c.1-.7.3-1.5.4-2.3a3.5,3.5,0,0,1,.7-1.5,15,15,0,0,1-1.5-2.3C1120.4,492.6,1119.7,494.3,1119.1,495.9Z"/><path class="cls-9" d="M1068.9,489.4a148.6,148.6,0,0,0,6.8,18c.3-1.4.6-2.7,1-4.1s-.4-3-.7-4.4c-.7-4.7-1.4-9.3-2.3-13.9a6.2,6.2,0,0,1-2.6-1.2C1070.4,485.7,1069.6,487.6,1068.9,489.4Z"/><path class="cls-10" d="M1088.7,361.5c.1,1.1.1,2.2.2,3.3a6.7,6.7,0,0,1,2.4-.2c.1-2.8.1-5.6.1-8.4a16.7,16.7,0,0,0-1.7,2.6A14.8,14.8,0,0,0,1088.7,361.5Z"/><path class="cls-11" d="M1091.8,336h-.2c-.4,3.1-.8,6.1-1.3,9.2l1.3-.7C1091.7,341.6,1091.7,338.8,1091.8,336Z"/><path class="cls-12" d="M1111.1,339.9h-1.6c0,1,.1,2.1.2,3.1a2.9,2.9,0,0,1,1-1.2A10.6,10.6,0,0,1,1111.1,339.9Z"/><path class="cls-13" d="M1273.3,299.9a4.7,4.7,0,0,1,2.1,1.6V281l-1.7.6A111.9,111.9,0,0,1,1273.3,299.9Z"/><path class="cls-14" d="M1047.3,384.4a60.7,60.7,0,0,1,5.3-21.5,4,4,0,0,1,2.8-2.1l1.5-4.7-.8,1.1a5,5,0,0,1-6.9,1.3l-.3.7h0l-2.4,5.8c0,.9-.1,1.8-.2,2.8a5,5,0,0,1-2.8,4.1,3.4,3.4,0,0,1-2.9,1.8c.5,5.2,1.4,10.2,3.8,14.5A21.9,21.9,0,0,0,1047.3,384.4Z"/><path class="cls-15" d="M1036.9,487.4l.3.2c-.2-3.1-.3-6.1-.4-9.1l-1.6.6-.8,2.4C1035.3,483.5,1036.1,485.4,1036.9,487.4Z"/><path class="cls-16" d="M1048.8,479.2a4,4,0,0,1,2.8,2.1l1.5,3a17.7,17.7,0,0,0,1.5-3.8c.8-2.8.7-6.2.7-9.5l-5.8,2.4C1049.3,475.3,1049,477.3,1048.8,479.2Z"/><path class="cls-17" d="M1020.3,460.1a4.9,4.9,0,0,1,3.4,1c.2-7.3.7-14.7,2.6-21.6,1.4-5.1,4-11.1,9.6-12.4a4.7,4.7,0,0,1,5.9,4.5,106.1,106.1,0,0,1-.8,19.5,18,18,0,0,1,1.9-2c3-2.5,8-1,8,3.3s-.2,7.1-.5,10.7l4.8-1.9c-1.6-12.1-.2-24.4,1.5-36.5.3-2.1.6-4.2,1-6.3l-1.7,2.2c-2.7,3.4-7.8.3-8-3.3-.2-6.1-.7-12.5-.9-18.9l-1.1.8a4.8,4.8,0,0,1-5.7-.7c-4.2-4.8-6.2-10.3-7.3-16-.4,1.4-.8,2.8-1.1,4.2a4.9,4.9,0,0,1-6.2,3.1c.7,2.8,1.2,5.6,1.6,8s-1.2,5.7-4.5,6a9.1,9.1,0,0,1-4.1-.6,33.6,33.6,0,0,1-.5,17.3,4.8,4.8,0,0,1-2.5,2.9c1.7,10.8,3.6,21.4,4.4,32.3C1020.2,457.1,1020.3,458.6,1020.3,460.1Z"/><path class="cls-18" d="M1060.6,380.9c.3-1.3.7-2.6,1.1-3.9l-.9-1.2a74.4,74.4,0,0,1-4,10.2c-.1,2-.1,4.1-.2,6.2v5.5C1058.1,392,1059.1,386.1,1060.6,380.9Z"/><path class="cls-19" d="M998.6,564.3a4.4,4.4,0,0,1-2.4-1.1q-.5,9.4-1.8,18.9h11A106.9,106.9,0,0,1,998.6,564.3Z"/><path class="cls-20" d="M1047.7,575.7l-1.5-.5a6.7,6.7,0,0,1-3.3,2.7c-4.6,1.6-10.4-.4-14.6-2a73.9,73.9,0,0,1-9.4-4.5l-1.7.4c3.2,4.3,10,7,14.4,8.5,1.8.6,4,1.3,6.2,1.8h11.9v-.7C1047.7,580.4,1047.1,577.9,1047.7,575.7Z"/><path class="cls-21" d="M969.1,516.4a5.1,5.1,0,0,1-1.1-2.9c-.1-1.3-.1-2.6-.2-4l-.9-.3c-.2,2.3-.3,4.7-.4,7l.9.3Z"/><path class="cls-22" d="M964.6,354a7.6,7.6,0,0,0-.8-1.1c-.2,1-.3,2-.5,3.1Z"/><path class="cls-23" d="M966.5,337.3c-.1,1-.3,2-.4,3l.6.7a17.9,17.9,0,0,1,2.2,3l.9-8.4-2.8.5A4.3,4.3,0,0,1,966.5,337.3Z"/><path class="cls-24" d="M970.5,307.9c-.3,2.5-.6,4.9-.8,7.4l1.3-1.2a44.8,44.8,0,0,0-.5-6.4Z"/><path class="cls-25" d="M978.8,550.5l-4.1-1.6c-4.8-2.1-9.5-5-11.5-9.7a127.2,127.2,0,0,1-17.1-3.7v46.6h38.4C981,572,979.7,561.3,978.8,550.5Z"/><path class="cls-26" d="M946.1,348.4v3.9l.6-.2c.4-2,.9-4,1.4-6a9.4,9.4,0,0,0-1,1A11.3,11.3,0,0,1,946.1,348.4Z"/><path class="cls-27" d="M951.9,331.5l1.5-4.8a144.4,144.4,0,0,1,9.4-33.4c1.1-2.5,4.1-2.8,6.2-1.6a4.8,4.8,0,0,1,6.5,1.6,39,39,0,0,1,4.4,16.5c2.6,0,4.3,2.2,4.7,4.7s.6,5.7.8,8.5c1-1.9,1.9-3.8,3-5.7q2.9-8.1,6.3-16.2c1.4-3.3,6.5-2.8,8.1,0l.3.6a5.4,5.4,0,0,1,5.9-1,49.5,49.5,0,0,1,3.9-14.5,3.9,3.9,0,0,1,2-2c.9-2.9,1.6-6,2.5-8.9H946.1v58.3Z"/><path class="cls-28" d="M949.4,521.7l-3.3-.3v4.5a112.9,112.9,0,0,0,22.4,4.6l4.9-.8a6.9,6.9,0,0,1,.5-1.3l-1.7-.6c-6.1-.2-12.2-.6-18.3-1.1A4.7,4.7,0,0,1,949.4,521.7Z"/><path class="cls-29" d="M946.1,505.4v3l1.9-.9,6.6-3.1c-.6-5.1-1.1-10.2-1.6-15.3C950.8,494.6,948.5,500,946.1,505.4Z"/><path class="cls-30" d="M1264.1,336.8a314.8,314.8,0,0,1-38.8,1.7c-15.4,7.5-33.3,10.8-49.7,12.6-3.5.4-5.7-4.2-4-7-4.8,3.1-9.5,6.3-14.1,9.7v1.6c1.5-4.6,9.3-4.1,9.2,1.4-.1,2.6-.2,5.2-.4,7.9a29.2,29.2,0,0,1,1.5,7.7,4.6,4.6,0,0,1,1.5,3.3c-.1,5-.7,9.9-1.3,14.9a4.6,4.6,0,0,1,4.5,4.6c-.1,15-1.6,29.9-2.5,44.8,1.4,8.3-.1,17.2-.7,25.4a4.8,4.8,0,0,1-2,3.6,89.2,89.2,0,0,1-.6,9.4c-.5,3.5-4,5.4-6.6,4.4-1.1,6.8-2.5,13.5-4.2,20.2-.7,2.8-1.4,5.5-2.3,8.2a78.6,78.6,0,0,1,7.8,6.2,44.6,44.6,0,0,1-1.5-9.7,4.7,4.7,0,0,1,7-4c12.4,7.2,13.4,25.1,13.4,37.8a4.8,4.8,0,0,1-4.7,4.7,4,4,0,0,1,.4,3.9,17.1,17.1,0,0,0,1.1,1.4,4.3,4.3,0,0,1,.8,2.3,4.8,4.8,0,0,1-2.1,6.1,35,35,0,0,1,1.3,5.6,24.2,24.2,0,0,1,4.3,7.9c1.1,2.9-.7,4.9-2.9,5.5,0,1.1.1,2.1.2,3.2h96.7V318.7l-7.5.8a2.1,2.1,0,0,0-.4.6l-.4.5h0l.6.2c3.3,1.4,2.9,6.5,0,8.1h-.2A4.7,4.7,0,0,1,1264.1,336.8Z"/><path class="cls-31" d="M1160.7,340.5l-3.9,1.1c.1.5.1,1,.2,1.6Z"/><path class="cls-32" d="M1132.6,347.6l.8-.3a59.3,59.3,0,0,1,1-6.3l.3-1.2a49.9,49.9,0,0,1-13.9.2h-.2l-.9,4.1c-.1.7-.3,1.3-.4,2a26,26,0,0,1,1,4,4.8,4.8,0,0,1,3.1-.3c0-.3.1-.5.1-.8C1124,344.1,1131.2,342.3,1132.6,347.6Z"/><path class="cls-33" d="M1035.8,280.1l1.2,5.2h.3l1.2-1.5c-2.4-1.9-3.4-6.2.2-7.8l1.7-.7H1031a7.7,7.7,0,0,0,.2,1.5A4.6,4.6,0,0,1,1035.8,280.1Z"/></g><path class="cls-34" d="M618.7,1464.6v-29.2h67.8v70.8c-15,14.7-34.8,22-59.6,22s-44.3-7.2-59.5-21.8-22.8-33.5-22.8-56.9,7.6-42.3,22.9-56.9,34.8-21.9,59-21.9,44.1,7.5,60,22.5L665.7,1415q-5.4-6.1-15.9-9.9a62.3,62.3,0,0,0-21.5-3.9q-19.9,0-32.7,13.5T583,1449.5c0,14.3,4.2,25.9,12.9,34.8s19.5,13.4,33.3,13.4a54.6,54.6,0,0,0,21.5-4.1v-29Z"/><path class="cls-34" d="M727.6,1471.1c0-16.7,5.6-30.4,16.9-41s25.8-15.9,43.7-15.9,32.3,5.3,43.6,15.9,16.9,24.3,16.9,41-5.6,30.4-16.9,41S806,1528,788.2,1528s-32.5-5.3-43.7-15.9S727.6,1487.8,727.6,1471.1Zm42.7,20.8a22.4,22.4,0,0,0,17.9,8.2,22.7,22.7,0,0,0,17.9-8.1c4.5-5.3,6.9-12.3,6.9-20.9s-2.4-15.5-6.9-20.9a22.7,22.7,0,0,0-17.9-8c-7.4,0-13.3,2.6-17.9,8s-7,12.3-7,20.9S765.6,1486.4,770.3,1491.9Z"/><path class="cls-34" d="M886.9,1471.1c0-16.7,5.6-30.4,16.9-41s25.9-15.9,43.7-15.9,32.4,5.3,43.7,15.9,16.9,24.3,16.9,41-5.7,30.4-16.9,41-25.9,15.9-43.7,15.9-32.4-5.3-43.7-15.9S886.9,1487.8,886.9,1471.1Zm42.8,20.8a22.2,22.2,0,0,0,17.8,8.2,22.6,22.6,0,0,0,17.9-8.1c4.6-5.3,6.9-12.3,6.9-20.9s-2.3-15.5-6.9-20.9a22.5,22.5,0,0,0-17.9-8c-7.3,0-13.3,2.6-17.8,8s-7,12.3-7,20.9S925,1486.4,929.7,1491.9Z"/><path class="cls-35" d="M1051.3,1367.6h33.2v52.6c6.9-4,16.4-5.9,28.5-6,14.7,0,26.7,4.9,35.7,14.6s13.5,22.3,13.5,37.7c0,18.3-6.4,33.1-19,44.5s-29.3,17-49.4,17c-16.3,0-30.4-2.8-42.5-8.7Zm33.2,130.5a35.6,35.6,0,0,0,12.9,2q12.9,0,21-8.7t8.1-22.2c0-8.2-2.1-14.9-6.2-20.3a19.2,19.2,0,0,0-15.8-8.1,18.1,18.1,0,0,0-14.4,6.4c-3.7,4.3-5.6,9.9-5.6,16.7Z"/><path class="cls-36" d="M1217.8,1467.8c10.1-7.1,23-10.6,39-10.6a79.1,79.1,0,0,1,15.1,1.1v-4.4c0-6.9-8.2-11.7-20.1-11.7a51.7,51.7,0,0,0-29.8,9.1l-15.5-19.2c5.1-5.4,12.1-9.7,20.9-13a79.9,79.9,0,0,1,28.1-4.9c14.6,0,26.4,3.5,35.6,10.5s13.9,16.3,13.9,27.5v73.4h-33.1v-6.5c-8.8,5.9-19.4,8.9-31.4,8.9s-20.3-3.1-27.3-9.2a29.2,29.2,0,0,1-10.7-23.3C1202.5,1484.1,1207.6,1474.9,1217.8,1467.8Zm25.9,14.6c-4.1,2.4-6.3,5.6-6.3,9.5,0,5.8,6.2,9.7,14.6,9.7,11.9,0,19.9-8,19.9-21.1a46.4,46.4,0,0,0-12.2-1.7C1253.2,1478.8,1247.9,1479.9,1243.7,1482.4Z"/><path class="cls-37" d="M1450,1512.5c-10.1,10.3-24.1,15.4-41.8,15.5s-33-5.3-44.4-15.8-17.1-24.2-17.1-40.9,5.6-30.6,17-41.2,26.1-15.9,44.3-15.9,31.5,5.2,42,15.5l-19.2,19c-5.1-4.4-11.9-6.5-20.3-6.5s-15,2.6-20.2,8.1-7.9,12.4-7.9,21,2.7,15.4,7.9,20.7,11.9,8.1,20.2,8.1,15.2-2.2,20.3-6.5Z"/><path class="cls-34" d="M582.5,1574.1h4.1v11.5a14.1,14.1,0,0,1-5.1,2.8,18.1,18.1,0,0,1-6.1,1,15.7,15.7,0,0,1-8.1-2,14.5,14.5,0,0,1-5.6-5.4,14.4,14.4,0,0,1-2.1-7.7,14.7,14.7,0,0,1,2.1-7.8,14.1,14.1,0,0,1,5.7-5.4,16.7,16.7,0,0,1,8.1-1.9,18.7,18.7,0,0,1,6.4,1.1,13.1,13.1,0,0,1,4.9,3.4l-2.6,2.7a11.8,11.8,0,0,0-8.6-3.5,12.1,12.1,0,0,0-6,1.5,10.8,10.8,0,0,0-4.2,4,11.8,11.8,0,0,0-1.5,5.9,11.4,11.4,0,0,0,1.5,5.8,11,11,0,0,0,4.2,4.1,12.1,12.1,0,0,0,6,1.4,11.9,11.9,0,0,0,6.9-1.9Z"/><path class="cls-34" d="M636.6,1589.1l-6.3-9.1h-9.2v9h-4.2v-29.6h11.5c3.8,0,6.9.9,9.1,2.8a9.4,9.4,0,0,1,3.2,7.5,9,9,0,0,1-6.5,9.3l7.1,10Zm-2.2-14.3a6.1,6.1,0,0,0,2.1-5,5.9,5.9,0,0,0-2.1-4.9,9.6,9.6,0,0,0-6.1-1.7h-7.2v13.3h7.2A9.6,9.6,0,0,0,634.4,1574.8Z"/><path class="cls-34" d="M675.1,1587.4a13.9,13.9,0,0,1-5.6-5.4,15.2,15.2,0,0,1,0-15.4,14.8,14.8,0,0,1,5.6-5.5,18,18,0,0,1,16.1,0,15.3,15.3,0,0,1,5.6,5.4,14.6,14.6,0,0,1,2,7.8,14.3,14.3,0,0,1-2,7.7,13.9,13.9,0,0,1-5.6,5.4,17.2,17.2,0,0,1-16.1,0Zm13.9-3.2a11.5,11.5,0,0,0-11.7-19.8,11,11,0,0,0-4.2,4.1,12,12,0,0,0,0,11.6,11,11,0,0,0,4.2,4.1,11.5,11.5,0,0,0,5.9,1.4A11.3,11.3,0,0,0,689,1584.2Z"/><path class="cls-34" d="M768.4,1559.5l-9.9,29.6H754l-8-23.6-8.1,23.6h-4.5l-9.9-29.6h4.4l8,24,8.3-24h3.9l8.1,24.2,8.1-24.2Z"/><path class="cls-34" d="M801.9,1563.2H791.8v-3.7h24.4v3.7H806.1v25.9h-4.2Z"/><path class="cls-34" d="M868.5,1559.5v29.6h-4.2v-13.2h-17v13.2h-4.2v-29.6h4.2v12.7h17v-12.7Z"/><path class="cls-34" d="M935.4,1588.4a13.4,13.4,0,0,1-4.9-2.7l1.6-3.3a13.5,13.5,0,0,0,4.3,2.5,17,17,0,0,0,5.4.9,10,10,0,0,0,5.5-1.2,4,4,0,0,0,1.8-3.3,3,3,0,0,0-1-2.5,7,7,0,0,0-2.4-1.5l-4.1-1.1a36.7,36.7,0,0,1-5.4-1.6,8.7,8.7,0,0,1-3.5-2.5,6.4,6.4,0,0,1-1.5-4.5,6.8,6.8,0,0,1,1.3-4.2,8.8,8.8,0,0,1,3.7-3.1,16.5,16.5,0,0,1,6.3-1.1,18.1,18.1,0,0,1,5.2.7,13,13,0,0,1,4.3,1.9l-1.4,3.4a13.8,13.8,0,0,0-3.9-1.8,15.2,15.2,0,0,0-4.2-.6c-2.4,0-4.2.4-5.3,1.3a3.9,3.9,0,0,0-1.8,3.4,3,3,0,0,0,1,2.4,6.2,6.2,0,0,0,2.5,1.5,28.5,28.5,0,0,0,4.1,1.1c2.2.6,4,1.1,5.3,1.6a9.8,9.8,0,0,1,3.5,2.5,6.2,6.2,0,0,1,1.5,4.4,7.5,7.5,0,0,1-1.3,4.2,9.1,9.1,0,0,1-3.8,3.1,17.5,17.5,0,0,1-6.4,1.1A19.5,19.5,0,0,1,935.4,1588.4Z"/><path class="cls-34" d="M987.1,1563.2H977v-3.7h24.4v3.7H991.3v25.9h-4.2Z"/><path class="cls-34" d="M1045.6,1581.7h-15.7l-3.2,7.4h-4.4l13.4-29.6h4.2l13.4,29.6h-4.4Zm-1.5-3.4-6.3-14.5-6.4,14.5Z"/><path class="cls-34" d="M1099.7,1589.1l-6.4-9.1h-9.1v9h-4.3v-29.6h11.6c3.8,0,6.8.9,9,2.8a9.2,9.2,0,0,1,3.3,7.5,9.9,9.9,0,0,1-1.7,5.8,9.2,9.2,0,0,1-4.8,3.5l7,10Zm-2.2-14.3a6.1,6.1,0,0,0,2.1-5,5.9,5.9,0,0,0-2.1-4.9,10,10,0,0,0-6.2-1.7h-7.1v13.3h7.1A10,10,0,0,0,1097.5,1574.8Z"/><path class="cls-34" d="M1138.3,1563.2h-10.1v-3.7h24.4v3.7h-10.1v25.9h-4.2Z"/><path class="cls-34" d="M1181.3,1588.4a13.4,13.4,0,0,1-4.9-2.7l1.6-3.3a13.5,13.5,0,0,0,4.3,2.5,17,17,0,0,0,5.4.9,10,10,0,0,0,5.5-1.2,4,4,0,0,0,1.8-3.3,3,3,0,0,0-1-2.5,7,7,0,0,0-2.4-1.5l-4.1-1.1a36.7,36.7,0,0,1-5.4-1.6,8.7,8.7,0,0,1-3.5-2.5,6.4,6.4,0,0,1-1.5-4.5,6.8,6.8,0,0,1,1.3-4.2,8.8,8.8,0,0,1,3.7-3.1,16.5,16.5,0,0,1,6.3-1.1,18.1,18.1,0,0,1,5.2.7,13,13,0,0,1,4.3,1.9l-1.4,3.4a13.8,13.8,0,0,0-3.9-1.8,15.2,15.2,0,0,0-4.2-.6c-2.4,0-4.1.4-5.3,1.3a3.9,3.9,0,0,0-1.8,3.4,3,3,0,0,0,1,2.4,6.2,6.2,0,0,0,2.5,1.5,28.5,28.5,0,0,0,4.1,1.1c2.2.6,4,1.1,5.3,1.6a9.8,9.8,0,0,1,3.5,2.5,6.2,6.2,0,0,1,1.5,4.4,7.5,7.5,0,0,1-1.3,4.2,9.1,9.1,0,0,1-3.8,3.1,17.5,17.5,0,0,1-6.4,1.1A19.5,19.5,0,0,1,1181.3,1588.4Z"/><path class="cls-34" d="M1286.6,1559.5v29.6h-4.2v-13.2h-17v13.2h-4.2v-29.6h4.2v12.7h17v-12.7Z"/><path class="cls-34" d="M1339.1,1585.4v3.7h-21.4v-29.6h20.9v3.7h-16.7v9.1h14.8v3.6h-14.8v9.5Z"/><path class="cls-34" d="M1388,1589.1l-6.4-9.1h-9.1v9h-4.3v-29.6h11.6c3.8,0,6.8.9,9,2.8a9.2,9.2,0,0,1,3.3,7.5,9.9,9.9,0,0,1-1.7,5.8,9.2,9.2,0,0,1-4.8,3.5l7,10Zm-2.3-14.3a5.9,5.9,0,0,0,2.2-5,5.7,5.7,0,0,0-2.2-4.9,9.6,9.6,0,0,0-6.1-1.7h-7.1v13.3h7.1A9.6,9.6,0,0,0,1385.7,1574.8Z"/><path class="cls-34" d="M1442.6,1585.4v3.7h-21.4v-29.6H1442v3.7h-16.6v9.1h14.8v3.6h-14.8v9.5Z"/></svg>