<svg xmlns="http://www.w3.org/2000/svg" xmlns:xlink="http://www.w3.org/1999/xlink" viewBox="0 0 600 400"><defs><style>.cls-1{fill:none;}.cls-2{fill:url(#Degradado_sin_nombre_3);}.cls-3{isolation:isolate;}.cls-4{clip-path:url(#clip-path);}.cls-5{fill:#e0f3ff;}.cls-6{fill:url(#Áåçûìÿííûé_ãðàäèåíò_29);}.cls-7{fill:url(#Áåçûìÿííûé_ãðàäèåíò_28);}.cls-8{fill:#e5e2ff;}.cls-9{fill:url(#Áåçûìÿííûé_ãðàäèåíò_28-2);}.cls-10,.cls-11{opacity:0.62;}.cls-10,.cls-100,.cls-101,.cls-11,.cls-120,.cls-19,.cls-20,.cls-21,.cls-24,.cls-26,.cls-32,.cls-35,.cls-37,.cls-40,.cls-41,.cls-42,.cls-43,.cls-44,.cls-45,.cls-46,.cls-47,.cls-48,.cls-49,.cls-50,.cls-51,.cls-52,.cls-53,.cls-54,.cls-55,.cls-56,.cls-59,.cls-60,.cls-61,.cls-62,.cls-63,.cls-64,.cls-68,.cls-79,.cls-82,.cls-83,.cls-84,.cls-88,.cls-89,.cls-96,.cls-97,.cls-98,.cls-99{mix-blend-mode:multiply;}.cls-10{fill:url(#Áåçûìÿííûé_ãðàäèåíò_27);}.cls-11{fill:url(#Áåçûìÿííûé_ãðàäèåíò_94);}.cls-12,.cls-120,.cls-15,.cls-16,.cls-24,.cls-26,.cls-41,.cls-42,.cls-43,.cls-44,.cls-45,.cls-46,.cls-47,.cls-48,.cls-49,.cls-51,.cls-53,.cls-54,.cls-55,.cls-56,.cls-59,.cls-61,.cls-62,.cls-63,.cls-64,.cls-84{opacity:0.5;}.cls-12,.cls-15,.cls-16{mix-blend-mode:screen;}.cls-12{fill:url(#Áåçûìÿííûé_ãðàäèåíò_95);}.cls-13{fill:#fff;}.cls-14{fill:url(#Áåçûìÿííûé_ãðàäèåíò_74);}.cls-15{fill:url(#Áåçûìÿííûé_ãðàäèåíò_83);}.cls-16{fill:url(#Áåçûìÿííûé_ãðàäèåíò_83-2);}.cls-17{fill:url(#Áåçûìÿííûé_ãðàäèåíò_26);}.cls-18{fill:url(#Áåçûìÿííûé_ãðàäèåíò_26-2);}.cls-19,.cls-20,.cls-21,.cls-50{opacity:0.76;}.cls-19{fill:url(#Áåçûìÿííûé_ãðàäèåíò_70);}.cls-20{fill:url(#Áåçûìÿííûé_ãðàäèåíò_70-2);}.cls-21{fill:url(#Áåçûìÿííûé_ãðàäèåíò_70-3);}.cls-22{fill:#fe9083;}.cls-23{fill:url(#Áåçûìÿííûé_ãðàäèåíò_354);}.cls-24{fill:url(#Áåçûìÿííûé_ãðàäèåíò_70-4);}.cls-25{fill:url(#Áåçûìÿííûé_ãðàäèåíò_26-3);}.cls-26{fill:url(#Áåçûìÿííûé_ãðàäèåíò_70-5);}.cls-27{fill:url(#Áåçûìÿííûé_ãðàäèåíò_178);}.cls-28{fill:url(#Áåçûìÿííûé_ãðàäèåíò_55);}.cls-29{fill:#cb4d7a;}.cls-30{fill:#ee8183;}.cls-31{fill:url(#Áåçûìÿííûé_ãðàäèåíò_71);}.cls-32,.cls-37,.cls-68,.cls-79,.cls-82,.cls-83,.cls-94,.cls-96{opacity:0.6;}.cls-32{fill:url(#Áåçûìÿííûé_ãðàäèåíò_48);}.cls-33{fill:url(#Áåçûìÿííûé_ãðàäèåíò_71-2);}.cls-34{fill:#e28183;}.cls-35,.cls-40{opacity:0.91;}.cls-35{fill:url(#Áåçûìÿííûé_ãðàäèåíò_73);}.cls-36{fill:url(#Áåçûìÿííûé_ãðàäèåíò_71-3);}.cls-37{fill:url(#Áåçûìÿííûé_ãðàäèåíò_48-2);}.cls-38{fill:url(#Áåçûìÿííûé_ãðàäèåíò_64);}.cls-39{fill:url(#Áåçûìÿííûé_ãðàäèåíò_64-2);}.cls-40{fill:url(#Áåçûìÿííûé_ãðàäèåíò_73-2);}.cls-41{fill:url(#Áåçûìÿííûé_ãðàäèåíò_70-6);}.cls-42{fill:url(#Áåçûìÿííûé_ãðàäèåíò_70-7);}.cls-43{fill:url(#Áåçûìÿííûé_ãðàäèåíò_4);}.cls-44{fill:url(#Áåçûìÿííûé_ãðàäèåíò_4-2);}.cls-45{fill:url(#Áåçûìÿííûé_ãðàäèåíò_4-3);}.cls-46{fill:url(#Áåçûìÿííûé_ãðàäèåíò_4-4);}.cls-47{fill:url(#Áåçûìÿííûé_ãðàäèåíò_4-5);}.cls-48{fill:url(#Áåçûìÿííûé_ãðàäèåíò_4-6);}.cls-49{fill:url(#Áåçûìÿííûé_ãðàäèåíò_4-7);}.cls-50{fill:url(#Áåçûìÿííûé_ãðàäèåíò_70-8);}.cls-51{fill:url(#Áåçûìÿííûé_ãðàäèåíò_70-9);}.cls-100,.cls-52,.cls-60,.cls-97,.cls-98,.cls-99{opacity:0.3;}.cls-52{fill:url(#Áåçûìÿííûé_ãðàäèåíò_70-10);}.cls-53{fill:url(#Áåçûìÿííûé_ãðàäèåíò_4-8);}.cls-54{fill:url(#Áåçûìÿííûé_ãðàäèåíò_70-11);}.cls-55{fill:url(#Áåçûìÿííûé_ãðàäèåíò_4-9);}.cls-56{fill:url(#Áåçûìÿííûé_ãðàäèåíò_4-10);}.cls-57{fill:url(#Áåçûìÿííûé_ãðàäèåíò_25);}.cls-58{fill:#ebefff;}.cls-59{fill:url(#Áåçûìÿííûé_ãðàäèåíò_70-12);}.cls-60{fill:url(#Áåçûìÿííûé_ãðàäèåíò_70-13);}.cls-61{fill:url(#Áåçûìÿííûé_ãðàäèåíò_70-14);}.cls-62{fill:url(#Áåçûìÿííûé_ãðàäèåíò_70-15);}.cls-63{fill:url(#Áåçûìÿííûé_ãðàäèåíò_70-16);}.cls-64{fill:#7a4ac0;}.cls-65{fill:url(#Áåçûìÿííûé_ãðàäèåíò_71-4);}.cls-66{fill:url(#Áåçûìÿííûé_ãðàäèåíò_71-5);}.cls-67{fill:url(#Áåçûìÿííûé_ãðàäèåíò_387);}.cls-68{fill:url(#Áåçûìÿííûé_ãðàäèåíò_48-3);}.cls-69{fill:#38368e;}.cls-70{fill:url(#Áåçûìÿííûé_ãðàäèåíò_59);}.cls-71{fill:url(#Áåçûìÿííûé_ãðàäèåíò_184);}.cls-72{fill:#ffebed;}.cls-73{fill:#7f9ec9;}.cls-74{fill:#131163;}.cls-75{fill:#c6659c;}.cls-76{fill:#cb5f7d;}.cls-77{fill:#9f4a8b;}.cls-78{fill:#ffbcaf;}.cls-79{fill:url(#Áåçûìÿííûé_ãðàäèåíò_48-4);}.cls-80{fill:url(#Áåçûìÿííûé_ãðàäèåíò_292);}.cls-81{fill:#d2726c;}.cls-82{fill:url(#Áåçûìÿííûé_ãðàäèåíò_35);}.cls-83{fill:url(#Áåçûìÿííûé_ãðàäèåíò_52);}.cls-84{fill:url(#Áåçûìÿííûé_ãðàäèåíò_397);}.cls-85{fill:url(#Áåçûìÿííûé_ãðàäèåíò_141);}.cls-86{fill:url(#Áåçûìÿííûé_ãðàäèåíò_141-2);}.cls-87{fill:url(#Áåçûìÿííûé_ãðàäèåíò_141-3);}.cls-88,.cls-89{opacity:0.8;}.cls-88{fill:url(#Áåçûìÿííûé_ãðàäèåíò_285);}.cls-89{fill:url(#Áåçûìÿííûé_ãðàäèåíò_285-2);}.cls-90{fill:#34c7ff;}.cls-91{fill:url(#Áåçûìÿííûé_ãðàäèåíò_141-4);}.cls-92{fill:url(#Áåçûìÿííûé_ãðàäèåíò_141-5);}.cls-93{fill:url(#Áåçûìÿííûé_ãðàäèåíò_141-6);}.cls-94{fill:#36d1f7;}.cls-95{fill:#744ca2;}.cls-96{fill:url(#Áåçûìÿííûé_ãðàäèåíò_89);}.cls-97{fill:url(#Áåçûìÿííûé_ãðàäèåíò_85);}.cls-98{fill:url(#Áåçûìÿííûé_ãðàäèåíò_85-2);}.cls-99{fill:url(#Áåçûìÿííûé_ãðàäèåíò_85-3);}.cls-100{fill:url(#Áåçûìÿííûé_ãðàäèåíò_85-4);}.cls-101{fill:#d1d4fb;}.cls-102,.cls-121{mix-blend-mode:soft-light;}.cls-103{fill:#e0ffff;}.cls-104{fill:url(#Áåçûìÿííûé_ãðàäèåíò_65);}.cls-105{fill:url(#Áåçûìÿííûé_ãðàäèåíò_14);}.cls-106{opacity:0.81;fill:url(#Áåçûìÿííûé_ãðàäèåíò_115);}.cls-107{fill:#473da2;}.cls-108{fill:url(#Áåçûìÿííûé_ãðàäèåíò_302);}.cls-109{fill:url(#Áåçûìÿííûé_ãðàäèåíò_302-2);}.cls-110{fill:url(#Áåçûìÿííûé_ãðàäèåíò_322);}.cls-111{fill:url(#Áåçûìÿííûé_ãðàäèåíò_322-2);}.cls-112{fill:url(#Áåçûìÿííûé_ãðàäèåíò_25-2);}.cls-113{fill:url(#Áåçûìÿííûé_ãðàäèåíò_25-3);}.cls-114,.cls-116{opacity:0.73;}.cls-114{fill:url(#Áåçûìÿííûé_ãðàäèåíò_97);}.cls-115{fill:#953da2;}.cls-116{fill:url(#Áåçûìÿííûé_ãðàäèåíò_97-2);}.cls-117,.cls-118,.cls-119,.cls-120,.cls-121,.cls-125,.cls-126,.cls-127,.cls-128{fill-rule:evenodd;}.cls-117{fill:url(#Áåçûìÿííûé_ãðàäèåíò_206);}.cls-118{fill:url(#Áåçûìÿííûé_ãðàäèåíò_206-2);}.cls-119{fill:url(#Áåçûìÿííûé_ãðàäèåíò_107);}.cls-120{fill:#601734;}.cls-121{fill:#b3d9ff;}.cls-122{fill:#ff1d9c;}.cls-123{fill:#6877ff;}.cls-124{fill:#4f31e0;}.cls-125{fill:url(#Áåçûìÿííûé_ãðàäèåíò_107-2);}.cls-126{fill:url(#Áåçûìÿííûé_ãðàäèåíò_206-3);}.cls-127{fill:url(#Áåçûìÿííûé_ãðàäèåíò_107-3);}.cls-128{fill:url(#Áåçûìÿííûé_ãðàäèåíò_206-4);}.cls-129{fill:url(#Degradado_sin_nombre_3-2);}.cls-130{fill:url(#Degradado_sin_nombre_3-3);}.cls-131{clip-path:url(#clip-path-2);}.cls-132{fill:url(#Degradado_sin_nombre_3-5);}.cls-133{fill:url(#Degradado_sin_nombre_3-6);}.cls-134{fill:url(#Degradado_sin_nombre_3-7);}.cls-135{fill:url(#Degradado_sin_nombre_3-8);}.cls-136{fill:url(#Degradado_sin_nombre_3-9);}.cls-137{fill:url(#Degradado_sin_nombre_3-10);}.cls-138{fill:url(#Degradado_sin_nombre_3-11);}.cls-139{fill:url(#Degradado_sin_nombre_3-12);}.cls-140{fill:url(#Degradado_sin_nombre_3-13);}.cls-141{fill:url(#Degradado_sin_nombre_3-14);}.cls-142{fill:url(#Degradado_sin_nombre_3-15);}.cls-143{fill:url(#Degradado_sin_nombre_3-16);}.cls-144{fill:url(#Degradado_sin_nombre_3-17);}.cls-145{fill:url(#Degradado_sin_nombre_3-18);}.cls-146{fill:url(#Degradado_sin_nombre_3-19);}.cls-147{fill:url(#Degradado_sin_nombre_3-20);}.cls-148{fill:url(#Degradado_sin_nombre_3-21);}.cls-149{fill:url(#Degradado_sin_nombre_3-22);}.cls-150{fill:url(#Degradado_sin_nombre_3-23);}.cls-151{fill:url(#Degradado_sin_nombre_3-24);}.cls-152{fill:url(#Degradado_sin_nombre_3-25);}.cls-153{fill:url(#Degradado_sin_nombre_3-26);}.cls-154{fill:url(#Degradado_sin_nombre_3-27);}.cls-155{fill:url(#Degradado_sin_nombre_3-28);}.cls-156{fill:url(#Degradado_sin_nombre_3-29);}.cls-157{fill:url(#Degradado_sin_nombre_3-30);}.cls-158{fill:url(#Degradado_sin_nombre_3-31);}.cls-159{fill:url(#Degradado_sin_nombre_3-32);}.cls-160{fill:url(#Degradado_sin_nombre_3-33);}.cls-161{fill:#4d4d4d;}.cls-162{fill:url(#Degradado_sin_nombre_41);}.cls-163{fill:url(#Degradado_sin_nombre_41-2);}.cls-164{fill:url(#Degradado_sin_nombre_41-3);}</style><linearGradient id="Degradado_sin_nombre_3" x1="97.9" y1="26.82" x2="117.04" y2="26.82" gradientUnits="userSpaceOnUse"><stop offset="0" stop-color="#f7931e"/><stop offset="0.27" stop-color="#f7961e"/><stop offset="0.47" stop-color="#f89f1e"/><stop offset="0.64" stop-color="#f9af1f"/><stop offset="0.8" stop-color="#fac620"/><stop offset="0.95" stop-color="#fbe321"/><stop offset="1" stop-color="#fcee21"/></linearGradient><clipPath id="clip-path"><rect class="cls-1" x="16.2" width="600" height="400"/></clipPath><linearGradient id="Áåçûìÿííûé_ãðàäèåíò_29" x1="154.55" y1="282.08" x2="154.55" y2="210.89" gradientTransform="matrix(0.91, -0.42, 0.42, 0.91, -75.05, 53.74)" gradientUnits="userSpaceOnUse"><stop offset="0" stop-color="#dbccff"/><stop offset="1" stop-color="#d1bbff"/></linearGradient><linearGradient id="Áåçûìÿííûé_ãðàäèåíò_28" x1="154.55" y1="284.85" x2="154.55" y2="213.66" gradientTransform="matrix(0.91, -0.42, 0.42, 0.91, -75.05, 53.74)" gradientUnits="userSpaceOnUse"><stop offset="0" stop-color="#b5a6e7"/><stop offset="1" stop-color="#7760bf"/></linearGradient><linearGradient id="Áåçûìÿííûé_ãðàäèåíò_28-2" x1="154.55" y1="267.15" x2="154.55" y2="237.15" xlink:href="#Áåçûìÿííûé_ãðàäèåíò_28"/><linearGradient id="Áåçûìÿííûé_ãðàäèåíò_27" x1="150.29" y1="237.75" x2="158.81" y2="237.75" gradientTransform="matrix(0.91, -0.42, 0.42, 0.91, -75.05, 53.74)" gradientUnits="userSpaceOnUse"><stop offset="0" stop-color="#8b8be0"/><stop offset="1" stop-color="#a177b7"/></linearGradient><linearGradient id="Áåçûìÿííûé_ãðàäèåíò_94" x1="154.55" y1="239.72" x2="154.55" y2="234.57" gradientTransform="matrix(0.91, -0.42, 0.42, 0.91, -75.05, 53.74)" gradientUnits="userSpaceOnUse"><stop offset="0" stop-color="#fff"/><stop offset="1" stop-color="#a177b7"/></linearGradient><linearGradient id="Áåçûìÿííûé_ãðàäèåíò_95" x1="159.05" y1="270.22" x2="159.05" y2="237.14" gradientTransform="matrix(0.91, -0.42, 0.42, 0.91, -75.05, 53.74)" gradientUnits="userSpaceOnUse"><stop offset="0"/><stop offset="1" stop-color="#fff"/></linearGradient><linearGradient id="Áåçûìÿííûé_ãðàäèåíò_74" x1="296.54" y1="400" x2="296.54" y2="310.79" gradientUnits="userSpaceOnUse"><stop offset="0" stop-color="#6456c0"/><stop offset="1" stop-color="#5f2c95"/></linearGradient><radialGradient id="Áåçûìÿííûé_ãðàäèåíò_83" cx="256.36" cy="366.52" r="27.03" gradientTransform="matrix(0, 0.66, -1.71, 0, 881.12, 197.9)" gradientUnits="userSpaceOnUse"><stop offset="0" stop-color="#4b474b"/><stop offset="1"/></radialGradient><radialGradient id="Áåçûìÿííûé_ãðàäèåíò_83-2" cx="374.91" cy="355.37" r="27.03" gradientTransform="matrix(0.66, 0, 0, 1.71, 87.67, -241.42)" xlink:href="#Áåçûìÿííûé_ãðàäèåíò_83"/><linearGradient id="Áåçûìÿííûé_ãðàäèåíò_26" x1="267.67" y1="368.68" x2="291.07" y2="368.68" gradientUnits="userSpaceOnUse"><stop offset="0" stop-color="#9e8cef"/><stop offset="1" stop-color="#caafee"/></linearGradient><linearGradient id="Áåçûìÿííûé_ãðàäèåíò_26-2" x1="325.29" y1="368.68" x2="348.68" y2="368.68" gradientTransform="matrix(-1, 0, 0, 1, 647.63, 0)" xlink:href="#Áåçûìÿííûé_ãðàäèåíò_26"/><linearGradient id="Áåçûìÿííûé_ãðàäèåíò_70" x1="293.4" y1="400" x2="293.4" y2="310.79" gradientUnits="userSpaceOnUse"><stop offset="0" stop-color="#ccf"/><stop offset="1" stop-color="#755cbb"/></linearGradient><linearGradient id="Áåçûìÿííûé_ãðàäèåíò_70-2" x1="303.79" y1="355.4" x2="303.79" y2="331.06" xlink:href="#Áåçûìÿííûé_ãðàäèåíò_70"/><linearGradient id="Áåçûìÿííûé_ãðàäèåíò_70-3" x1="275.6" y1="346.45" x2="275.6" y2="322.61" xlink:href="#Áåçûìÿííûé_ãðàäèåíò_70"/><linearGradient id="Áåçûìÿííûé_ãðàäèåíò_354" x1="299.78" y1="176.45" x2="299.78" y2="140.84" gradientUnits="userSpaceOnUse"><stop offset="0" stop-color="#d5cdf8"/><stop offset="1" stop-color="#f3edfb"/></linearGradient><linearGradient id="Áåçûìÿííûé_ãðàäèåíò_70-4" x1="281.45" y1="158.61" x2="318.12" y2="158.61" xlink:href="#Áåçûìÿííûé_ãðàäèåíò_70"/><linearGradient id="Áåçûìÿííûé_ãðàäèåíò_26-3" x1="289.3" y1="318.73" x2="289.3" y2="139.29" xlink:href="#Áåçûìÿííûé_ãðàäèåíò_26"/><linearGradient id="Áåçûìÿííûé_ãðàäèåíò_70-5" x1="214.83" y1="206.92" x2="258.53" y2="206.92" xlink:href="#Áåçûìÿííûé_ãðàäèåíò_70"/><linearGradient id="Áåçûìÿííûé_ãðàäèåíò_178" x1="213.48" y1="257.17" x2="213.48" y2="173.26" gradientUnits="userSpaceOnUse"><stop offset="0" stop-color="#9e8cef"/><stop offset="1" stop-color="#dac7f3"/></linearGradient><linearGradient id="Áåçûìÿííûé_ãðàäèåíò_55" x1="357.77" y1="232.99" x2="414.08" y2="232.99" gradientUnits="userSpaceOnUse"><stop offset="0" stop-color="#a999f1"/><stop offset="1" stop-color="#dac7f3"/></linearGradient><linearGradient id="Áåçûìÿííûé_ãðàäèåíò_71" x1="195.16" y1="161.82" x2="195.16" y2="139.69" gradientUnits="userSpaceOnUse"><stop offset="0.02" stop-color="#ffc2a9"/><stop offset="1" stop-color="#ff9595"/></linearGradient><linearGradient id="Áåçûìÿííûé_ãðàäèåíò_48" x1="209.1" y1="161.29" x2="209.1" y2="124.67" gradientUnits="userSpaceOnUse"><stop offset="0" stop-color="#ffeadb"/><stop offset="0.99" stop-color="#c27cb6"/></linearGradient><linearGradient id="Áåçûìÿííûé_ãðàäèåíò_71-2" x1="207.91" y1="186.21" x2="207.91" y2="129.75" xlink:href="#Áåçûìÿííûé_ãðàäèåíò_71"/><linearGradient id="Áåçûìÿííûé_ãðàäèåíò_73" x1="197.81" y1="177.4" x2="215.56" y2="177.4" gradientUnits="userSpaceOnUse"><stop offset="0.02" stop-color="#d1a1d6"/><stop offset="0.99" stop-color="#bd89c4"/></linearGradient><linearGradient id="Áåçûìÿííûé_ãðàäèåíò_71-3" x1="415.24" y1="220.6" x2="415.24" y2="145.1" xlink:href="#Áåçûìÿííûé_ãðàäèåíò_71"/><linearGradient id="Áåçûìÿííûé_ãðàäèåíò_48-2" x1="424.16" y1="196.41" x2="424.16" y2="158.9" xlink:href="#Áåçûìÿííûé_ãðàäèåíò_48"/><linearGradient id="Áåçûìÿííûé_ãðàäèåíò_64" x1="431.56" y1="183.46" x2="431.56" y2="166.65" gradientUnits="userSpaceOnUse"><stop offset="0" stop-color="#ffb0b0"/><stop offset="0.98" stop-color="#ffc2a9"/></linearGradient><linearGradient id="Áåçûìÿííûé_ãðàäèåíò_64-2" x1="441.31" y1="186.05" x2="441.31" y2="176.83" xlink:href="#Áåçûìÿííûé_ãðàäèåíò_64"/><linearGradient id="Áåçûìÿííûé_ãðàäèåíò_73-2" x1="401.87" y1="204.43" x2="419.02" y2="204.43" xlink:href="#Áåçûìÿííûé_ãðàäèåíò_73"/><linearGradient id="Áåçûìÿííûé_ãðàäèåíò_70-6" x1="378" y1="263.62" x2="378" y2="179.11" xlink:href="#Áåçûìÿííûé_ãðàäèåíò_70"/><linearGradient id="Áåçûìÿííûé_ãðàäèåíò_70-7" x1="191.93" y1="246.59" x2="333.28" y2="246.59" xlink:href="#Áåçûìÿííûé_ãðàäèåíò_70"/><linearGradient id="Áåçûìÿííûé_ãðàäèåíò_4" x1="316.55" y1="222.94" x2="343.56" y2="222.94" gradientUnits="userSpaceOnUse"><stop offset="0" stop-color="#ccedff"/><stop offset="1" stop-color="#755cbb"/></linearGradient><linearGradient id="Áåçûìÿííûé_ãðàäèåíò_4-2" x1="292.04" y1="270.36" x2="331.75" y2="270.36" xlink:href="#Áåçûìÿííûé_ãðàäèåíò_4"/><linearGradient id="Áåçûìÿííûé_ãðàäèåíò_4-3" x1="293.88" y1="288.31" x2="336.3" y2="288.31" xlink:href="#Áåçûìÿííûé_ãðàäèåíò_4"/><linearGradient id="Áåçûìÿííûé_ãðàäèåíò_4-4" x1="257.37" y1="243.86" x2="257.37" y2="196.25" xlink:href="#Áåçûìÿííûé_ãðàäèåíò_4"/><linearGradient id="Áåçûìÿííûé_ãðàäèåíò_4-5" x1="261.2" y1="247.86" x2="261.2" y2="211.77" xlink:href="#Áåçûìÿííûé_ãðàäèåíò_4"/><linearGradient id="Áåçûìÿííûé_ãðàäèåíò_4-6" x1="204.17" y1="201.73" x2="204.17" y2="174.46" xlink:href="#Áåçûìÿííûé_ãðàäèåíò_4"/><linearGradient id="Áåçûìÿííûé_ãðàäèåíò_4-7" x1="226.23" y1="177.72" x2="237.22" y2="177.72" xlink:href="#Áåçûìÿííûé_ãðàäèåíò_4"/><linearGradient id="Áåçûìÿííûé_ãðàäèåíò_70-8" x1="345.69" y1="243.86" x2="345.69" y2="193.32" xlink:href="#Áåçûìÿííûé_ãðàäèåíò_70"/><linearGradient id="Áåçûìÿííûé_ãðàäèåíò_70-9" x1="402.51" y1="232.99" x2="402.51" y2="206.58" xlink:href="#Áåçûìÿííûé_ãðàäèåíò_70"/><linearGradient id="Áåçûìÿííûé_ãðàäèåíò_70-10" x1="372.56" y1="231.81" x2="372.56" y2="211.62" xlink:href="#Áåçûìÿííûé_ãðàäèåíò_70"/><linearGradient id="Áåçûìÿííûé_ãðàäèåíò_4-8" x1="198.46" y1="203.47" x2="198.46" y2="195.97" xlink:href="#Áåçûìÿííûé_ãðàäèåíò_4"/><linearGradient id="Áåçûìÿííûé_ãðàäèåíò_70-11" x1="218.49" y1="226.33" x2="218.49" y2="185.35" xlink:href="#Áåçûìÿííûé_ãðàäèåíò_70"/><linearGradient id="Áåçûìÿííûé_ãðàäèåíò_4-9" x1="323.91" y1="197.48" x2="323.91" y2="166.65" xlink:href="#Áåçûìÿííûé_ãðàäèåíò_4"/><linearGradient id="Áåçûìÿííûé_ãðàäèåíò_4-10" x1="283.51" y1="193.32" x2="283.51" y2="150.76" xlink:href="#Áåçûìÿííûé_ãðàäèåíò_4"/><linearGradient id="Áåçûìÿííûé_ãðàäèåíò_25" x1="269.14" y1="201.1" x2="340.23" y2="201.1" gradientUnits="userSpaceOnUse"><stop offset="0" stop-color="#8642a0"/><stop offset="1" stop-color="#6456c0"/></linearGradient><linearGradient id="Áåçûìÿííûé_ãðàäèåíò_70-12" x1="275.27" y1="160.08" x2="321.53" y2="160.08" xlink:href="#Áåçûìÿííûé_ãðàäèåíò_70"/><linearGradient id="Áåçûìÿííûé_ãðàäèåíò_70-13" x1="394.19" y1="229.98" x2="394.19" y2="203.21" xlink:href="#Áåçûìÿííûé_ãðàäèåíò_70"/><linearGradient id="Áåçûìÿííûé_ãðàäèåíò_70-14" x1="356.35" y1="260.18" x2="356.35" y2="179.11" xlink:href="#Áåçûìÿííûé_ãðàäèåíò_70"/><linearGradient id="Áåçûìÿííûé_ãðàäèåíò_70-15" x1="269.19" y1="298.26" x2="269.19" y2="275.02" xlink:href="#Áåçûìÿííûé_ãðàäèåíò_70"/><linearGradient id="Áåçûìÿííûé_ãðàäèåíò_70-16" x1="314.34" y1="291.88" x2="314.34" y2="280.59" xlink:href="#Áåçûìÿííûé_ãðàäèåíò_70"/><linearGradient id="Áåçûìÿííûé_ãðàäèåíò_71-4" x1="313.84" y1="146.81" x2="313.84" y2="69.6" xlink:href="#Áåçûìÿííûé_ãðàäèåíò_71"/><linearGradient id="Áåçûìÿííûé_ãðàäèåíò_71-5" x1="285.06" y1="115.66" x2="285.06" y2="92.89" xlink:href="#Áåçûìÿííûé_ãðàäèåíò_71"/><linearGradient id="Áåçûìÿííûé_ãðàäèåíò_387" x1="324.57" y1="124.27" x2="325.52" y2="119.3" gradientUnits="userSpaceOnUse"><stop offset="0" stop-color="#e1616a"/><stop offset="1" stop-color="#ff8883"/></linearGradient><linearGradient id="Áåçûìÿííûé_ãðàäèåíò_48-3" x1="315.95" y1="120.46" x2="315.95" y2="70.73" xlink:href="#Áåçûìÿííûé_ãðàäèåíò_48"/><linearGradient id="Áåçûìÿííûé_ãðàäèåíò_59" x1="313.53" y1="100.09" x2="313.53" y2="90.24" gradientUnits="userSpaceOnUse"><stop offset="0" stop-color="#cf6074"/><stop offset="1" stop-color="#f37270"/></linearGradient><linearGradient id="Áåçûìÿííûé_ãðàäèåíò_184" x1="333.18" y1="103.22" x2="333.18" y2="94.65" gradientUnits="userSpaceOnUse"><stop offset="0" stop-color="#cf6074"/><stop offset="1" stop-color="#ff817f"/></linearGradient><linearGradient id="Áåçûìÿííûé_ãðàäèåíò_48-4" x1="333.99" y1="108.21" x2="333.99" y2="88.92" xlink:href="#Áåçûìÿííûé_ãðàäèåíò_48"/><linearGradient id="Áåçûìÿííûé_ãðàäèåíò_292" x1="314.87" y1="147.78" x2="314.87" y2="54.15" gradientUnits="userSpaceOnUse"><stop offset="0" stop-color="#2e33a0"/><stop offset="1" stop-color="#0665a5"/></linearGradient><linearGradient id="Áåçûìÿííûé_ãðàäèåíò_35" x1="339.47" y1="88.82" x2="339.47" y2="67.22" gradientUnits="userSpaceOnUse"><stop offset="0" stop-color="#ffeadb"/><stop offset="0.99" stop-color="#8860c7"/></linearGradient><linearGradient id="Áåçûìÿííûé_ãðàäèåíò_52" x1="310.03" y1="147.78" x2="310.03" y2="54.15" gradientUnits="userSpaceOnUse"><stop offset="0" stop-color="#ccc2db"/><stop offset="0.99" stop-color="#8860c7"/></linearGradient><linearGradient id="Áåçûìÿííûé_ãðàäèåíò_397" x1="316.31" y1="147.76" x2="316.31" y2="143.74" gradientUnits="userSpaceOnUse"><stop offset="0" stop-color="#776d7e"/><stop offset="1" stop-color="#9d68c2"/></linearGradient><linearGradient id="Áåçûìÿííûé_ãðàäèåíò_141" x1="328.11" y1="60.87" x2="328.11" y2="57.88" gradientUnits="userSpaceOnUse"><stop offset="0" stop-color="#1f77d1"/><stop offset="1" stop-color="#0686c9"/></linearGradient><linearGradient id="Áåçûìÿííûé_ãðàäèåíò_141-2" x1="309.07" y1="70.71" x2="309.07" y2="61.87" xlink:href="#Áåçûìÿííûé_ãðàäèåíò_141"/><linearGradient id="Áåçûìÿííûé_ãðàäèåíò_141-3" x1="341.1" y1="75.19" x2="341.1" y2="67.22" xlink:href="#Áåçûìÿííûé_ãðàäèåíò_141"/><linearGradient id="Áåçûìÿííûé_ãðàäèåíò_285" x1="288.37" y1="110.26" x2="278.18" y2="97.77" gradientUnits="userSpaceOnUse"><stop offset="0" stop-color="#ffeadb"/><stop offset="0.99" stop-color="#b060f4"/></linearGradient><linearGradient id="Áåçûìÿííûé_ãðàäèåíò_285-2" x1="289.44" y1="108.65" x2="284.42" y2="102.51" xlink:href="#Áåçûìÿííûé_ãðàäèåíò_285"/><linearGradient id="Áåçûìÿííûé_ãðàäèåíò_141-4" x1="308.48" y1="71.5" x2="325.75" y2="71.5" xlink:href="#Áåçûìÿííûé_ãðàäèåíò_141"/><linearGradient id="Áåçûìÿííûé_ãðàäèåíò_141-5" x1="332.84" y1="123.14" x2="338.08" y2="123.14" xlink:href="#Áåçûìÿííûé_ãðàäèåíò_141"/><linearGradient id="Áåçûìÿííûé_ãðàäèåíò_141-6" x1="326.37" y1="119.24" x2="332.02" y2="119.24" xlink:href="#Áåçûìÿííûé_ãðàäèåíò_141"/><linearGradient id="Áåçûìÿííûé_ãðàäèåíò_89" x1="368.04" y1="132.95" x2="545.1" y2="132.95" gradientUnits="userSpaceOnUse"><stop offset="0" stop-color="#9d68c2"/><stop offset="1" stop-color="#aec2ff"/></linearGradient><linearGradient id="Áåçûìÿííûé_ãðàäèåíò_85" x1="404.05" y1="199.82" x2="404.05" y2="146.42" gradientUnits="userSpaceOnUse"><stop offset="0" stop-color="#ccedff"/><stop offset="1" stop-color="#9d68c2"/></linearGradient><linearGradient id="Áåçûìÿííûé_ãðàäèåíò_85-2" x1="495.11" y1="173.78" x2="495.11" y2="150.26" xlink:href="#Áåçûìÿííûé_ãðàäèåíò_85"/><linearGradient id="Áåçûìÿííûé_ãðàäèåíò_85-3" x1="522.87" y1="173.78" x2="522.87" y2="150.26" xlink:href="#Áåçûìÿííûé_ãðàäèåíò_85"/><linearGradient id="Áåçûìÿííûé_ãðàäèåíò_85-4" x1="466.9" y1="173.78" x2="466.9" y2="150.26" xlink:href="#Áåçûìÿííûé_ãðàäèåíò_85"/><linearGradient id="Áåçûìÿííûé_ãðàäèåíò_65" x1="213.91" y1="115.99" x2="213.91" y2="91.37" gradientUnits="userSpaceOnUse"><stop offset="0" stop-color="#d93de3"/><stop offset="1" stop-color="#ff6dba"/></linearGradient><linearGradient id="Áåçûìÿííûé_ãðàäèåíò_14" x1="228.96" y1="115.99" x2="228.96" y2="91.37" gradientUnits="userSpaceOnUse"><stop offset="0" stop-color="#a242ea"/><stop offset="1" stop-color="#fe117e"/></linearGradient><linearGradient id="Áåçûìÿííûé_ãðàäèåíò_115" x1="209.64" y1="375.37" x2="222.95" y2="269.36" gradientUnits="userSpaceOnUse"><stop offset="0" stop-color="#067eff"/><stop offset="1" stop-color="#3e37a0"/></linearGradient><linearGradient id="Áåçûìÿííûé_ãðàäèåíò_302" x1="520.49" y1="113.31" x2="520.49" y2="104.37" gradientUnits="userSpaceOnUse"><stop offset="0" stop-color="#459fff"/><stop offset="1" stop-color="#a96dff"/></linearGradient><linearGradient id="Áåçûìÿííûé_ãðàäèåíò_302-2" x1="100.5" y1="218.04" x2="100.5" y2="206.92" xlink:href="#Áåçûìÿííûé_ãðàäèåíò_302"/><linearGradient id="Áåçûìÿííûé_ãðàäèåíò_322" x1="533.62" y1="113.31" x2="533.62" y2="104.37" gradientUnits="userSpaceOnUse"><stop offset="0" stop-color="#b31a8f"/><stop offset="1" stop-color="#fe117e"/></linearGradient><linearGradient id="Áåçûìÿííûé_ãðàäèåíò_322-2" x1="245.44" y1="142.73" x2="245.44" y2="136.41" xlink:href="#Áåçûìÿííûé_ãðàäèåíò_322"/><linearGradient id="Áåçûìÿííûé_ãðàäèåíò_25-2" x1="457.1" y1="282.16" x2="457.1" y2="275.84" xlink:href="#Áåçûìÿííûé_ãðàäèåíò_25"/><linearGradient id="Áåçûìÿííûé_ãðàäèåíò_25-3" x1="128.58" y1="313.33" x2="128.58" y2="307.68" xlink:href="#Áåçûìÿííûé_ãðàäèåíò_25"/><linearGradient id="Áåçûìÿííûé_ãðàäèåíò_97" x1="152.28" y1="282.77" x2="152.28" y2="236.11" gradientUnits="userSpaceOnUse"><stop offset="0" stop-color="#d906e3"/><stop offset="1" stop-color="#ff6df9"/></linearGradient><linearGradient id="Áåçûìÿííûé_ãðàäèåíò_97-2" x1="474.48" y1="348.82" x2="474.48" y2="290.45" xlink:href="#Áåçûìÿííûé_ãðàäèåíò_97"/><linearGradient id="Áåçûìÿííûé_ãðàäèåíò_206" x1="420" y1="270.98" x2="415.03" y2="228.29" gradientTransform="matrix(0.97, 0.26, -0.26, 0.97, 63.63, -54.68)" gradientUnits="userSpaceOnUse"><stop offset="0" stop-color="#1852a0"/><stop offset="1" stop-color="#067ed3"/></linearGradient><linearGradient id="Áåçûìÿííûé_ãðàäèåíò_206-2" x1="415.18" y1="271.14" x2="415.18" y2="227.4" xlink:href="#Áåçûìÿííûé_ãðàäèåíò_206"/><linearGradient id="Áåçûìÿííûé_ãðàäèåíò_107" x1="377.26" y1="285.86" x2="374.05" y2="258.25" gradientTransform="matrix(0.94, 0.33, -0.52, 1.49, 181.34, -235.91)" gradientUnits="userSpaceOnUse"><stop offset="0" stop-color="#188dc1"/><stop offset="1" stop-color="#06bfe7"/></linearGradient><linearGradient id="Áåçûìÿííûé_ãðàäèåíò_107-2" x1="428.59" y1="88.1" x2="439.92" y2="46.01" gradientTransform="matrix(1, 0, 0, 1, 0, 0)" xlink:href="#Áåçûìÿííûé_ãðàäèåíò_107"/><linearGradient id="Áåçûìÿííûé_ãðàäèåíò_206-3" x1="409.11" y1="83.24" x2="417.56" y2="51.86" gradientTransform="matrix(1, 0, 0, 1, 0, 0)" xlink:href="#Áåçûìÿííûé_ãðàäèåíò_206"/><linearGradient id="Áåçûìÿííûé_ãðàäèåíò_107-3" x1="105.68" y1="160.57" x2="113.41" y2="131.88" gradientTransform="matrix(-1, 0, 0, 1, 206.66, 0)" xlink:href="#Áåçûìÿííûé_ãðàäèåíò_107"/><linearGradient id="Áåçûìÿííûé_ãðàäèåíò_206-4" x1="92.41" y1="157.26" x2="98.17" y2="135.87" gradientTransform="matrix(-1, 0, 0, 1, 206.66, 0)" xlink:href="#Áåçûìÿííûé_ãðàäèåíò_206"/><linearGradient id="Degradado_sin_nombre_3-2" x1="-1419.86" y1="-2150.38" x2="-1364.75" y2="-2095.27" gradientTransform="translate(-2032.1 1453.7) rotate(90)" xlink:href="#Degradado_sin_nombre_3"/><linearGradient id="Degradado_sin_nombre_3-3" x1="71.95" y1="59.46" x2="132.27" y2="59.46" xlink:href="#Degradado_sin_nombre_3"/><clipPath id="clip-path-2"><path class="cls-2" d="M116.4,34.2h-1.1a.7.7,0,0,1-.7-.7V32.4a.7.7,0,0,1,.7-.7h1.1a.7.7,0,0,1,.6.7v1.1a.7.7,0,0,1-.6.7M111,31.9h-1.4a.8.8,0,0,1-.8-.8V29.7a.8.8,0,0,1,.8-.9H111a.9.9,0,0,1,.9.9v1.4A.9.9,0,0,1,111,31.9Zm3.2-6.6H112a1.4,1.4,0,0,1-1.4-1.4V21.6a1.4,1.4,0,0,1,1.4-1.4h2.2a1.4,1.4,0,0,1,1.4,1.4v2.3A1.4,1.4,0,0,1,114.2,25.3Zm-9.3,3.9h-4.3a2.7,2.7,0,0,1-2.7-2.7V22.2a2.7,2.7,0,0,1,2.7-2.7h4.3a2.7,2.7,0,0,1,2.7,2.7v4.3A2.7,2.7,0,0,1,104.9,29.2Z"/></clipPath><linearGradient id="Degradado_sin_nombre_3-5" x1="102.58" y1="31.62" x2="103.34" y2="31.62" xlink:href="#Degradado_sin_nombre_3"/><linearGradient id="Degradado_sin_nombre_3-6" x1="100.38" y1="30.38" x2="102.05" y2="30.38" xlink:href="#Degradado_sin_nombre_3"/><linearGradient id="Degradado_sin_nombre_3-7" x1="100.49" y1="32.06" x2="100.75" y2="32.06" xlink:href="#Degradado_sin_nombre_3"/><linearGradient id="Degradado_sin_nombre_3-8" x1="103.28" y1="30.09" x2="103.57" y2="30.09" xlink:href="#Degradado_sin_nombre_3"/><linearGradient id="Degradado_sin_nombre_3-9" x1="98.87" y1="30.23" x2="99.55" y2="30.23" xlink:href="#Degradado_sin_nombre_3"/><linearGradient id="Degradado_sin_nombre_3-10" x1="100.6" y1="18.34" x2="100.85" y2="18.34" xlink:href="#Degradado_sin_nombre_3"/><linearGradient id="Degradado_sin_nombre_3-11" x1="100.75" y1="16.59" x2="100.88" y2="16.59" xlink:href="#Degradado_sin_nombre_3"/><linearGradient id="Degradado_sin_nombre_3-12" x1="102.43" y1="16.66" x2="102.58" y2="16.66" xlink:href="#Degradado_sin_nombre_3"/><linearGradient id="Degradado_sin_nombre_3-13" x1="116.85" y1="12.24" x2="117.04" y2="12.24" xlink:href="#Degradado_sin_nombre_3"/><linearGradient id="Degradado_sin_nombre_3-14" x1="96.37" y1="19.37" x2="97.81" y2="19.37" xlink:href="#Degradado_sin_nombre_3"/><linearGradient id="Degradado_sin_nombre_3-15" x1="95.83" y1="29.12" x2="96.08" y2="29.12" xlink:href="#Degradado_sin_nombre_3"/><linearGradient id="Degradado_sin_nombre_3-16" x1="97.1" y1="28.65" x2="97.67" y2="28.65" xlink:href="#Degradado_sin_nombre_3"/><linearGradient id="Degradado_sin_nombre_3-17" x1="94.19" y1="23.83" x2="97.88" y2="23.83" xlink:href="#Degradado_sin_nombre_3"/><linearGradient id="Degradado_sin_nombre_3-18" x1="97.78" y1="20.65" x2="98.23" y2="20.65" xlink:href="#Degradado_sin_nombre_3"/><linearGradient id="Degradado_sin_nombre_3-19" x1="92.31" y1="37.01" x2="93.27" y2="37.01" xlink:href="#Degradado_sin_nombre_3"/><linearGradient id="Degradado_sin_nombre_3-20" x1="94.32" y1="37.37" x2="97.18" y2="37.37" xlink:href="#Degradado_sin_nombre_3"/><linearGradient id="Degradado_sin_nombre_3-21" x1="89.85" y1="31.75" x2="90.08" y2="31.75" xlink:href="#Degradado_sin_nombre_3"/><linearGradient id="Degradado_sin_nombre_3-22" x1="89.57" y1="17.81" x2="89.69" y2="17.81" xlink:href="#Degradado_sin_nombre_3"/><linearGradient id="Degradado_sin_nombre_3-23" x1="89.81" y1="16.52" x2="90.14" y2="16.52" xlink:href="#Degradado_sin_nombre_3"/><linearGradient id="Degradado_sin_nombre_3-24" x1="90.13" y1="14.03" x2="90.25" y2="14.03" xlink:href="#Degradado_sin_nombre_3"/><linearGradient id="Degradado_sin_nombre_3-25" x1="88.06" y1="35.79" x2="91.44" y2="35.79" xlink:href="#Degradado_sin_nombre_3"/><linearGradient id="Degradado_sin_nombre_3-26" x1="88.06" y1="17.34" x2="88.23" y2="17.34" xlink:href="#Degradado_sin_nombre_3"/><linearGradient id="Degradado_sin_nombre_3-27" x1="88.06" y1="13.4" x2="94.33" y2="13.4" xlink:href="#Degradado_sin_nombre_3"/><linearGradient id="Degradado_sin_nombre_3-28" x1="88.06" y1="32.9" x2="90.51" y2="32.9" xlink:href="#Degradado_sin_nombre_3"/><linearGradient id="Degradado_sin_nombre_3-29" x1="88.06" y1="30.51" x2="88.81" y2="30.51" xlink:href="#Degradado_sin_nombre_3"/><linearGradient id="Degradado_sin_nombre_3-30" x1="106.32" y1="26.25" x2="117.04" y2="26.25" xlink:href="#Degradado_sin_nombre_3"/><linearGradient id="Degradado_sin_nombre_3-31" x1="106.6" y1="16.7" x2="106.94" y2="16.7" xlink:href="#Degradado_sin_nombre_3"/><linearGradient id="Degradado_sin_nombre_3-32" x1="103.3" y1="16.97" x2="104.66" y2="16.97" xlink:href="#Degradado_sin_nombre_3"/><linearGradient id="Degradado_sin_nombre_3-33" x1="95.53" y1="11.28" x2="96.36" y2="11.28" xlink:href="#Degradado_sin_nombre_3"/><linearGradient id="Degradado_sin_nombre_41" x1="104.06" y1="120.5" x2="96.52" y2="107.44" gradientUnits="userSpaceOnUse"><stop offset="0" stop-color="#f7931e"/><stop offset="0.3" stop-color="#f7961e"/><stop offset="0.51" stop-color="#f89f1e"/><stop offset="0.71" stop-color="#f9af1f"/><stop offset="0.88" stop-color="#fac61f"/><stop offset="1" stop-color="#fbd920"/></linearGradient><linearGradient id="Degradado_sin_nombre_41-2" x1="118.25" y1="121.68" x2="112.44" y2="111.62" xlink:href="#Degradado_sin_nombre_41"/><linearGradient id="Degradado_sin_nombre_41-3" x1="131.13" y1="120.64" x2="125.95" y2="111.67" xlink:href="#Degradado_sin_nombre_41"/></defs><title>ultimo</title><g class="cls-3"><g id="illustration"><g class="cls-4"><circle class="cls-5" cx="285.3" cy="195.5" r="155" transform="translate(-54.7 259) rotate(-45)"/><path class="cls-6" d="M171.3,185.6a23.7,23.7,0,0,0-10.5-9.3l-2.4,1.1,5.3,9.6a10.7,10.7,0,0,1-3.2,5.8h0a10.7,10.7,0,0,1-6.5-1.2l-4-10.3-2.3,1.1a23.7,23.7,0,0,0,.3,14.1,27.2,27.2,0,0,0,1.2,2.5c.9,1.1,3.4,2.3,8.1,2l16.2,31a8.3,8.3,0,0,0-.4,7.8,8.5,8.5,0,0,0,11.3,4.1,8.6,8.6,0,0,0,4.1-11.3,8.4,8.4,0,0,0-6.3-4.7l-13.3-32.3c3.2-3.3,3.9-6,3.6-7.5A19.7,19.7,0,0,0,171.3,185.6Zm13.4,53.3-4.3,2-3.9-2.7.4-4.7,4.3-2,3.9,2.7Z"/><path class="cls-7" d="M172.5,188.1a23.8,23.8,0,0,0-10.5-9.2l-2.4,1.1,5.3,9.6a10.2,10.2,0,0,1-3.2,5.7h0a10.7,10.7,0,0,1-6.5-1.2l-4-10.2-2.3,1.1a23.4,23.4,0,0,0,.3,14s3.7,4.9,9.2,4.6l16.2,30.9a8.6,8.6,0,0,0-.3,7.8,8.5,8.5,0,1,0,15.3-7.2,8.2,8.2,0,0,0-6.2-4.7l-13.3-32.3C173.9,194.1,172.5,188.1,172.5,188.1Zm13.3,53.3-4.3,2-3.8-2.7.4-4.7,4.3-2,3.9,2.7Z"/><rect class="cls-8" x="148.2" y="181.8" width="2.6" height="2.78" transform="translate(-63.5 80.5) rotate(-25)"/><rect class="cls-8" x="158.9" y="176.8" width="2.6" height="2.78" transform="translate(-60.4 84.6) rotate(-25)"/><rect class="cls-8" x="180.7" y="239.8" width="4.7" height="2.78" transform="translate(-84.9 100.2) rotate(-25)"/><path class="cls-9" d="M161.9,205.9,175,231a6.4,6.4,0,0,0,5.3-2.5l-10.7-26.2A9.9,9.9,0,0,0,161.9,205.9Zm17.4,22.8a8.3,8.3,0,0,1-1.7,1.2l-1.8.5-13.1-24.6a12.6,12.6,0,0,1,3.1-2.1,13.1,13.1,0,0,1,3.2-1Z"/><path class="cls-8" d="M179.3,228.7l1-.2A5.7,5.7,0,0,1,175,231l.8-.6A7,7,0,0,0,179.3,228.7Z"/><path class="cls-10" d="M161.9,205.9h.8a11.7,11.7,0,0,1,6.3-3.1l.6-.4a7.6,7.6,0,0,0-4.2.9A8.1,8.1,0,0,0,161.9,205.9Z"/><path class="cls-11" d="M158.4,203.6a30,30,0,0,0,11.7-5.5l1.7,4.2s-1.9-1.9-6.2-.2-4.7,6-4.7,6Z"/><path class="cls-12" d="M171.8,202.3a4.8,4.8,0,0,0-2.6-.9L181.9,232l1.5-1.6Z"/><path class="cls-13" d="M171.8,202.3a5.1,5.1,0,0,0,2.5,6Z"/><path class="cls-14" d="M362.5,400h-47c-4.9-27.3-16.4-62.9-16.4-62.9-2.8-1.6-8.2.4-8.2.4L273.7,400H230.8c-2.3-38.6,18.8-82.3,18.8-82.3h0a5.5,5.5,0,0,1-.6-2.4,5.8,5.8,0,0,1,1.6-1.9l2.6-2.1,80.1-.5,1.8,1h0c1.8,1.1,4.2,2.7,4.2,3.9a5.1,5.1,0,0,1-.9,3h0C355.6,351.1,362.5,400,362.5,400Z"/><ellipse class="cls-15" cx="253.1" cy="367.9" rx="46.3" ry="17.9" transform="translate(-162.3 531.8) rotate(-77)"/><ellipse class="cls-16" cx="336.3" cy="367.5" rx="17.9" ry="46.3" transform="translate(-86.7 104.4) rotate(-15.7)"/><path class="cls-17" d="M268.2,400h-.5c5.4-32.2,19.3-59.2,19.4-59.5h.1l3.5-3.1.4.4-3.5,3.1A222.9,222.9,0,0,0,268.2,400Z"/><path class="cls-18" d="M321.9,400c-5.4-31.5-19.2-58.3-19.8-59.5l-3.2-2.8.4-.4,3.2,2.9c.1.3,14.4,27.6,19.8,59.8Z"/><path class="cls-19" d="M339.3,315.7a5.1,5.1,0,0,1-.9,3h0c-16.7,3.8-29.4,19.4-29.4,19.4,9.1,17.4,24.3,61.9,24.3,61.9H315.5c-4.9-27.3-16.4-62.9-16.4-62.9-2.8-1.6-8.2.4-8.2.4L273.7,400H262.6c4-26.2,15.7-58.1,15.7-58.1-11.5-13.5-28.7-24.2-28.7-24.2h0l-2-1.3,1.4-1.1c7.5,7.1,31.4,16.4,32.2,16.7l-30.6-18.6,2.6-2.1,80.1-.5,1.8,1-21.9,12.1Z"/><polygon class="cls-20" points="299.1 337.1 308.5 331.1 306.2 337.1 304.6 355.4 299.1 337.1"/><polygon class="cls-21" points="290.9 337.5 281.2 332 260.3 322.6 286.9 340.2 288.4 346.4 290.9 337.5"/><path class="cls-22" d="M317.7,149.6a4.2,4.2,0,0,1,.1.7c-.5,2.1-1,3.9-1.6,5.7a45.4,45.4,0,0,1-6.3,12.1,34.6,34.6,0,0,1-2.7,3.2c-14.6-4.6-21.8-18.9-24.5-26-.1,0-.1,0-.1-.1s-.9-2.4-1.1-3.1h0a6.6,6.6,0,0,0-.2-.9l.2-.4h0l.7-1.5a70.4,70.4,0,0,0,4-11.2c.7-2.6,1.1-4.6,1.3-5.7a2.8,2.8,0,0,1,.1-.8l6.8,3.5,23.4,12.5a42.7,42.7,0,0,0-.5,5.9c0,1.2,0,2.4.1,3.3s.2,2.1.3,2.7h0Z"/><path class="cls-23" d="M311.2,172.8a17.8,17.8,0,0,1-4.8,3.6h-.3a46.5,46.5,0,0,1-4.6-3.2c-6.1-4.6-16.3-13.9-19.3-26.5h0a34,34,0,0,1-.7-4.6h0v-1.3a64.5,64.5,0,0,0,5.5,10c4.1,6,10.4,12.6,17.8,12.7s9.7-4.4,11.4-8.4a21.9,21.9,0,0,0,1.3-4.6h0c.1-.3.1-.6.2-.9h0v-.4a3.2,3.2,0,0,0,.1-.7S320.3,163.8,311.2,172.8Z"/><path class="cls-24" d="M311.2,172.8a17.8,17.8,0,0,1-4.8,3.6h-.3a46.5,46.5,0,0,1-4.6-3.2c-6.1-4.6-16.3-13.9-19.3-26.5h0a34,34,0,0,1-.7-4.6h0v-1.3a64.5,64.5,0,0,0,5.5,10s4,11.1,12.8,16.6c4.4,2.7,7.7,2.3,10.1.7s4-4.4,5-6.5a18.2,18.2,0,0,0,1.3-5.6v-.9a21.9,21.9,0,0,0,1.3-4.6h0c.1-.3.1-.6.2-.9h0v-.4a3.2,3.2,0,0,0,.1-.7S320.3,163.8,311.2,172.8Z"/><path class="cls-25" d="M367.4,263.5h-.2c-.8.1-3.4-.5-6.7-3.3h-.1c-2.8-2.5-6.1-6.6-9.5-13.3-6.7-13.4-8.6-22.3-8.9-23.9v-.2L338,229c-2.6,8-7.6,41-7.6,42.4s4.5,8.3,4.4,9.2h0c-.1.9-2.1,2.7-2.6,4.8s2.2,5.7,4.1,8.9h0a12.5,12.5,0,0,1,1.7,3.6c0,1.5-4.7,8.9-4.7,8.9v4h-.1l-.2.2h-.2c-1.8,1.4-9.4,6.1-33.3,7.4-28.2,1.5-47-7.6-47-7.6l1.4-3.9s-1.3-1.1-1.4-1.7,1-1.9,1-1.9-2.8-1.5-2.8-3.4,5.7-7.8,5.5-12.8-4.6-9.5-5.1-12.3,7.3-9.9,7.3-9.9c-6.8-21.6-8.1-50.6-8.1-50.6L249,213s-8.2,18.6-15.6,27.7c-.8,1.1-1.8,2.1-2.7,3.2s-4.3,4.3-6.4,6.1c-5.1,4.5-9.8,7.4-10.9,7.2s-9.5-15.4-9.2-30.7c.2-7.3,4.6-15.5,9.2-22l1.4-2.1a120.3,120.3,0,0,1,7.9-9.5l.9-.9s-1.1-3.4-1.8-6.3v-.2h-.1a10,10,0,0,1-.4-3.8c.6-1,4.3-2.1,4.9-2.9s3.3-13.5,5.3-14.9,5.4-2.3,16.8-6.7l1.7-.7c12.7-5.1,25.2-11.2,25.2-11.2l4.8-5.9h2.2l-.7,1.5h0c.3,1.6.7,3,1.1,4.4s0,.1.1.1c6.6,20.8,23.5,27.6,23.5,27.6,11.8-8.8,11.6-22.6,11.6-22.6v-1.9l2.2.7,1.5,3.6s2.6,3.9,12.7,8.4a60.1,60.1,0,0,1,5.6,2.9c9.3,5.2,19.6,13.4,20.4,15.1a4.6,4.6,0,0,1,.3.9h0c1.1,4.3,3.3,20.3,5.4,26a13.5,13.5,0,0,0,4.8,6.6h.1a6.2,6.2,0,0,0,1.9,1,23.4,23.4,0,0,1,.4,2.6C377.5,243.6,369.2,262.2,367.4,263.5Z"/><path class="cls-26" d="M258.5,211.8l-8.2,2.7L249,213s-8.2,18.6-15.6,27.7c-.8,1.1-1.8,2.1-2.7,3.2s-4.3,4.3-6.4,6.1L218,222.9l-3.2-20.5a120.3,120.3,0,0,1,7.9-9.5l.9-.9s-1.1-3.4-1.8-6.3v-.2h-.1a10,10,0,0,1-.4-3.8c.6-1,4.3-2.1,4.9-2.9s3.3-13.5,5.3-14.9c0,0-1.3,12.3,5.7,27.8l3.4,4.8,10,8S254.4,209.5,258.5,211.8Z"/><path class="cls-27" d="M234.7,233.9c-1.8,13.2-21.3,23.3-21.3,23.3-4.4,0-9.3-7.6-13.7-17s-4.7-36.2-4.9-37.8-2.7-5-2.9-6.4,4-4.4,4-4.4h0c-.5-.9-2.9-6.1-2.7-7.1s4.8-3.3,4.8-3.3l.3,5.1s10.8-2,14.4-10.4l.7-2.5,1.8,1.2v10.9s.3,1.8.9,1.8,4.8-2.1,5.6-1.8,1.8,6.1,3,6.9,4.3,2.9,4.8,4a18.6,18.6,0,0,1,.2,4.1,45.8,45.8,0,0,0,.4,6.9C230.8,210.3,236.5,220.8,234.7,233.9Z"/><path class="cls-28" d="M413.7,222.7c-.9,1.4-5.3,4.3-6.5,5.4s0,4.9,0,4.9c-18.5,19.7-37.9,29.6-39.8,30.5h-.2c-11.7-7.8-10.7-20.7-6.8-31.6a85.5,85.5,0,0,1,10.3-19.4h.1a22.9,22.9,0,0,1,5.9-1.7,4.4,4.4,0,0,1,2.2.7c1.4.9,2.6,2.3,3.7,1.7s5.6-9.9,8.2-10.1,4.3,1.6,6,2.7,1.3.8,1.5.7,4.2-4.1,4.5-4.2,1.7.9,1.7.9l-1,1.3a34.1,34.1,0,0,0,6.7,15.2l3.5-5S414.6,221.3,413.7,222.7Z"/><path class="cls-29" d="M317.8,149.3a.4.4,0,0,0-.1.3,1.9,1.9,0,0,1-.2.8h0c-1.2,4.4-6,8.9-12.1,6.7s-19.2-29.1-19.2-29.1l1.3-5.7,29.9,24.4.3,2.3Z"/><path class="cls-30" d="M218,144.4s-1.8-10.1-1-17.6a83.1,83.1,0,0,0-.2-15.9,3.8,3.8,0,0,0-3.1,0c-1.4.8-4.5,8.5-3.1,14.6s.3,21.1.3,21.1h-2l-4.6-6.3-2.2-.6s-12.7,12-12.5,19.1l1.6,6.4,15.7-.6L217.1,153Z"/><path class="cls-31" d="M202.1,139.7a79.2,79.2,0,0,0,2.1,14.8,3.5,3.5,0,0,1-3.5,3l-.9-.9s-.5,3.1-3.4,3.4l-2.8-2.8.8,2.3a3.9,3.9,0,0,1-3.6,2.3s-4.4-3.4-4.7-7.8l4.3-3.7v-2.8l5.1-3.6v-2A11.5,11.5,0,0,1,202.1,139.7Z"/><path class="cls-32" d="M217.2,124.7a7.7,7.7,0,0,1-1.9,2.7,18,18,0,0,1-4.2,1.3l-.2,17.9h-2l-4.6-6.3s2.3,3.6,2.5,6.3l-1.8.9-1.6-5.4-.7,3.9.7,4.8a12.4,12.4,0,0,1,7.6-2.5l.7,1.4s-8.8,7.3-10.9,11.6c0,0,4.4-5.5,14.3-11.7l1-2.9,1.3-7S216.2,129.6,217.2,124.7Z"/><path class="cls-33" d="M224.6,155.8c-.8,2.5-9.4,12.7-10.4,14.9a34.6,34.6,0,0,0-1.5,5.1c-4.2,9.1-14.4,10.4-14.4,10.4l-.5-8.2s-5.5-3.2-6.4-4.9h0v-.3a67.5,67.5,0,0,1-.1-7.6l9.6-3.9c4.2-5.4,14.4-11.7,14.4-11.7l.4-2.8c-7.3-3.6-6-14.4-4.8-15.7a5.4,5.4,0,0,1,3.5-1.3s2.7,8.7,4.4,12.7S225.4,153.3,224.6,155.8Z"/><path class="cls-34" d="M195.6,141.9s1.1,9.9,4.2,14.7a24.3,24.3,0,0,1-4.3-12.7Z"/><path class="cls-34" d="M190.4,147.5s1.1,8,6,12.5c0,0-4.4-2.2-6-9.7Z"/><path class="cls-35" d="M215.6,168.6s-10.9,10.5-17.8,9.4l.5,8.2a18.1,18.1,0,0,0,15-12.9A31.1,31.1,0,0,1,215.6,168.6Z"/><path class="cls-36" d="M444.6,182.9s-9.9,18.2-21.6,23.8h-4l-9.2,13.9s-5.9-3.7-6.3-16A10.8,10.8,0,0,0,406,200s-3.2-2.6-4.1-4.5-1.2-7.6-1.9-9.9-6-7.2-7.2-7.8-6.6-1-6.6-1-.7-1.9,0-2.9,9.2-4.2,13.8-1a22.1,22.1,0,0,0,.9,3.6c.5,1.3,4.5,5.8,5.1,5.8s3.4-2.3,4.6-4.1,7.3-14.8,8.7-19.3h.1v-.4h0c1.1-3.9,7.8-11.3,11.3-13.3a2.2,2.2,0,0,1,2.3,1.5s-2.8,8.1-5.8,12.9l-1.6,2.8h0c-2.5,4.7-5.4,10.8-5.8,11.6v.2l1.6.8,4.2-4.1,4.4-4.1,10.1,10.6-1,1.2-3.2,4.1,1.6.3,3.7-4.1Z"/><path class="cls-37" d="M442.3,186.8l-3.2,4.6s-17.5-13.4-21.2-14.6-5.2-.4-5.2-.4l-3.9,5s7.2,6.4,7.8,15c0,0-2.4-10.8-10.6-14.1.7,0,3.4-2.3,4.6-4.1s7.3-14.8,8.7-19.3a5.1,5.1,0,0,0,.2,3.4c.9,1.6,5.9.1,6.2,0h0l-5.8,11.6v.2l1.6.8,4.2-4.1-2.1,5,15.6,2.7-3.2,4.1,1.6.3Z"/><path class="cls-38" d="M430.1,166.7s3-.5,5,3.4l-.4,1.3s2.9.6,5.8,5.4a16.6,16.6,0,0,1-8.8,6.7s-2.9-.9-3.4-3.3l.5-1.6-2.2,1.7s-2.7.8-3.9-3.2Z"/><path class="cls-39" d="M445.5,181.6a4.8,4.8,0,0,0-2.4-4.8l-6,6.7a3,3,0,0,0,2.7,2.6S443.9,184.7,445.5,181.6Z"/><path class="cls-40" d="M401.9,195.5A44.1,44.1,0,0,0,419,206.7l-4.4,6.6-9.1-11.6.5-1.7S402.4,197.2,401.9,195.5Z"/><path class="cls-34" d="M434.7,171.4s-3,4.8-5.9,7.2l-.5,1.6s5.6-3.8,7.7-8.2A3.9,3.9,0,0,0,434.7,171.4Z"/><path class="cls-41" d="M413.7,222.7c-.9,1.4-5.3,4.3-6.5,5.4s0,4.9,0,4.9c-18.5,19.7-37.9,29.6-39.8,30.5h-.2c-1.5.2-8.9-1.9-16.3-16.7s-8.6-22.3-8.9-23.9v-.2l1.7-2.2,2.4-27.3,1.7,5.5c6.4-7.8,12.5-19.7,12.5-19.7l.3.9h0c1.1,4.3,3.3,20.3,5.4,26a13.5,13.5,0,0,0,4.8,6.6h0c-5.9,5.4-8.8,13.2-10.3,19.4a55.7,55.7,0,0,0-1.4,10,66.5,66.5,0,0,1,6.8-17,38.9,38.9,0,0,1,7.3-8.8,60.6,60.6,0,0,1,5.8-4.6c1.4.9,2.6,2.3,3.7,1.7-7.8,11.7-7.6,34.9-.2,30.5s9-13.8,9-13.8c-1.8-11.5-1.3-24.3.1-26.8,1.7.1,6.6,3.5,6.8,3.4a39.9,39.9,0,0,0,5.9,22.4l4.2-6.4a39.7,39.7,0,0,1-5.6-20.2c.2-.1,1.7.9,1.7.9l-1,1.3a34.1,34.1,0,0,0,6.7,15.2l3.5-5S414.6,221.3,413.7,222.7Z"/><path class="cls-42" d="M333.3,306.8v4h-.1l-.2.2h-.2c-1.8,1.4-9.4,6.1-33.3,7.4-28.2,1.5-47-7.6-47-7.6l1.4-3.9s-1.3-1.1-1.4-1.7,1-1.9,1-1.9-2.8-1.5-2.8-3.4,4.6-6.7,5.4-11.3a7.6,7.6,0,0,0,.1-1.5c-.2-5-4.5-9.4-5.1-12.3h0c-.6-2.9,7.3-9.9,7.3-9.9-6.8-21.6-8.1-50.6-8.1-50.6L249,213s-8.2,18.6-15.6,27.7-18.2,16.8-20,16.5c-4.4,0-9.3-7.6-13.7-17s-4.7-36.2-4.9-37.8-2.7-5-2.9-6.4c4.8,8.1,12.3,5.7,12.3,5.7-5.4.1-8.3-10.1-8.3-10.1h0l-2.7-7.1c.3.4,6.5,7.4,12.6,3s9.4-12.9,9.4-12.9v10.9s.3,1.8.9,1.8a141.8,141.8,0,0,1-2.7,17.3c-2.9,13.1-6.7,25.8-6.7,25.8s10.4-5.7,14.1-20.1a62,62,0,0,0,1.9-17.3,48.5,48.5,0,0,0-.9-7.2v-.2h0l1,2.1,1.9,4.8c2.2,18.5-2.4,46.3-2.4,46.3,6.7-8.3,8.1-26.8,7.8-31.3-.1-2.1-.3-4.7-.4-6.9s-.2-4.1-.2-4.1l13.7,8.1-2.6-8,10,8s9,10.8,18.2,12.1,43.1.5,43.1.5-29.5,1.9-38,4.4-10.3,5.5-10.3,5.5c6.2,31.5,40.6,42.2,41.7,42.5-31.2-4.7-45.7-31.2-45.7-31.2s-.5,14.9,1.9,20.6,16.5,19.6,34.7,22.5l4.5.5c15.4.7,28.1-7.2,29.4-8h.1c-.5.7-6.8,9.6-32.2,10.5h-4.5c-23.6-1-35.6-16.7-35.6-16.7s-8.7,4.7-3.1,11.7l.2.2c1.6,1.9,5.2,4.2,9.5,6.6l.3.2c5.2,2.8,11.2,5.8,15.9,8.2h.1a49,49,0,0,1,6.5,3.8h0c1.3.9,1.6,1.5.3,1.7-6.5.8-31.4-4.7-32.4-3.2s1.2,5.5,1.2,5.5c22.8,11.3,71.7,5.7,73.2,5.5-40.9,10.5-74.3-2.8-74.3-2.8l1.1,4a146.1,146.1,0,0,0,39.7,6.8c21.5.5,34.9-5,34.9-5Z"/><path class="cls-43" d="M316.5,216.9s16.3.9,27.1,3.7L338,229A73.5,73.5,0,0,0,316.5,216.9Z"/><path class="cls-44" d="M331.7,261.7s-10.1,8.5-20.1,12.4a68.3,68.3,0,0,1-19.6,4.3s5.8,1.7,19.9-.6,18.9-9.9,18.9-9.9Z"/><path class="cls-45" d="M336.3,294.3h0c-18.8,4.9-42.6-2.1-42.4-2.9s6.5.4,21.2-2.6,19.4-7.9,19.7-8.2-2.1,2.7-2.6,4.8S334.4,291.1,336.3,294.3Z"/><path class="cls-46" d="M285.3,219.4c-16,1.6-20.4,6.1-20.4,6.1-4.5.6-14.6-11-14.6-11L249,213s-8.2,18.6-15.6,27.7c-.8,1.1-1.8,2.1-2.7,3.2l1-2.4s1.7-.8,2.2-9.9-3.8-22.4-3.8-24.3-.6-11-.6-11l13.7,8.1-2.6-8,10,8s3.9,5.9,13.8,10.8S284.1,219.5,285.3,219.4Z"/><path class="cls-47" d="M249,213l9.5-1.2a71.5,71.5,0,0,0,11.5,5.6l-6.4,9.5s2.6,13.4,9.8,21c0,0-19.3-10.8-22-19.8Z"/><path class="cls-48" d="M193.2,184.4l2.7,7.2s2.8,9.7,8.3,10.1,11-16.3,11-16.3V174.5s-5.9,12.6-12.3,14S193.2,184.4,193.2,184.4Z"/><path class="cls-49" d="M226.2,178.7s5,9.9,11,12.9c0,0-7.2-17.5-5.7-27.8C231.5,163.8,228.9,165.5,226.2,178.7Z"/><path class="cls-50" d="M346,193.3l1.7,5.5,1.7,45.1A105.3,105.3,0,0,1,342,223l1.6-2.4S346.2,203.6,346,193.3Z"/><path class="cls-51" d="M398.3,206.6s-.9,22.1,8.5,24l.4,2.4S395.1,232.5,398.3,206.6Z"/><path class="cls-52" d="M382.6,213.3s-.3.8-3.7-1.7c0,0-11.9,8.4-16.4,20.2,0,0,7.3-10.8,11.1-12s4.9,3.1,4.9,3.1S380,216.8,382.6,213.3Z"/><path class="cls-53" d="M191.9,196s4.6,8.4,13.1,5.7c0,0-5.1,3.5-10.2.7C194.8,202.4,191.6,196.9,191.9,196Z"/><path class="cls-54" d="M221.7,185.4s6.3,23.3-10,40.9a27,27,0,0,0,13-18A38.4,38.4,0,0,0,221.7,185.4Z"/><path class="cls-55" d="M333.9,166.6s-.7,10.6-5.8,18.2S313,197.5,313,197.5s12.6-4.7,18.4-11.2S333.9,166.6,333.9,166.6Z"/><path class="cls-56" d="M269.4,150.8a65.4,65.4,0,0,0,2.9,17.8c2.8,9,27.5,24.7,27.5,24.7s-25.4-10.5-30.4-20S269.4,150.8,269.4,150.8Z"/><path class="cls-57" d="M269.1,192.8v14.4s33.2-.3,70.3,2.2l.8-13A651.9,651.9,0,0,0,269.1,192.8Z"/><path class="cls-58" d="M275.3,196.1c0-.2.1-.4.3-.4l6.7.2,1.7.3a2.4,2.4,0,0,1,1.1.8,2.4,2.4,0,0,1,.6,1.1,3.9,3.9,0,0,1,.2,1.5v1.8a6.1,6.1,0,0,1-.2,1.5,3,3,0,0,1-1.8,1.8l-1.7.2h-3.6l-.8-2.1h-.1v2H275Zm2.3,6.3,4.3.2a1.8,1.8,0,0,0,1.1-.3,1.7,1.7,0,0,0,.3-1.2v-1.5a1.2,1.2,0,0,0-.2-1.1,1.6,1.6,0,0,0-1.1-.3l-4.1-.2h-.2Z"/><path class="cls-58" d="M289.5,199.9h-.1v2.7a.2.2,0,0,0,.2.2l7.6.2v2.3l-9.9-.3c-.2,0-.4-.1-.3-.3l.2-8.2c0-.3.1-.4.4-.4l9.6.3c.2,0,.3.1.3.4v2.3l-2.4.8h-.1v-1.2h-.1l-5.1-.2h-.1v1.1h4.2v1.8h-3.5Z"/><path class="cls-58" d="M306.3,199.8h-.1v-1c0-.1,0-.2-.1-.2H301a.4.4,0,0,0-.1.3v.2c0,.2,0,.3.1.4h.3l5.5.9.9.3.6.4.3.6a2.8,2.8,0,0,1,.1.9v.7c-.1.4-.1.7-.2,1a1.8,1.8,0,0,1-.5.7,2,2,0,0,1-.8.4H306l-8-.2V203l7.1.3h.4a.6.6,0,0,0,.1-.4v-.3a.4.4,0,0,0-.1-.3h-.3l-5.4-.9-.9-.2-.6-.4a.9.9,0,0,1-.3-.7,1.9,1.9,0,0,1-.1-.8v-.6a1.8,1.8,0,0,1,.6-1.5c.3-.4.9-.5,1.7-.5l7.9.2a.4.4,0,0,1,.4.4V199Z"/><path class="cls-58" d="M309.6,205.7l.3-8.9h2.5l-.2,8.9Z"/><path class="cls-58" d="M321.6,202.2v-.4a.4.4,0,0,1-.1-.3v-.2H324v4.4c0,.2-.1.4-.3.3l-6.7-.2a4,4,0,0,1-1.7-.3,1.8,1.8,0,0,1-1.1-.7,2.4,2.4,0,0,1-.6-1.1,3.9,3.9,0,0,1-.2-1.5v-1.9a5.9,5.9,0,0,1,.2-1.4,3,3,0,0,1,1.8-1.8,4.7,4.7,0,0,1,1.7-.2l6.7.2c.3,0,.4.1.4.4v1.9l-2.4.8h-.1v-.9h-5l-.5.2c-.1.2-.2.3-.2.5a1.5,1.5,0,0,0-.1.7v1.5a1.7,1.7,0,0,0,.3,1.2,1.5,1.5,0,0,0,1,.3l4.3.2c.1,0,.1-.1.1-.2Z"/><path class="cls-58" d="M329.4,197.4h.4l.2.2,3.2,6.6h.3c.2,0,.2,0,.3-.2l.2-6.7h2.3l-.3,8.6c0,.2-.1.3-.4.3h-4c-.1,0-.1-.1-.2-.3l-3.3-6.5h-.4l-.2.2-.2,6.8H325l.3-8.6c0-.2.1-.4.3-.3Z"/><path class="cls-59" d="M321.5,152.7c-.7,9.3-3.6,15.7-6.6,20.1-4.2,6-8.7,8.1-8.7,8.1a51.3,51.3,0,0,1-11.7-7.1,59.1,59.1,0,0,1-19.2-28.5,66.5,66.5,0,0,0,21.5,28.3,43.2,43.2,0,0,0,9.4,5.5v-4.6l-3.1-1.4c-11.8-6-18-18.3-20.9-26.4h0c-1.5-4.4-2.2-7.4-2.2-7.4h2.2l-.7,1.5h0c.3,1.6.7,3,1.1,4.4s0,.1.1.1c6.6,20.8,23.5,27.6,23.5,27.6,11.8-8.8,11.6-22.6,11.6-22.6v-1.9l2.2.7Z"/><path class="cls-60" d="M391.5,203.2s-3.2,10.5-.1,26.8c0,0,1.5-20.7,2.6-22.5s4.3-.9,4.3-.9A69.4,69.4,0,0,0,391.5,203.2Z"/><path class="cls-61" d="M360.4,260.2c-2.8-2.5-6.1-6.6-9.5-13.3-6.7-13.4-8.6-22.3-8.9-23.9l1.6-2.4,2.1-20.6,2-1.2a83.1,83.1,0,0,0,12.5-19.7,4.6,4.6,0,0,1,.3.9h0c1.1,4.3,3.3,20.3,5.4,26a13.5,13.5,0,0,0,4.8,6.6s-12.3,18.2-12.9,31.3S359.9,259.6,360.4,260.2Z"/><path class="cls-62" d="M287.3,298.3s-22.2-3.7-31.2-9.5h0a7.6,7.6,0,0,0,.1-1.5c-.2-5-4.5-9.4-5.1-12.3.1.3.7,1.8,3.9,4.5a71.7,71.7,0,0,0,9.5,6.6l.3.2c6.4,3.7,11.9,6.3,15.9,8.2h.1c3.6,1.7,5.9,2.8,6.5,3.8Z"/><path class="cls-63" d="M334.8,280.6c-.1.9-2.1,2.7-2.6,4.8,0,0-8.2,8.6-38.3,6,.2-.9,6.5.4,21.2-2.6S334.5,280.9,334.8,280.6Z"/><path class="cls-64" d="M339.8,164l-19.3,6.2-5.6,2.6h-8.7l-3.1.2h-1.6l-4.7.4-2.3.2-23.1-8.4-4.1-1.5-19-6.8,1.7-.7c12.7-5.1,25.2-11.2,25.2-11.2l4.8-5.9h2.2a70.4,70.4,0,0,0,4-11.2l1.3-5.7a2.8,2.8,0,0,1,.1-.8l6.8,3.5,22.9,18.4c0,1.2,0,2.4.1,3.3l.3,2.3a3.2,3.2,0,0,0,.1-.7l2.2.7,1.5,3.6s2.6,3.9,12.7,8.4A60.1,60.1,0,0,1,339.8,164Z"/><path class="cls-65" d="M325.1,146.4a31.5,31.5,0,0,1-18.9-2.8c-9.9-4.8-18.2-18.9-18.7-22.5s3.8-12.7,3.8-19.9-3.5-19.6,2.4-26.3,33.2-7.7,42.1.9c0,0,2.7,6.9,2.7,10.8,0,.9-.2,2.3-.4,3.9l-.3,1.8c-.8,4.7-1.9,10.5-1.4,13a18.3,18.3,0,0,0,.8,2.5h0c1.1,2.5,2.7,4.5,3,6.7S336.8,137.6,325.1,146.4Z"/><path class="cls-66" d="M291.2,99.1s-2.4-6.1-8.6-6.2c0,0-3.6,1.4-4.2,4.2,0,0,1.4,9.9,2.9,14.6s7,3.9,7,3.9A23.4,23.4,0,0,0,291.2,99.1Z"/><path class="cls-67" d="M314.9,119.4a5.1,5.1,0,0,1,2.9.5c.9.7,4.1,3.8,8.2,4.6s6.8-2.6,7.7-2.8,1.8,1.1,1.8,1.1a3.6,3.6,0,0,0-2.5-2.1s-.9,3.3-6.8,2.2-8.4-3.8-8.4-3.8l-.3-.5A10.7,10.7,0,0,0,314.9,119.4Z"/><path class="cls-68" d="M306.2,88.8v-.6s5.9-10.4,17.6-10.7,14.3,7.1,14.3,7.1l2.1-3.3-4.9-10-34.2-.6-8.4,6.8-1,16.4,3.7,21.8,9,4.8,2.6-2.3c-1-7.3-6.4-13.9-6.4-13.9l3.9-2.8s10.2,4.9,16,3.5c0,0,4.4-12.9,4.2-22.4C324.7,82.6,309.7,84.8,306.2,88.8Z"/><path class="cls-69" d="M305.6,89.6s.6-3.8,6.9-5.2l12.7-3.1s-1.3,4.1-3.6,5.6c0,0-7.4-.3-11.1.6S305.6,89.6,305.6,89.6Z"/><path class="cls-69" d="M338.1,84.6s-3.6,2.7-6,9.2c0,0,2.3-3,4.5-2.9a1.2,1.2,0,0,1,1.2,1.4A14.1,14.1,0,0,0,338.1,84.6Z"/><path class="cls-70" d="M308,100.1s.4-7.9,8-9.9a16.3,16.3,0,0,1,3.1,7.6S315,97.1,308,100.1Z"/><path class="cls-71" d="M330,103.2s.6-6.2,4.2-8.6c0,0,2.4,1.9,2.2,7.1C336.4,101.7,334.2,100.9,330,103.2Z"/><path class="cls-72" d="M308,100.1s2.5,3.1,9.5,3.7a11.6,11.6,0,0,0,1.2-6S312.3,97.2,308,100.1Z"/><path class="cls-72" d="M330,103.2v.9s1,2.3,4.9,2.7a11.4,11.4,0,0,0,1.3-5.1S333.8,101.1,330,103.2Z"/><path class="cls-73" d="M315.4,97.6a9.3,9.3,0,0,0-1.6,5.6s2.4.5,3.7.6a9.9,9.9,0,0,0,1.2-6A9.2,9.2,0,0,0,315.4,97.6Z"/><path class="cls-73" d="M333.6,101.8s-1,1.1-1.2,4.4a7.8,7.8,0,0,0,2.5.6,9,9,0,0,0,1.3-5.1A4.1,4.1,0,0,0,333.6,101.8Z"/><path class="cls-69" d="M314.9,103.4s-.7-4.3,1.8-5.9l2,.3a9,9,0,0,1-1.2,6Z"/><path class="cls-69" d="M334.5,101.6a18,18,0,0,0-1.3,4.8,6.3,6.3,0,0,0,1.7.4,8,8,0,0,0,1.3-5.1A3.7,3.7,0,0,0,334.5,101.6Z"/><path class="cls-74" d="M308,100.1s4.6-2.7,12.5-1.2l-1.4-1.1A13.4,13.4,0,0,0,308,100.1Z"/><path class="cls-74" d="M330,103.2a12.1,12.1,0,0,1,8-.9l-1.8-1.3S333.3,100.5,330,103.2Z"/><path class="cls-13" d="M313,100.1a2.6,2.6,0,0,1,2.4.9A2.3,2.3,0,0,1,313,100.1Z"/><path class="cls-13" d="M331.7,103.8s2-.4,2.6.5S333.3,105,331.7,103.8Z"/><path class="cls-75" d="M308.5,100.6a18.6,18.6,0,0,0,9.3,4.4l.2-2.1-.5.9S311.9,103.4,308.5,100.6Z"/><path class="cls-75" d="M330,104.1s.6,2.3,5.3,3.4v-1.1l-.3.4S331.6,106.3,330,104.1Z"/><path class="cls-76" d="M320.5,113.4a16.2,16.2,0,0,1,5,0c3.2.3,6.9,1.2,8.8,0,0,0-2.6,2.6-4.9,3s-5.7-1.6-5.7-1.6h-1.5A5,5,0,0,1,320.5,113.4Z"/><path class="cls-77" d="M322.4,114.8a2.5,2.5,0,0,1,1.4-.4,3.6,3.6,0,0,1,1.4,1.1A7.2,7.2,0,0,0,322.4,114.8Z"/><path class="cls-78" d="M334.3,113.4c.9-.9-3.5-8.6-5.6-8.9s-4,8.7-4,8.7l5.7.8C333.2,114.3,334.3,113.4,334.3,113.4Z"/><path class="cls-79" d="M337.5,88.9c-1.2-.1-5.4,4.9-5.4,4.9s-2.6,8.3-2.1,10.7,6.9,3.7,6.9,3.7l.3-.4h0a18.3,18.3,0,0,1-.8-2.5c-.5-2.5.6-8.3,1.4-13,0,0,.2-.9.3-1.8S338,89,337.5,88.9Z"/><path class="cls-80" d="M337.3,122.3c-1.4-2.8-.5-4.3-12.1-5.8-16.3-2.1-17.7,2.9-20.5,2.1h-.4c-3-1.2-10.1-8.2-10.2-17.6s6.3-16.6,6.3-16.6c-2.4-2-3.3-7.8-.7-10.3s6.9-1.9,17.6-.7,10.7.5,10.7.5c3.4.8,5.3,4,5.9,5a1,1,0,0,1,.1.4l1.4-1.3a17.2,17.2,0,0,1,2.9,10.9s5.9-11.9,5.2-13.6-4.6-7.7-4.8-8h0s-1-9.1-3.8-9.1-15,2.8-15,2.8a16.7,16.7,0,0,0,1.2-6.8H321c-3.9,3.6-7.8,3.9-13.3,6.5a13.3,13.3,0,0,0-5.1,3.7l-.4.4-.4.5-1.2,1.5h-.1l-1.6,1.5c-3.6,2.9-11.5,4.9-12.5,8s1.2,7.3,2.4,11.6a24.4,24.4,0,0,1,.6,8.2,16.6,16.6,0,0,1,2.5,12c-1.1,6.4-3.5,7.4-3.5,7.4a10.2,10.2,0,0,0-.9,6.8c3.5,13.9,17.9,22.2,17.9,22.2,12.9,4.8,21.4,2.7,21.4,2.7h0c9.4-6.1,12.6-26.3,12.7-27.2S337.6,123,337.3,122.3Zm-5.8,12.8c-2.3-.3-2.8-6.1-3.5-6.8s-4.9-.5-4.9-.5-3.8,4.3-5.3,4.4-9.6-3.1-7.8-8,7.8-5.6,7.8-5.6a14.8,14.8,0,0,0,7.9,3c4.7.3,6.5-.6,7-.8s3.6,1.1,3.6,5.4S333.8,135.5,331.5,135.1Z"/><path class="cls-81" d="M330.9,106.2s4.1,5.1,3.7,7-5.2,3.2-5.2,3.2,3.8-1.3,4.6-3.2A25.7,25.7,0,0,0,330.9,106.2Z"/><path class="cls-82" d="M338.3,88.8a17.2,17.2,0,0,0-2.9-10.9,28.4,28.4,0,0,0,3.3-10.7h0a34,34,0,0,1,1.5,7.1l3.3.9C344.2,76.9,338.3,88.8,338.3,88.8Z"/><path class="cls-83" d="M333.9,78.8c-.6-1-2.5-4.2-5.9-5,0,0,0,.6-10.7-.5s-15.1-1.7-17.6.7-1.7,8.3.7,10.3c0,0-6.5,6.9-6.3,16.6s7.2,16.4,10.2,17.6v1s.5,21.5,5.8,23.2,16,.9,17,1.9-.1,2.6-.2,2.7h0s-8.5,2.1-21.4-2.7c0,0-14.4-8.3-17.9-22.2a10.2,10.2,0,0,1,.9-6.8s2.4-1,3.5-7.4a16.6,16.6,0,0,0-2.5-12,24.4,24.4,0,0,0-.6-8.2c-1.2-4.3-3.3-8.6-2.4-11.6a13.8,13.8,0,0,0,10.1-2.3s1-1.4,5.7-2.2,23.6,1.2,23.6,1.2a16.6,16.6,0,0,0-5.9-2.7c-3.8-1-16.6.2-18,.3,1.5-.3,16-2.8,17.7-2.3s8.1,3.5,8.1,3.5c-.6-2.9-6.3-9.9-6.3-9.9a84.6,84.6,0,0,0-13.1,1.2,16.2,16.2,0,0,0-7.7,3.6l1.2-1.5.4-.5.4-.4,1.8-.3,9.1-3.7c3.1-1.6,7-5.7,7.5-6.2h.1a16.7,16.7,0,0,1-1.2,6.8c7.7-1,10.4-.5,10.4-.5C333.8,65.4,333.9,78.8,333.9,78.8Z"/><path class="cls-84" d="M305.4,144.6a49.3,49.3,0,0,1,11.9-.8c7.1.3,11.3.3,9.5,3.5C326.8,147.3,317.8,149.4,305.4,144.6Z"/><path class="cls-85" d="M330.3,60.4s4.3-1.7,6-1.4a3.6,3.6,0,0,0-1.4-1.1c-.7-.2-15,3-15,3S328.8,59.8,330.3,60.4Z"/><path class="cls-86" d="M321.4,62s-.3,4.7-1.8,6.4l-17.7,2.3-5.2-.9a14,14,0,0,0,4.2-3.4C303.1,63.8,314.7,61.3,321.4,62Z"/><path class="cls-87" d="M338.7,67.2a41.5,41.5,0,0,1,1.5,7.1l3.3.9A24.3,24.3,0,0,0,338.7,67.2Z"/><path class="cls-88" d="M290.5,107.5s-1.3-6-4.3-8.9a7,7,0,0,0-6.5-2s.9,11,1.9,13.7,2.5,3.4,2.5,3.4a8.4,8.4,0,0,1-2.4-5.5c-.3-3.7-.4-8.8.4-9.4s4.1,1.8,4.1,1.8a11.2,11.2,0,0,0-1.7,4.5c-.6,3.2,1.7,5.6,2.6,5.6s-.1-3.8,0-4.9S289.2,105,290.5,107.5Z"/><path class="cls-89" d="M287.4,100.1a7.3,7.3,0,0,0-2.9,6.6c.3,4.5,2.9,4.3,2.9,3.4s-.5-3.4-.2-4.7,2.4-.8,2.4-.8A25.1,25.1,0,0,0,287.4,100.1Z"/><path class="cls-90" d="M339.5,120.1s-4.1,18.8-12.7,27.2C326.8,147.3,336.6,143.5,339.5,120.1Z"/><path class="cls-90" d="M334.9,57.9s2.2,1.7,2.6,7.6-2.1,12.4-2.1,12.4,3.3-4.9,3.6-10.2S336.6,58.6,334.9,57.9Z"/><path class="cls-91" d="M308.5,70.2a47.9,47.9,0,0,0,10.6,2.3l6.7.6a13.5,13.5,0,0,0-7-2.9A51.9,51.9,0,0,0,308.5,70.2Z"/><path class="cls-92" d="M332.9,120.5s2.4,0,3.4,3a27.2,27.2,0,0,1,.9,4.5l.9-3.3s-1.1-4.2-2.3-5.2-2.3-1.4-3-1.2Z"/><path class="cls-93" d="M326.4,117.4l.4,3.6a12.4,12.4,0,0,0,4.9-.5l.3-2.2A25.3,25.3,0,0,0,326.4,117.4Z"/><path class="cls-90" d="M339.8,164s17.2,12.5,19.5,16.9,3.1,17.9,6.1,23.7c0,0-2-9.6-3.5-17.1s-1.1-7.6-1.9-9.5S346.3,167.2,339.8,164Z"/><path class="cls-90" d="M336.7,234s-8.3,35.5-7.9,37.9,5.7,7.3,6,8.7-4.1,5.5-3.9,6.7,7.2,8.9,7,11.3c-.1.7-4.6,8.2-4.6,8.2s5.1-7.4,5.4-8.5-6.3-11.1-6.5-12.1c-.5-2.6,3.3-4.5,3.4-6.2s-5.1-5.8-5.2-8.6S336.7,234,336.7,234Z"/><path class="cls-90" d="M338.4,318.7s18,40.7,24.1,81.3C362.5,400,361.5,360.3,338.4,318.7Z"/><path class="cls-78" d="M224.6,155.8s-4.7-1-6.6-5-.6-10-.6-10a102.8,102.8,0,0,0,5.4,9.4C224.6,152.6,225.1,155.3,224.6,155.8Z"/><path class="cls-94" d="M367.9,134.6l3.2,91.8a6.7,6.7,0,0,0,6.8,6.5H536a6.8,6.8,0,0,0,6.8-6.6l2.2-92.8a6.9,6.9,0,0,0-6.8-7l-163.6,1.1A6.8,6.8,0,0,0,367.9,134.6Z"/><path class="cls-95" d="M536,233.2H377.9a7,7,0,0,1-7-6.8l-3.3-91.8a7.4,7.4,0,0,1,2-5.1,6.7,6.7,0,0,1,5-2.1l163.6-1.1a6.7,6.7,0,0,1,5,2.1,6.6,6.6,0,0,1,2,5.1L543,226.3A6.9,6.9,0,0,1,536,233.2Zm2.2-106.4h0l-163.6,1.1a6.1,6.1,0,0,0-4.6,2,6.3,6.3,0,0,0-1.9,4.7l3.3,91.8a6.5,6.5,0,0,0,6.5,6.3H536a6.6,6.6,0,0,0,6.5-6.4l2.2-92.8a6.6,6.6,0,0,0-1.8-4.8A6.8,6.8,0,0,0,538.2,126.8Z"/><path class="cls-96" d="M368.1,139.3H544.8l.3-4.9a7.5,7.5,0,0,0-7.5-7.8l-163.5,1.3a6.1,6.1,0,0,0-6.1,6.2Z"/><polygon class="cls-97" points="377 146.7 377 199.8 431.1 199.8 431.1 146.4 377 146.7"/><rect class="cls-98" x="483.4" y="150.3" width="23.5" height="23.52"/><rect class="cls-99" x="511.1" y="150.3" width="23.5" height="23.52"/><rect class="cls-100" x="455.1" y="150.3" width="23.5" height="23.52"/><rect class="cls-101" x="474.5" y="187.5" width="60.2" height="5.63"/><rect class="cls-101" x="459.4" y="196.1" width="75.2" height="1.74"/><rect class="cls-101" x="460.1" y="176.8" width="14.4" height="1.74"/><rect class="cls-101" x="487.9" y="176.8" width="14.4" height="1.74"/><rect class="cls-101" x="515.7" y="176.8" width="14.4" height="1.74"/><rect class="cls-101" x="455.1" y="198.9" width="24.2" height="1.74"/><rect class="cls-101" x="459.4" y="201.7" width="75.2" height="1.74"/><rect class="cls-101" x="455.1" y="204.5" width="79.5" height="1.74"/><rect class="cls-101" x="455.1" y="207.3" width="79.5" height="1.74"/><rect class="cls-101" x="459.4" y="218.6" width="75.2" height="1.74"/><rect class="cls-101" x="455.1" y="221.4" width="79.5" height="1.74"/><rect class="cls-101" x="455.1" y="224.2" width="79.5" height="1.74"/><rect class="cls-101" x="455.1" y="210.1" width="76.3" height="1.74"/><rect class="cls-101" x="459.4" y="212.9" width="75.2" height="1.74"/><rect class="cls-101" x="455.1" y="215.7" width="64.4" height="1.74"/><g class="cls-102"><path class="cls-103" d="M392.2,189.2a15.4,15.4,0,1,1,15.4-15.4A15.4,15.4,0,0,1,392.2,189.2Zm0-29.8a14.4,14.4,0,1,0,14.4,14.4A14.4,14.4,0,0,0,392.2,159.4Z"/></g><circle class="cls-13" cx="392.2" cy="173.8" r="8.4"/><g class="cls-102"><path class="cls-103" d="M431.1,161.8a15.4,15.4,0,1,1,15.4-15.4A15.4,15.4,0,0,1,431.1,161.8Zm0-29.8a14.4,14.4,0,1,0,14.4,14.4A14.5,14.5,0,0,0,431.1,132Z"/></g><circle class="cls-13" cx="431.1" cy="146.4" r="7.9" transform="matrix(0.16, -0.99, 0.99, 0.16, 219.44, 549.51)"/><g class="cls-102"><polygon class="cls-13" points="374.3 132.1 375.4 130.4 381.5 135.7 380.6 137 374.3 132.1"/><polygon class="cls-13" points="381.7 132.1 380.6 130.4 374.5 135.7 375.4 137 381.7 132.1"/></g><rect class="cls-13" x="486.1" y="131.5" width="54.4" height="2.73"/><polygon class="cls-104" points="199.6 92.1 199.6 115.7 227.8 116 228.2 91.4 199.6 92.1"/><polygon class="cls-105" points="228.2 91.4 230.1 94.5 229.2 116 227.8 116 228.2 91.4"/><polygon class="cls-13" points="204.6 100.1 207.2 96.3 221.4 108.2 219.2 111 204.6 100.1"/><polygon class="cls-13" points="221.7 100.1 219.1 96.3 205 108.2 207.2 111 221.7 100.1"/><path class="cls-106" d="M265.5,370.2H168.8a8,8,0,0,1-7.9-7.8l-1.8-79.3A8,8,0,0,1,167,275H267.7a8,8,0,0,1,7.9,8.2l-2.2,79.3A7.9,7.9,0,0,1,265.5,370.2Z"/><path class="cls-107" d="M265.5,370.4H168.8a8.2,8.2,0,0,1-8.1-8l-1.9-79.3a8.2,8.2,0,0,1,8.2-8.3H267.7a7.9,7.9,0,0,1,5.8,2.5,8.2,8.2,0,0,1,2.4,5.9l-2.2,79.3A8.1,8.1,0,0,1,265.5,370.4ZM167,275.3a7.6,7.6,0,0,0-5.5,2.3,8,8,0,0,0-2.2,5.5l1.9,79.3a7.6,7.6,0,0,0,7.6,7.5h96.7a7.6,7.6,0,0,0,7.7-7.4l2.2-79.3a8.2,8.2,0,0,0-2.2-5.6,7.6,7.6,0,0,0-5.5-2.3Z"/><rect class="cls-13" x="185.2" y="291.3" width="50.8" height="2.18"/><rect class="cls-13" x="185.2" y="296.6" width="25.4" height="2.18"/><rect class="cls-13" x="185.2" y="301" width="25.4" height="2.18"/><rect class="cls-13" x="213.4" y="301" width="20.2" height="2.18"/><rect class="cls-13" x="185.2" y="305.4" width="41" height="2.18"/><rect class="cls-13" x="185.2" y="309.8" width="14.6" height="2.18"/><rect class="cls-13" x="202.8" y="323.1" width="25.2" height="2.18"/><rect class="cls-13" x="185.2" y="314.2" width="45.7" height="2.18"/><rect class="cls-13" x="185.2" y="318.7" width="35.2" height="2.18"/><rect class="cls-13" x="185.2" y="323.1" width="16.5" height="2.18"/><rect class="cls-13" x="185.2" y="327.5" width="25.4" height="2.18"/><rect class="cls-13" x="185.2" y="331.9" width="7.3" height="2.18"/><rect class="cls-13" x="195.5" y="331.9" width="26.5" height="2.18"/><rect class="cls-13" x="202.8" y="336.2" width="25.2" height="2.18"/><rect class="cls-13" x="185.2" y="336.2" width="16.5" height="2.18"/><rect class="cls-13" x="185.2" y="340.6" width="25.4" height="2.18"/><rect class="cls-13" x="185.2" y="345.1" width="7.3" height="2.18"/><rect class="cls-13" x="195.5" y="345.1" width="26.5" height="2.18"/><path class="cls-108" d="M525,108.8a4.5,4.5,0,1,1-4.5-4.4A4.5,4.5,0,0,1,525,108.8Z"/><path class="cls-109" d="M106.1,212.5a5.6,5.6,0,1,1-5.6-5.6A5.6,5.6,0,0,1,106.1,212.5Z"/><circle class="cls-110" cx="533.6" cy="108.8" r="4.5"/><circle class="cls-111" cx="245.4" cy="139.6" r="3.2"/><circle class="cls-112" cx="457.1" cy="279" r="3.2"/><circle class="cls-113" cx="128.6" cy="310.5" r="2.8"/><path class="cls-114" d="M176.7,282.8H127.9a7.2,7.2,0,0,1-7.2-7.1l-1.1-32.1a7.2,7.2,0,0,1,7.3-7.5h50.8a7.3,7.3,0,0,1,7.3,7.5l-1,32.1A7.3,7.3,0,0,1,176.7,282.8Z"/><path class="cls-115" d="M176.7,283H127.9a7.5,7.5,0,0,1-7.5-7.3l-1.1-32.1a7.5,7.5,0,0,1,7.6-7.7h50.8a7.6,7.6,0,0,1,5.4,2.2,7.2,7.2,0,0,1,2.1,5.5l-.9,32.1A7.6,7.6,0,0,1,176.7,283Zm-49.8-46.6a6.8,6.8,0,0,0-5.1,2.1,7.4,7.4,0,0,0-2,5.1l1.1,32.1a7,7,0,0,0,7,6.8h48.8a7.1,7.1,0,0,0,7.1-6.8l.9-32.1a6.9,6.9,0,0,0-1.9-5.1,7.1,7.1,0,0,0-5.1-2.1Z"/><polygon class="cls-13" points="140.9 247.6 128.9 261.6 141.2 272 141.2 266.6 134.1 260.5 140.7 253 140.9 247.6"/><polygon class="cls-13" points="162.1 248.3 174.1 262.2 161.9 272.6 161.9 267.2 169 261.1 161.1 252.8 162.1 248.3"/><polygon class="cls-13" points="143.6 272 154.1 248.9 159 248.9 147.1 272 143.6 272"/><path class="cls-116" d="M505.1,348.8H444a9.1,9.1,0,0,1-9.1-8.8l-1.3-40.1a9.1,9.1,0,0,1,9.1-9.5h63.6a9.1,9.1,0,0,1,9.1,9.4L514.2,340A9.1,9.1,0,0,1,505.1,348.8Z"/><path class="cls-115" d="M505.1,349.1H444a9.2,9.2,0,0,1-9.3-9.1l-1.4-40.1a9.3,9.3,0,0,1,2.6-6.8,9.2,9.2,0,0,1,6.8-2.9h63.6A9.5,9.5,0,0,1,513,293a9.3,9.3,0,0,1,2.6,6.8L514.4,340A9.2,9.2,0,0,1,505.1,349.1Zm-62.4-58.4a8.9,8.9,0,0,0-6.4,2.7,8.6,8.6,0,0,0-2.5,6.5l1.4,40.1a8.8,8.8,0,0,0,8.8,8.6h61.1a8.8,8.8,0,0,0,8.8-8.6l1.2-40.2a8.8,8.8,0,0,0-2.4-6.4,9.1,9.1,0,0,0-6.4-2.7Z"/><rect class="cls-101" x="445.8" y="296.9" width="55.9" height="33.21"/><polygon class="cls-13" points="468.8 305.2 468.8 321.9 483.1 312.7 468.8 305.2"/><rect class="cls-101" x="445.8" y="336.2" width="55.9" height="3.04"/><rect class="cls-13" x="445.8" y="336.2" width="14.5" height="3.04"/><path class="cls-117" d="M404.8,286.4l-2.9,8.4C403.5,290.1,405.8,287.2,404.8,286.4Zm-2.9,8.4-2.9,8.3C399.7,302.9,400.3,299.4,401.9,294.8Zm2.9-8.4-2.9,8.4C403.5,290.1,405.8,287.2,404.8,286.4Zm-2.9,8.4-2.9,8.3C399.7,302.9,400.3,299.4,401.9,294.8Zm8.4,7.2,2.9,1.6,3-8.3-3.3-.6a2.9,2.9,0,0,0,.2-.9,31.9,31.9,0,0,0,.3-4.2l3.4-2.1-1.6-7.4-3.2,3.1a14.6,14.6,0,0,0-1.7-2.4l-.6-.6,2-4.6-5.3-1.7h0l-1.3,4.6a8,8,0,0,0-3.6.9l-.6-4.4-5.9,4.4,1.4,3.9a20.9,20.9,0,0,0-2.9,4.2l-2.9-1.6-3,8.4,3.3.5a23.2,23.2,0,0,0-.5,5.1l-3.4,2.2,1.6,7.3,3.2-3.1a10,10,0,0,0,2.3,3l-2,4.6,5.3,2.1.8-3,.5-2a8,8,0,0,0,3.6-.9l.6,4.5,5.9-4.5-1.3-3.9a26.2,26.2,0,0,0,2.3-3.2Zm-8.4-7.2c-1.6,4.6,0,9.3-2.9,8.3s-4-5.6-2.4-10.2,5.3-7.5,8.2-6.5S403.5,290.1,401.9,294.8Zm2.9-8.4-2.9,8.4C403.5,290.1,405.8,287.2,404.8,286.4Zm-2.9,8.4-2.9,8.3C399.7,302.9,400.3,299.4,401.9,294.8Z"/><path class="cls-118" d="M413.2,303.6l3-8.3-3.1-1.5-.5-.3.3-4.6,3.5-1.7-1.2-7.1-7.5-2.5,1.4,3.4,2.6-5.4-5.3-1.7-2.2-.8-5.3-2-1,3.6-4.6-2.2-5.9,4.5,1.8,4.8L383.7,297,381,307l5.2.5-1.7,4,5.3,2,7.6,2.5-1.3-2.4-.7-1.5,2.8.9,4.7,1.6,5.9-4.5-3.6-4.3,4.6-2.8Zm-16.6-10.7c1.6-4.6,5.3-7.5,8.2-6.5l-2.9,8.4-2.9,8.3C396.1,302.1,395,297.5,396.6,292.9Z"/><path class="cls-119" d="M405.6,301.1l3.1-8.3-3.3-.6a21.5,21.5,0,0,0,.4-5l3.5-2.2-1.6-7.4-3.3,3.2a9.7,9.7,0,0,0-2.2-3l2-4.7-5.3-2-1.4,5a9.4,9.4,0,0,0-3.6.8l-.6-4.4-5.9,4.5,1.4,3.9a22.2,22.2,0,0,0-2.9,4.2l-2.8-1.6-3.1,8.3,3.3.6a21.5,21.5,0,0,0-.4,5l-3.5,2.2L381,307l3.3-3.2a8.6,8.6,0,0,0,2.3,3l-2.1,4.7,5.3,2,1.4-5a9.4,9.4,0,0,0,3.6-.8l.6,4.4,5.9-4.5-1.4-3.9a22.2,22.2,0,0,0,2.9-4.2Zm-14.2-.5c-2.9-1-4-5.5-2.3-10.2s5.3-7.5,8.2-6.4,4,5.6,2.4,10.2S394.4,301.7,391.4,300.6Z"/><polygon class="cls-120" points="416.8 287.5 409.3 285 405.8 287.2 413.4 289.6 416.8 287.5"/><polygon class="cls-121" points="408.8 310.1 401.3 307.6 399.9 303.7 407.5 306.2 408.8 310.1"/><polygon class="cls-120" points="402.2 277.8 406.3 279 407.7 277.6 410.4 278.5 411.7 275.6 404.2 273.1 402.2 277.8"/><path class="cls-120" d="M391.2,308.5l3.9,1.7-.3-2.5A6.9,6.9,0,0,1,391.2,308.5Z"/><path class="cls-120" d="M391.8,285.9l6.6,3.5a11.6,11.6,0,0,1,1.7-1.8S398.4,280.3,391.8,285.9Z"/><polygon class="cls-122" points="239 37 245.4 49.8 241.2 51.8 235.2 40 239 37"/><polygon class="cls-123" points="94.6 336.3 100.5 342.8 102.8 340.1 97.2 334 94.6 336.3"/><polygon class="cls-124" points="396.4 115.4 390.4 119 388 114.5 394.5 110.6 396.4 115.4"/><polygon class="cls-124" points="425.8 345.1 417.2 351.2 414.8 346.6 423.2 341.8 425.8 345.1"/><polygon class="cls-125" points="414.5 84.3 413 50.6 457.1 50.6 455.3 84.2 414.5 84.3"/><polygon class="cls-126" points="413 50.6 411.7 52.6 413 84.3 414.5 84.3 413 50.6"/><polygon class="cls-13" points="427.7 57.4 420.7 56.6 421.7 79.7 427.7 79.1 427.7 76.7 424.2 76.8 423.8 59 427.7 59.1 427.7 57.4"/><polygon class="cls-13" points="441.8 57.4 448.7 56.6 447.8 79.7 441.8 79.1 441.8 76.7 445.3 76.8 445.7 59 441.8 59.1 441.8 57.4"/><polygon class="cls-127" points="110.6 158 111.6 135 81.5 135 82.8 157.9 110.6 158"/><polygon class="cls-128" points="111.6 135 112.5 136.4 111.6 158 110.6 158 111.6 135"/><path class="cls-13" d="M100,139.7a17.6,17.6,0,0,1,3.9.1c.6.3-.2,5.6-.2,5.6l1.3,1.2-1.2,1.2s.1,5.5-.7,5.9-3.4,0-3.4,0v-1.3a7.8,7.8,0,0,0,2.5-.2c.4-.3.3-5,.3-5l.6-.7-.6-.7s.1-3.4.1-4.3-2.6-.6-2.6-.6Z"/><path class="cls-13" d="M92.5,139.7a17.6,17.6,0,0,0-3.9.1c-.6.3.1,5.6.1,5.6l-1.3,1.2,1.3,1.2s-.1,5.5.7,5.9,3.4,0,3.4,0v-1.3s-2.2.1-2.5-.2-.4-5-.4-5l-.5-.7.5-.7s-.1-3.4,0-4.3,2.6-.6,2.6-.6Z"/><path class="cls-95" d="M364.1,87.3l-7.4-19.2,19.1,4Zm-6.6-18.6,6.7,17.6,10.7-13.9Z"/><rect class="cls-95" x="414.4" y="355.7" width="10.9" height="0.5" transform="matrix(0.59, -0.81, 0.81, 0.59, -115.44, 484.18)"/><polygon class="cls-95" points="356.2 279.2 349.2 270.5 349.6 270.2 356.5 278.8 356.2 279.2"/><polygon class="cls-95" points="141.8 339.9 128 329.8 128.3 329.4 142.1 339.5 141.8 339.9"/><rect class="cls-95" x="126.5" y="334.4" width="17.1" height="0.5" transform="translate(-213 239.3) rotate(-52.7)"/><rect class="cls-95" x="114.8" y="184.7" width="0.5" height="10.14" transform="translate(-106.5 203.4) rotate(-62.3)"/><polygon class="cls-95" points="464.3 71.4 463.9 71 474.3 59.2 474.7 59.5 464.3 71.4"/><rect class="cls-95" x="264.7" y="99.6" width="0.5" height="10.41" transform="translate(-18.9 129) rotate(-26.4)"/><rect class="cls-95" x="187.4" y="261.7" width="15.5" height="0.5" transform="translate(-122.6 186.2) rotate(-39.9)"/></g><path class="cls-129" d="M92.6,99.6a40.1,40.1,0,1,1,0-80.2h2.9v12H92.3l-3,.2A26.2,26.2,0,0,0,83,33.1a32.6,32.6,0,0,0-6.2,3.1l-1.9,1.5a34.2,34.2,0,0,0-4.3,4.2l-1.5,2a27.2,27.2,0,0,0-3,6.2,26.5,26.5,0,0,0-1.4,6.2,17.3,17.3,0,0,0-.3,3.2,15.3,15.3,0,0,0,.3,3,24.4,24.4,0,0,0,1.4,6.2,28.1,28.1,0,0,0,3,6.3l1.5,1.9a34.9,34.9,0,0,0,4.3,4.3l1.9,1.4A27.7,27.7,0,0,0,83,85.7a26.3,26.3,0,0,0,6.3,1.5h6.2a24.8,24.8,0,0,0,6.1-1.5,22.5,22.5,0,0,0,6.2-3.1,9,9,0,0,0,2-1.4,29.1,29.1,0,0,0,4.3-4.3l1.5-1.9a28.1,28.1,0,0,0,3-6.3,20.9,20.9,0,0,0,1.5-6.2c.1-1,.2-2,.2-3s-.1-2.1-.2-3.2a22.5,22.5,0,0,0-1.5-6.2h13.1a41.5,41.5,0,0,1,1.1,9.3A40.3,40.3,0,0,1,92.6,99.6Z"/><path class="cls-130" d="M92.3,81.2a14.5,14.5,0,0,1-3-.3A22.8,22.8,0,0,1,83,79.1,26.4,26.4,0,0,1,77.2,75l-.4-.4a21.4,21.4,0,0,1-4.1-5.9,17.9,17.9,0,0,1-1.8-6.2,15.3,15.3,0,0,1-.3-3,17.3,17.3,0,0,1,.3-3.2,19.2,19.2,0,0,1,1.8-6.2,27.1,27.1,0,0,1,4.1-5.9q.3-.2.3-.3A24,24,0,0,1,83,39.8a22.9,22.9,0,0,1,6.3-1.9,14.6,14.6,0,0,1,3-.2h34a40.3,40.3,0,0,1,5.4,12.4H92.3a9.9,9.9,0,0,0-3,.5,9.5,9.5,0,0,0-5.7,5.7,8.3,8.3,0,0,0-.6,3.2,10.5,10.5,0,0,0,.5,3,9.4,9.4,0,0,0,5.8,5.7,9.9,9.9,0,0,0,3,.5,9.5,9.5,0,0,0,8.8-6.2,7.9,7.9,0,0,0,.5-3V56.3h12.3c.1,1.1.2,2.1.2,3.2s-.1,2-.2,3a20.4,20.4,0,0,1-1.9,6.2,16.7,16.7,0,0,1-4.2,5.9c0,.2-.1.3-.3.4a23,23,0,0,1-5.9,4.1,19.7,19.7,0,0,1-6.1,1.8A16.6,16.6,0,0,1,92.3,81.2Z"/><path class="cls-2" d="M116.4,34.2h-1.1a.7.7,0,0,1-.7-.7V32.4a.7.7,0,0,1,.7-.7h1.1a.7.7,0,0,1,.6.7v1.1a.7.7,0,0,1-.6.7M111,31.9h-1.4a.8.8,0,0,1-.8-.8V29.7a.8.8,0,0,1,.8-.9H111a.9.9,0,0,1,.9.9v1.4A.9.9,0,0,1,111,31.9Zm3.2-6.6H112a1.4,1.4,0,0,1-1.4-1.4V21.6a1.4,1.4,0,0,1,1.4-1.4h2.2a1.4,1.4,0,0,1,1.4,1.4v2.3A1.4,1.4,0,0,1,114.2,25.3Zm-9.3,3.9h-4.3a2.7,2.7,0,0,1-2.7-2.7V22.2a2.7,2.7,0,0,1,2.7-2.7h4.3a2.7,2.7,0,0,1,2.7,2.7v4.3A2.7,2.7,0,0,1,104.9,29.2Z"/><g class="cls-131"><path class="cls-132" d="M102.6,31.5h0l.6.8a4.1,4.1,0,0,0,.1-1.1l-.4-.2Z"/><path class="cls-133" d="M101.7,29.6l-.2.2h-.1a.4.4,0,0,1-.6.2,3,3,0,0,0-.4,1v.2l.9-.9a2.7,2.7,0,0,1,.8-.7h-.4Z"/><path class="cls-134" d="M100.5,32.1c0,.1,0,.1.1.1s.1-.2.2-.3l-.3.2Z"/><path class="cls-135" d="M103.3,30.3h.2V30c-.1,0-.1-.1-.2-.2S103.3,30.1,103.3,30.3Z"/><path class="cls-136" d="M98.9,29.7a5.2,5.2,0,0,0,.6,1.6c0-.2,0-.3.1-.4a.6.6,0,0,1-.1-.4c-.1-.4-.1-.8-.2-1.2h-.2C99,29.4,98.9,29.5,98.9,29.7Z"/><path class="cls-137" d="M100.6,18.4v.3h.2v-.5C100.7,18.3,100.6,18.3,100.6,18.4Z"/><path class="cls-138" d="M100.9,16.2h0c-.1.3-.1.5-.2.8h.2Z"/><path class="cls-139" d="M102.6,16.5h-.2a.4.4,0,0,0,.1.3h0Z"/><path class="cls-140" d="M116.9,13h.1V11.3h-.1Z"/><path class="cls-141" d="M97,20.4a3.7,3.7,0,0,1,.4-1.8l.3-.2c0-.2.1-.3.1-.4h-.1c-.1.2-.4.2-.6.1h0c-.1.2-.1.4-.2.5V19c0,.2-.1.3-.3.4s-.1.1-.2.1a2.8,2.8,0,0,0,.3,1.3Z"/><path class="cls-142" d="M96.1,29.5h0c0-.2-.1-.5-.1-.8h-.1V29Z"/><path class="cls-143" d="M97.1,28.8a.2.2,0,0,1,.2.2l.2.2c0-.1.1-.2.1-.3a1.9,1.9,0,0,0,.1-.8l-.5.2A.7.7,0,0,0,97.1,28.8Z"/><path class="cls-144" d="M94.6,27.1h.3a6.2,6.2,0,0,1,.2-1.9,1.3,1.3,0,0,1,.9-1.1c.2-.1.5.1.5.4a9.7,9.7,0,0,1-.1,1.7l.2-.2a.4.4,0,0,1,.7.3,3.4,3.4,0,0,1-.1,1l.5-.2a8.6,8.6,0,0,1,.1-3.2,1.3,1.3,0,0,1,.1-.6l-.2.2c-.2.3-.7.1-.7-.3a8.6,8.6,0,0,0-.1-1.6h-.1a.4.4,0,0,1-.5,0,3.5,3.5,0,0,1-.6-1.4c0,.1-.1.2-.1.3s-.3.4-.5.3.1.5.1.7-.1.5-.4.5h-.4a2.6,2.6,0,0,1,0,1.5l-.2.3c.1.9.3,1.9.4,2.8Z"/><path class="cls-145" d="M98.1,20.1a.4.4,0,0,0,.1-.3h0l-.4.9v1Z"/><path class="cls-146" d="M92.7,36.3h-.2c-.1.5-.1,1.1-.2,1.6h1A4.7,4.7,0,0,1,92.7,36.3Z"/><path class="cls-147" d="M97,37.3h-.1l-.3.3a3,3,0,0,1-1.3-.2,2,2,0,0,1-.8-.4h-.2a2.6,2.6,0,0,0,1.3.8h1.6A.4.4,0,0,1,97,37.3Z"/><path class="cls-148" d="M90.1,32.1a.4.4,0,0,1-.1-.3v-.3h-.1V32h.2Z"/><path class="cls-149" d="M89.7,17.8a.1.1,0,0,0-.1-.1v.2Z"/><path class="cls-150" d="M89.9,16.3a.4.4,0,0,0-.1.3h.1l.2.3v-.7h-.2Z"/><path class="cls-151" d="M90.2,13.7a2,2,0,0,1-.1.7h.2a1.3,1.3,0,0,1-.1-.6Z"/><path class="cls-152" d="M90.9,35.1l-.3-.2c-.4-.2-.9-.4-1-.8l-1.5-.4v4.1h3.3A11.7,11.7,0,0,1,90.9,35.1Z"/><path class="cls-153" d="M88.1,17.3v.3h0a4.3,4.3,0,0,1,.1-.5h-.1Z"/><path class="cls-154" d="M88.6,15.8c0-.2.1-.3.1-.4a16.7,16.7,0,0,1,.8-3c.1-.2.4-.2.6-.1s.4-.1.5.1a2.8,2.8,0,0,1,.4,1.5.4.4,0,0,1,.4.4,1.7,1.7,0,0,1,.1.7l.3-.5a12.1,12.1,0,0,1,.5-1.4.4.4,0,0,1,.7,0h.1c.1-.2.3-.2.5-.1a5,5,0,0,1,.3-1.3l.2-.2a1.9,1.9,0,0,0,.2-.8H88.1V16Z"/><path class="cls-155" d="M88.3,32.5h-.2v.4l1.9.4H88.7A.7.7,0,0,1,88.3,32.5Z"/><path class="cls-156" d="M88.1,31.1v.3h.1l.6-.3c0-.4-.1-.9-.1-1.3Z"/><path class="cls-157" d="M116,16.3h-3.4a10.9,10.9,0,0,1-4.3,1.1c-.4,0-.6-.4-.4-.6l-1.2.9h0a.4.4,0,0,1,.8.1,1.7,1.7,0,0,1-.1.7,1.9,1.9,0,0,1,.2.7c0,.1.1.2.1.3s-.1.9-.1,1.3a.4.4,0,0,1,.4.4c0,1.3-.2,2.6-.2,3.9a8.7,8.7,0,0,1-.1,2.3l-.2.3v.8c-.1.3-.4.5-.6.4a11.6,11.6,0,0,1-.4,1.8,1.9,1.9,0,0,1-.2.7l.7.6a2.8,2.8,0,0,1-.1-.9.4.4,0,0,1,.6-.4c1.1.7,1.2,2.3,1.2,3.4a.4.4,0,0,1-.4.4V35c0,.1.1.1.1.2a.3.3,0,0,1,.1.2c.1.2-.1.4-.2.5a4.3,4.3,0,0,1,.1.5,1.6,1.6,0,0,1,.4.7c.1.2-.1.4-.3.5v.2H117V14.7h-.6c0,.1,0,.1-.1.1h.1c.3.1.2.5,0,.7h-.1C116.5,15.8,116.4,16.2,116,16.3Z"/><path class="cls-158" d="M106.9,16.6h-.3Z"/><path class="cls-159" d="M104.5,17.2h0a1.3,1.3,0,0,0,.1-.6.1.1,0,0,0,.1-.1,2.8,2.8,0,0,1-1.3,0h0c0,.2,0,.3-.1.4v.5h.3C103.7,16.9,104.4,16.7,104.5,17.2Z"/><path class="cls-160" d="M95.9,11.3l.2.4h.1c-.2-.2-.3-.6,0-.7h-.7V11C95.7,11,95.9,11.1,95.9,11.3Z"/></g><path class="cls-161" d="M59.2,115.5v-2.6h6v6.3a7.1,7.1,0,0,1-5.2,1.9,7.3,7.3,0,0,1-5.3-1.9,6.9,6.9,0,0,1-2-5,6.7,6.7,0,0,1,2-5,7.9,7.9,0,0,1,10.5,0l-1.8,1.9a3.7,3.7,0,0,0-1.4-.8,4.3,4.3,0,0,0-1.9-.4,3.8,3.8,0,0,0-2.9,1.2,4.5,4.5,0,0,0-1.1,3.1,4.2,4.2,0,0,0,1.1,3,4.1,4.1,0,0,0,3,1.2,5.8,5.8,0,0,0,1.9-.3v-2.6Z"/><path class="cls-161" d="M68.8,116.1a4.6,4.6,0,0,1,1.5-3.6,5.2,5.2,0,0,1,3.9-1.4,5.1,5.1,0,0,1,3.8,1.4,5.1,5.1,0,0,1,0,7.2,5.6,5.6,0,0,1-3.8,1.4,5.6,5.6,0,0,1-3.9-1.4A4.6,4.6,0,0,1,68.8,116.1Zm3.8,1.8a1.9,1.9,0,0,0,1.6.7,1.8,1.8,0,0,0,1.5-.7,2.6,2.6,0,0,0,.6-1.8,2.9,2.9,0,0,0-.6-1.9,2.1,2.1,0,0,0-1.5-.7,2.2,2.2,0,0,0-1.6.7,2.9,2.9,0,0,0-.6,1.9A2.8,2.8,0,0,0,72.6,117.9Z"/><path class="cls-161" d="M82.8,116.1a4.6,4.6,0,0,1,1.5-3.6,5.2,5.2,0,0,1,3.9-1.4,5.1,5.1,0,0,1,3.8,1.4,5.1,5.1,0,0,1,0,7.2,5.6,5.6,0,0,1-3.8,1.4,5.6,5.6,0,0,1-3.9-1.4A4.6,4.6,0,0,1,82.8,116.1Zm3.8,1.8a1.9,1.9,0,0,0,1.6.7,2.1,2.1,0,0,0,1.6-.7,2.6,2.6,0,0,0,.6-1.8,2.9,2.9,0,0,0-.6-1.9,2.6,2.6,0,0,0-1.6-.7,2.2,2.2,0,0,0-1.6.7,2.9,2.9,0,0,0-.6,1.9A2.8,2.8,0,0,0,86.6,117.9Z"/><path class="cls-162" d="M97.3,107h2.9v4.6a5.8,5.8,0,0,1,2.5-.5,4.1,4.1,0,0,1,3.2,1.3,4.5,4.5,0,0,1,1.2,3.3,5.1,5.1,0,0,1-1.7,3.9,6.3,6.3,0,0,1-4.3,1.5,8.9,8.9,0,0,1-3.8-.8Zm2.9,11.5h1.2a2.4,2.4,0,0,0,1.8-.7,3.3,3.3,0,0,0,.2-3.8,1.9,1.9,0,0,0-1.4-.7,1.8,1.8,0,0,0-1.3.6,2.4,2.4,0,0,0-.5,1.4Z"/><path class="cls-163" d="M112,115.8a5.9,5.9,0,0,1,3.4-.9h1.3v-.4c0-.6-.7-1.1-1.7-1.1a5,5,0,0,0-2.7.8l-1.3-1.6a4.1,4.1,0,0,1,1.8-1.2,6.9,6.9,0,0,1,2.5-.4,5,5,0,0,1,3.1.9,2.9,2.9,0,0,1,1.2,2.4v6.5h-2.9v-.6a4.8,4.8,0,0,1-2.7.8,3.6,3.6,0,0,1-2.4-.8,2.5,2.5,0,0,1-1-2.1A2.8,2.8,0,0,1,112,115.8Zm2.2,1.3a1,1,0,0,0-.5.8c0,.5.5.9,1.3.9a1.7,1.7,0,0,0,1.7-1.9h-1A3.3,3.3,0,0,0,114.2,117.1Z"/><path class="cls-164" d="M132.4,119.7a5,5,0,0,1-3.7,1.4,5.6,5.6,0,0,1-3.9-1.4,5.1,5.1,0,0,1,0-7.2,5.2,5.2,0,0,1,3.9-1.4,5.1,5.1,0,0,1,3.7,1.3l-1.7,1.7a2.4,2.4,0,0,0-1.8-.6,2.6,2.6,0,0,0-2.4,2.6,2.3,2.3,0,0,0,.7,1.8,2.1,2.1,0,0,0,1.7.7,3,3,0,0,0,1.8-.5Z"/><path class="cls-161" d="M56.1,125.2h.3v1l-.4.2h-.6l-.7-.2a1.2,1.2,0,0,1-.5-.5,1.4,1.4,0,0,1-.2-.6,1.4,1.4,0,0,1,.2-.7,1.2,1.2,0,0,1,.5-.5l.7-.2H56l.4.3-.2.3a1.1,1.1,0,0,0-.7-.3h-.6c-.1.1-.3.2-.3.4a.8.8,0,0,0-.2.5c0,.2.1.3.2.5l.3.3.6.2.6-.2Z"/><path class="cls-161" d="M60.8,126.5l-.5-.8h-.8v.8h-.4v-2.6h1a1.1,1.1,0,0,1,.8.2.9.9,0,0,1,.3.7c0,.2-.1.3-.2.5l-.4.3.6.9Zm-.2-1.3a.5.5,0,0,0,.2-.4.8.8,0,0,0-.2-.5H59.5v1.2h.6Z"/><path class="cls-161" d="M64.2,126.3a1.2,1.2,0,0,1-.5-.5,1.4,1.4,0,0,1-.2-.6,1.4,1.4,0,0,1,.2-.7,1.2,1.2,0,0,1,.5-.5l.7-.2.7.2a1.2,1.2,0,0,1,.5.5,1.4,1.4,0,0,1,.2.7,1.4,1.4,0,0,1-.2.6,1.2,1.2,0,0,1-.5.5l-.7.2Zm1.2-.3.4-.3a.9.9,0,0,0,.1-.5.7.7,0,0,0-.1-.5.8.8,0,0,0-.4-.4h-1a.8.8,0,0,0-.4.4.7.7,0,0,0-.1.5.9.9,0,0,0,.1.5l.4.3.5.2Z"/><path class="cls-161" d="M72.4,123.9l-.9,2.6h-.3l-.8-2.1-.7,2.1h-.4l-.8-2.6h.4l.7,2.1.7-2.1h.3l.7,2.1.8-2.1Z"/><path class="cls-161" d="M75.4,124.2h-.9v-.3h2.1v.3h-.9v2.3h-.3Z"/><path class="cls-161" d="M81.2,123.9v2.6h-.3v-1.2H79.4v1.2H79v-2.6h.4V125h1.5v-1.1Z"/><path class="cls-161" d="M87.1,126.4l-.4-.2v-.3l.4.2h1a.4.4,0,0,0,.1-.3c0-.1,0-.2-.1-.2l-.2-.2h-.8l-.3-.2a.8.8,0,0,1-.2-.4.5.5,0,0,1,.2-.4q0-.2.3-.3h1l.4.2v.3l-.4-.2h-.8c-.1,0-.2.1-.2.3s0,.1.1.2h.6l.5.2.3.2c0,.1.1.2.1.4a.4.4,0,0,1-.1.3l-.4.3H87.1Z"/><path class="cls-161" d="M91.7,124.2h-.9v-.3h2.1v.3H92v2.3h-.3Z"/><path class="cls-161" d="M96.8,125.8H95.4l-.3.7h-.3l1.1-2.6h.4l1.2,2.6h-.4Zm-.1-.3-.6-1.3-.5,1.3Z"/><path class="cls-161" d="M101.6,126.5l-.6-.8h-.8v.8h-.4v-2.6h1.1c.3,0,.6,0,.7.2a1.1,1.1,0,0,1,.2,1.2l-.4.3.6.9Zm-.2-1.3a.5.5,0,0,0,.2-.4.8.8,0,0,0-.2-.5h-1.2v1.2h.6Z"/><path class="cls-161" d="M105,124.2h-.9v-.3h2.1v.3h-.9v2.3H105Z"/><path class="cls-161" d="M108.8,126.4l-.5-.2.2-.3.3.2h1c.1-.1.2-.2.2-.3v-.2l-.2-.2h-.9l-.3-.2a.6.6,0,0,1-.1-.4c0-.2,0-.3.1-.4l.3-.3h1l.4.2v.3a.5.5,0,0,0-.4-.2h-.8c-.1,0-.1.1-.1.3v.2h.6l.5.2.3.2c.1.1.1.2.1.4a.4.4,0,0,1-.1.3l-.3.3h-1.1Z"/><path class="cls-161" d="M118,123.9v2.6h-.3v-1.2h-1.5v1.2h-.4v-2.6h.4V125h1.5v-1.1Z"/><path class="cls-161" d="M122.6,126.1v.4h-1.8v-2.6h1.8v.3h-1.5v.8h1.3v.3h-1.3v.8Z"/><path class="cls-161" d="M126.9,126.5l-.5-.8h-.8v.8h-.4v-2.6h1c.4,0,.6,0,.8.2a1.1,1.1,0,0,1,.2,1.2l-.5.3.7.9Zm-.1-1.3c.1-.1.1-.2.1-.4a.7.7,0,0,0-.1-.5h-1.2v1.2h.6Z"/><path class="cls-161" d="M131.8,126.1v.4h-1.9v-2.6h1.8v.3h-1.5v.8h1.3v.3h-1.3v.8Z"/></g></g></svg>